<svg width="221" height="206" viewBox="0 0 221 206" fill="none" xmlns="http://www.w3.org/2000/svg">
<rect width="221" height="206" fill="#1E90FF"/>
<path d="M195 103.5C195 149.063 157.392 186 111 186C64.6081 186 27 149.063 27 103.5C27 57.9365 64.6081 21 111 21C157.392 21 195 57.9365 195 103.5ZM35.3696 103.5C35.3696 144.524 69.2305 177.78 111 177.78C152.77 177.78 186.63 144.524 186.63 103.5C186.63 62.4764 152.77 29.2202 111 29.2202C69.2305 29.2202 35.3696 62.4764 35.3696 103.5Z" fill="#FFFDFD"/>
<path d="M173 113.5C173 150.779 145.242 181 111 181C76.7583 181 49 150.779 49 113.5C49 76.2208 76.7583 46 111 46C145.242 46 173 76.2208 173 113.5ZM55.1776 113.5C55.1776 147.065 80.1701 174.274 111 174.274C141.83 174.274 166.822 147.065 166.822 113.5C166.822 79.9352 141.83 52.7256 111 52.7256C80.1701 52.7256 55.1776 79.9352 55.1776 113.5Z" fill="#FFFDFD"/>
<path d="M158 128.5C158 157.495 136.957 181 111 181C85.0426 181 64 157.495 64 128.5C64 99.5051 85.0426 76 111 76C136.957 76 158 99.5051 158 128.5ZM68.683 128.5C68.683 154.606 87.629 175.769 111 175.769C134.371 175.769 153.317 154.606 153.317 128.5C153.317 102.394 134.371 81.231 111 81.231C87.629 81.231 68.683 102.394 68.683 128.5Z" fill="#FFFDFD"/>
<circle cx="110.5" cy="128.5" r="10.5" fill="white"/>
</svg>
