<svg width="483" height="210" viewBox="0 0 483 210" fill="none" xmlns="http://www.w3.org/2000/svg">
<rect width="483" height="210" fill="#1E90FF"/>
<path d="M185 103.5C185 149.063 147.392 186 101 186C54.6081 186 17 149.063 17 103.5C17 57.9365 54.6081 21 101 21C147.392 21 185 57.9365 185 103.5ZM25.3696 103.5C25.3696 144.524 59.2305 177.78 101 177.78C142.77 177.78 176.63 144.524 176.63 103.5C176.63 62.4764 142.77 29.2202 101 29.2202C59.2305 29.2202 25.3696 62.4764 25.3696 103.5Z" fill="#FFFDFD"/>
<path d="M163 113.5C163 150.779 135.242 181 101 181C66.7583 181 39 150.779 39 113.5C39 76.2208 66.7583 46 101 46C135.242 46 163 76.2208 163 113.5ZM45.1776 113.5C45.1776 147.065 70.1701 174.274 101 174.274C131.83 174.274 156.822 147.065 156.822 113.5C156.822 79.9352 131.83 52.7256 101 52.7256C70.1701 52.7256 45.1776 79.9352 45.1776 113.5Z" fill="#FFFDFD"/>
<path d="M148 128.5C148 157.495 126.957 181 101 181C75.0426 181 54 157.495 54 128.5C54 99.5051 75.0426 76 101 76C126.957 76 148 99.5051 148 128.5ZM58.683 128.5C58.683 154.606 77.629 175.769 101 175.769C124.371 175.769 143.317 154.606 143.317 128.5C143.317 102.394 124.371 81.231 101 81.231C77.629 81.231 58.683 102.394 58.683 128.5Z" fill="#FFFDFD"/>
<circle cx="100.5" cy="128.5" r="10.5" fill="white"/>
<path d="M218.36 57.784C222.072 57.528 225.352 57.4 228.2 57.4C236.104 57.4 240.056 60.04 240.056 65.32C240.056 67.304 239.48 69.016 238.328 70.456C237.176 71.864 235.336 72.824 232.808 73.336C235.24 73.624 237.16 74.36 238.568 75.544C239.976 76.728 240.68 78.792 240.68 81.736C240.68 87.912 236.728 91 228.824 91H218.36V57.784ZM222.344 90.52H228.824C231.672 90.52 233.688 89.784 234.872 88.312C236.088 86.808 236.696 84.52 236.696 81.448C236.696 78.376 236.088 76.328 234.872 75.304C233.656 74.28 231.848 73.736 229.448 73.672H222.344V90.52ZM228.2 57.88C226.344 57.88 224.392 57.992 222.344 58.216V73.192H229.448C233.96 73 236.216 70.408 236.216 65.416C236.216 62.984 235.544 61.128 234.2 59.848C232.856 58.536 230.856 57.88 228.2 57.88ZM253.463 69.064V68.056C252.023 68.632 250.711 69.8 249.527 71.56C248.343 73.288 247.719 74.92 247.655 76.456V91H244.295V67H247.655V74.632C248.167 72.776 249.143 71.032 250.583 69.4C252.023 67.736 253.655 66.872 255.479 66.808H255.671C256.311 66.808 256.839 67.032 257.255 67.48C257.703 67.896 257.927 68.424 257.927 69.064C257.927 69.704 257.703 70.232 257.255 70.648C256.839 71.064 256.311 71.272 255.671 71.272C255.031 71.272 254.503 71.064 254.087 70.648C253.671 70.232 253.463 69.704 253.463 69.064ZM266.441 91C265.129 91 264.121 90.712 263.417 90.136C262.745 89.56 262.393 88.984 262.361 88.408L262.313 87.592V67H265.673V87.592C265.673 88.52 265.849 89.24 266.201 89.752C266.585 90.232 266.953 90.488 267.305 90.52L267.881 90.616H269.369V91H266.441ZM262.601 61.624C262.217 61.24 262.025 60.76 262.025 60.184C262.025 59.608 262.217 59.128 262.601 58.744C262.985 58.328 263.465 58.12 264.041 58.12C264.617 58.12 265.097 58.328 265.481 58.744C265.897 59.128 266.105 59.608 266.105 60.184C266.105 60.76 265.897 61.24 265.481 61.624C265.097 62.008 264.617 62.2 264.041 62.2C263.465 62.2 262.985 62.008 262.601 61.624ZM272.039 79.864C272.039 75.704 273.047 72.488 275.063 70.216C277.079 67.944 280.103 66.808 284.135 66.808C287.111 66.808 290.135 67.336 293.207 68.392V91.576C293.175 99.192 289.847 103 283.223 103C279.575 103 276.455 101.816 273.863 99.448L274.199 99.16C276.951 101.464 279.959 102.616 283.223 102.616C287.639 102.616 289.847 98.936 289.847 91.576V86.824C289.239 87.944 288.231 88.936 286.823 89.8C285.415 90.664 283.751 91.096 281.831 91.096C275.303 90.936 272.039 87.192 272.039 79.864ZM281.879 90.712C284.023 90.712 285.863 90.136 287.399 88.984C288.935 87.832 289.751 86.696 289.847 85.576V68.632C287.543 67.672 285.591 67.192 283.991 67.192C281.143 67.192 278.999 68.312 277.559 70.552C276.119 72.76 275.399 75.864 275.399 79.864C275.399 87.096 277.559 90.712 281.879 90.712ZM319.346 91C318.034 91 317.026 90.712 316.322 90.136C315.65 89.56 315.298 88.984 315.266 88.408L315.218 87.592V72.52C315.218 69.992 314.546 68.376 313.202 67.672C312.562 67.352 311.746 67.192 310.754 67.192C308.77 67.192 306.978 68.008 305.378 69.64C303.81 71.24 303.026 72.68 303.026 73.96V91H299.666V55.048H303.026V72.472C303.538 71.096 304.514 69.816 305.954 68.632C307.394 67.416 309.01 66.808 310.802 66.808C313.906 66.808 315.97 67.352 316.994 68.44C318.05 69.496 318.578 70.872 318.578 72.568V87.592C318.578 88.52 318.754 89.24 319.106 89.752C319.49 90.232 319.858 90.488 320.21 90.52L320.786 90.616H322.274V91H319.346ZM325.618 67.384V67H326.626V62.2H329.986V67H337.33V67.384H329.986V84.856C329.986 86.936 330.21 88.44 330.658 89.368C331.138 90.296 332.114 90.76 333.586 90.76C335.09 90.76 336.61 90.456 338.146 89.848L338.29 90.232C336.69 90.84 334.85 91.144 332.77 91.144C330.722 91.144 329.186 90.728 328.162 89.896C327.138 89.032 326.626 87.336 326.626 84.808V67.384H325.618ZM353.697 91H349.713V57.88H341.409V57.4H362.049V57.88H353.697V91ZM366.293 79.288C366.293 83.256 366.981 86.168 368.357 88.024C369.765 89.88 371.605 90.808 373.877 90.808C377.077 90.808 379.925 90.328 382.421 89.368L382.565 89.704C380.005 90.696 377.109 91.192 373.877 91.192C370.677 91.192 368.069 90.232 366.053 88.312C364.037 86.392 363.029 83.432 363.029 79.432C363.029 75.432 364.085 72.328 366.197 70.12C368.309 67.912 370.997 66.808 374.261 66.808C376.885 66.808 379.093 67.592 380.885 69.16C382.677 70.728 383.573 73.048 383.573 76.12C383.573 76.28 383.573 76.44 383.573 76.6H366.437C366.341 77.464 366.293 78.36 366.293 79.288ZM380.309 76.216C380.277 73.144 379.685 70.872 378.533 69.4C377.381 67.928 375.893 67.192 374.069 67.192C372.245 67.192 370.613 67.992 369.173 69.592C367.765 71.192 366.869 73.4 366.485 76.216H380.309ZM398.215 67.192C395.943 67.192 394.039 68.28 392.503 70.456C390.999 72.632 390.247 75.64 390.247 79.48C390.247 83.32 390.935 86.168 392.311 88.024C393.719 89.88 395.559 90.808 397.831 90.808C400.679 90.808 403.207 90.328 405.415 89.368L405.559 89.704C403.287 90.696 400.631 91.192 397.591 91.192C394.551 91.192 392.023 90.232 390.007 88.312C387.991 86.392 386.983 83.432 386.983 79.432C386.983 75.432 388.039 72.328 390.151 70.12C392.263 67.912 394.951 66.808 398.215 66.808C400.039 66.808 401.719 67.224 403.255 68.056C404.823 68.888 405.975 70.152 406.711 71.848H403.639C403.159 70.28 402.423 69.112 401.431 68.344C400.471 67.576 399.399 67.192 398.215 67.192ZM430.252 91C428.94 91 427.932 90.712 427.228 90.136C426.556 89.56 426.204 88.984 426.172 88.408L426.124 87.592V72.52C426.124 69.992 425.452 68.376 424.108 67.672C423.468 67.352 422.652 67.192 421.66 67.192C419.676 67.192 417.884 68.008 416.284 69.64C414.716 71.24 413.932 72.68 413.932 73.96V91H410.572V55.048H413.932V72.472C414.444 71.096 415.42 69.816 416.86 68.632C418.3 67.416 419.916 66.808 421.708 66.808C424.812 66.808 426.876 67.352 427.9 68.44C428.956 69.496 429.484 70.872 429.484 72.568V87.592C429.484 88.52 429.66 89.24 430.012 89.752C430.396 90.232 430.764 90.488 431.116 90.52L431.692 90.616H433.18V91H430.252ZM236.072 116.416C233.16 115.296 230.408 114.736 227.816 114.736C225.256 114.736 223.256 115.28 221.816 116.368C220.376 117.456 219.656 118.96 219.656 120.88C219.656 123.216 220.872 125.024 223.304 126.304C224.392 126.848 225.576 127.36 226.856 127.84C228.168 128.288 229.48 128.8 230.792 129.376C232.104 129.952 233.304 130.608 234.392 131.344C235.48 132.08 236.36 133.104 237.032 134.416C237.704 135.696 238.04 137.344 238.04 139.36C238.04 141.344 237.48 143.04 236.36 144.448C235.24 145.856 233.88 146.816 232.28 147.328C230.712 147.808 228.872 148.048 226.76 148.048C222.824 148.048 219.464 147.072 216.68 145.12L216.92 144.736C217.976 145.568 219.336 146.256 221 146.8C222.696 147.312 224.424 147.568 226.184 147.568C228.776 147.568 230.984 146.976 232.808 145.792C234.664 144.576 235.592 142.8 235.592 140.464C235.592 137.904 234.376 135.904 231.944 134.464C230.856 133.824 229.656 133.232 228.344 132.688C227.064 132.144 225.768 131.584 224.456 131.008C223.144 130.4 221.944 129.728 220.856 128.992C218.424 127.392 217.208 125.12 217.208 122.176C217.208 119.84 217.992 117.952 219.56 116.512C221.128 115.04 223.48 114.304 226.616 114.304C229.784 114.304 233 114.848 236.264 115.936L236.072 116.416ZM252.999 148.192C249.639 148.192 246.903 147.232 244.791 145.312C242.679 143.392 241.623 140.432 241.623 136.432C241.623 132.432 242.711 129.328 244.887 127.12C247.095 124.912 249.879 123.808 253.239 123.808C256.631 123.808 259.383 124.768 261.495 126.688C263.607 128.608 264.663 131.568 264.663 135.568C264.663 139.568 263.559 142.672 261.351 144.88C259.175 147.088 256.391 148.192 252.999 148.192ZM253.335 124.192C250.903 124.192 248.887 125.28 247.287 127.456C245.687 129.6 244.887 132.608 244.887 136.48C244.887 140.32 245.623 143.168 247.095 145.024C248.567 146.88 250.519 147.808 252.951 147.808C255.383 147.808 257.399 146.736 258.999 144.592C260.599 142.416 261.399 139.408 261.399 135.568C261.399 131.696 260.663 128.832 259.191 126.976C257.719 125.12 255.767 124.192 253.335 124.192ZM274.579 148C271.763 148 269.987 147.264 269.251 145.792C269.091 145.472 269.011 145.184 269.011 144.928V112.048H272.371V144.592C272.371 145.52 272.547 146.24 272.898 146.752C273.283 147.232 273.667 147.488 274.051 147.52L274.579 147.616H276.067V148H274.579ZM283.046 142.48C283.046 145.008 283.718 146.624 285.062 147.328C285.702 147.648 286.518 147.808 287.51 147.808C289.526 147.808 291.318 147.04 292.886 145.504C294.486 143.968 295.35 142.544 295.478 141.232V124H298.838V144.592C298.838 145.52 299.014 146.24 299.366 146.752C299.75 147.232 300.134 147.488 300.518 147.52L301.046 147.616H302.534V148H299.606C298.294 148 297.286 147.712 296.582 147.136C295.91 146.56 295.558 145.984 295.526 145.408L295.478 144.592V142.528C294.902 143.904 293.878 145.2 292.406 146.416C290.934 147.6 289.318 148.192 287.558 148.192C285.83 148.192 284.406 148.032 283.286 147.712C282.198 147.36 281.414 146.88 280.934 146.272C280.102 145.28 279.686 144 279.686 142.432V124H283.046V142.48ZM304.711 124.384V124H305.719V119.2H309.079V124H316.423V124.384H309.079V141.856C309.079 143.936 309.303 145.44 309.751 146.368C310.231 147.296 311.207 147.76 312.679 147.76C314.183 147.76 315.703 147.456 317.239 146.848L317.383 147.232C315.783 147.84 313.943 148.144 311.863 148.144C309.815 148.144 308.279 147.728 307.255 146.896C306.231 146.032 305.719 144.336 305.719 141.808V124.384H304.711ZM324.425 148C323.113 148 322.105 147.712 321.401 147.136C320.729 146.56 320.377 145.984 320.345 145.408L320.297 144.592V124H323.657V144.592C323.657 145.52 323.833 146.24 324.185 146.752C324.569 147.232 324.937 147.488 325.289 147.52L325.865 147.616H327.353V148H324.425ZM320.585 118.624C320.201 118.24 320.009 117.76 320.009 117.184C320.009 116.608 320.201 116.128 320.585 115.744C320.969 115.328 321.449 115.12 322.025 115.12C322.601 115.12 323.081 115.328 323.465 115.744C323.881 116.128 324.089 116.608 324.089 117.184C324.089 117.76 323.881 118.24 323.465 118.624C323.081 119.008 322.601 119.2 322.025 119.2C321.449 119.2 320.969 119.008 320.585 118.624ZM340.187 148.192C336.827 148.192 334.091 147.232 331.979 145.312C329.867 143.392 328.811 140.432 328.811 136.432C328.811 132.432 329.899 129.328 332.075 127.12C334.283 124.912 337.067 123.808 340.427 123.808C343.819 123.808 346.571 124.768 348.683 126.688C350.795 128.608 351.851 131.568 351.851 135.568C351.851 139.568 350.747 142.672 348.539 144.88C346.363 147.088 343.579 148.192 340.187 148.192ZM340.523 124.192C338.091 124.192 336.075 125.28 334.475 127.456C332.875 129.6 332.075 132.608 332.075 136.48C332.075 140.32 332.811 143.168 334.283 145.024C335.755 146.88 337.707 147.808 340.139 147.808C342.571 147.808 344.587 146.736 346.187 144.592C347.787 142.416 348.587 139.408 348.587 135.568C348.587 131.696 347.851 128.832 346.379 126.976C344.907 125.12 342.955 124.192 340.523 124.192ZM374.653 148C373.341 148 372.333 147.712 371.629 147.136C370.957 146.56 370.605 145.984 370.573 145.408L370.525 144.592V129.52C370.525 126.992 369.869 125.376 368.557 124.672C367.885 124.352 367.053 124.192 366.061 124.192C364.013 124.192 362.173 125.008 360.541 126.64C358.909 128.24 358.093 129.68 358.093 130.96V148H354.733V124H358.093V129.472C358.637 128.096 359.645 126.816 361.117 125.632C362.589 124.416 364.205 123.808 365.965 123.808C367.725 123.808 369.149 123.984 370.237 124.336C371.357 124.656 372.173 125.12 372.685 125.728C373.485 126.72 373.885 128 373.885 129.568V144.592C373.885 145.52 374.061 146.24 374.413 146.752C374.797 147.232 375.181 147.488 375.565 147.52L376.093 147.616H377.581V148H374.653ZM394.014 125.68C393.502 125.264 392.67 124.912 391.518 124.624C390.398 124.336 389.55 124.192 388.974 124.192C388.398 124.192 388.062 124.192 387.966 124.192C386.238 124.224 384.99 124.672 384.222 125.536C383.454 126.368 383.07 127.312 383.07 128.368C383.07 129.424 383.406 130.32 384.078 131.056C384.75 131.76 385.582 132.32 386.574 132.736C387.598 133.12 388.686 133.568 389.838 134.08C391.022 134.592 392.11 135.12 393.102 135.664C394.126 136.176 394.974 136.944 395.646 137.968C396.318 138.96 396.654 140.208 396.654 141.712C396.654 143.216 396.126 144.496 395.07 145.552C394.014 146.608 392.83 147.312 391.518 147.664C390.238 148.016 388.846 148.192 387.342 148.192C384.078 148.192 381.63 147.472 379.998 146.032L380.286 145.744C380.926 146.352 381.87 146.848 383.118 147.232C384.398 147.616 385.63 147.808 386.814 147.808C388.702 147.808 390.254 147.296 391.47 146.272C392.718 145.216 393.342 143.92 393.342 142.384C393.342 140.816 392.878 139.568 391.95 138.64C391.022 137.68 389.886 136.944 388.542 136.432C387.23 135.888 385.902 135.36 384.558 134.848C383.214 134.304 382.078 133.568 381.15 132.64C380.222 131.68 379.758 130.576 379.758 129.328C379.758 128.08 380.046 127.072 380.622 126.304C381.198 125.504 381.966 124.944 382.926 124.624C384.558 124.08 386.19 123.808 387.822 123.808C390.574 123.808 392.718 124.32 394.254 125.344L394.014 125.68Z" fill="white"/>
</svg>
