<svg width="321" height="200" viewBox="0 0 321 200" fill="none" xmlns="http://www.w3.org/2000/svg">
<rect width="321" height="200" rx="16" fill="#ECECEC"/>
<rect x="132.601" y="35" width="55.2409" height="54.7826" rx="8" fill="#B1D6F3"/>
<path d="M174.543 62.3913C174.543 70.2353 168.131 76.5942 160.222 76.5942C152.312 76.5942 145.9 70.2353 145.9 62.3913C145.9 54.5472 152.312 48.1884 160.222 48.1884C168.131 48.1884 174.543 54.5472 174.543 62.3913ZM147.66 62.3913C147.66 69.2715 153.284 74.8491 160.222 74.8491C167.159 74.8491 172.784 69.2715 172.784 62.3913C172.784 55.511 167.159 49.9334 160.222 49.9334C153.284 49.9334 147.66 55.511 147.66 62.3913Z" fill="#2D90DC"/>
<rect x="158.176" y="54.2753" width="4.09192" height="13.1884" rx="2.04596" fill="#2D90DC"/>
<rect width="4.06862" height="8.16267" rx="2.03431" transform="matrix(-0.562412 0.826858 -0.831177 -0.556008 167.249 67.9442)" fill="#2D90DC"/>
<path d="M91.8746 110H90.1133C90.0091 109.493 89.8268 109.048 89.5664 108.665C89.3107 108.281 88.9982 107.959 88.6289 107.699C88.2643 107.434 87.8595 107.235 87.4144 107.102C86.9693 106.97 86.5053 106.903 86.0223 106.903C85.1417 106.903 84.3438 107.126 83.6289 107.571C82.9186 108.016 82.3528 108.672 81.9314 109.538C81.5148 110.405 81.3064 111.468 81.3064 112.727C81.3064 113.987 81.5148 115.05 81.9314 115.916C82.3528 116.783 82.9186 117.438 83.6289 117.884C84.3438 118.329 85.1417 118.551 86.0223 118.551C86.5053 118.551 86.9693 118.485 87.4144 118.352C87.8595 118.22 88.2643 118.023 88.6289 117.763C88.9982 117.498 89.3107 117.173 89.5664 116.79C89.8268 116.402 90.0091 115.956 90.1133 115.455H91.8746C91.742 116.198 91.5006 116.863 91.1502 117.45C90.7998 118.037 90.3642 118.537 89.8434 118.949C89.3225 119.356 88.7378 119.666 88.0891 119.879C87.4452 120.092 86.7562 120.199 86.0223 120.199C84.7818 120.199 83.6786 119.896 82.7127 119.29C81.7468 118.684 80.9868 117.822 80.4329 116.705C79.8789 115.587 79.6019 114.261 79.6019 112.727C79.6019 111.193 79.8789 109.867 80.4329 108.75C80.9868 107.633 81.7468 106.771 82.7127 106.165C83.6786 105.559 84.7818 105.256 86.0223 105.256C86.7562 105.256 87.4452 105.362 88.0891 105.575C88.7378 105.788 89.3225 106.101 89.8434 106.513C90.3642 106.92 90.7998 107.417 91.1502 108.004C91.5006 108.587 91.742 109.252 91.8746 110ZM98.9254 120.227C97.9405 120.227 97.0764 119.993 96.3331 119.524C95.5944 119.055 95.0168 118.4 94.6001 117.557C94.1882 116.714 93.9822 115.729 93.9822 114.602C93.9822 113.466 94.1882 112.474 94.6001 111.626C95.0168 110.779 95.5944 110.121 96.3331 109.652C97.0764 109.183 97.9405 108.949 98.9254 108.949C99.9102 108.949 100.772 109.183 101.511 109.652C102.254 110.121 102.832 110.779 103.244 111.626C103.66 112.474 103.869 113.466 103.869 114.602C103.869 115.729 103.66 116.714 103.244 117.557C102.832 118.4 102.254 119.055 101.511 119.524C100.772 119.993 99.9102 120.227 98.9254 120.227ZM98.9254 118.722C99.6735 118.722 100.289 118.53 100.772 118.146C101.255 117.763 101.612 117.259 101.844 116.634C102.076 116.009 102.192 115.331 102.192 114.602C102.192 113.873 102.076 113.194 101.844 112.564C101.612 111.934 101.255 111.425 100.772 111.037C100.289 110.649 99.6735 110.455 98.9254 110.455C98.1773 110.455 97.5618 110.649 97.0788 111.037C96.5959 111.425 96.2384 111.934 96.0064 112.564C95.7744 113.194 95.6584 113.873 95.6584 114.602C95.6584 115.331 95.7744 116.009 96.0064 116.634C96.2384 117.259 96.5959 117.763 97.0788 118.146C97.5618 118.53 98.1773 118.722 98.9254 118.722ZM108.103 113.438V120H106.427V109.091H108.046V110.795H108.189C108.444 110.241 108.832 109.796 109.353 109.46C109.874 109.119 110.546 108.949 111.37 108.949C112.109 108.949 112.755 109.1 113.309 109.403C113.863 109.702 114.294 110.156 114.602 110.767C114.91 111.373 115.064 112.14 115.064 113.068V120H113.387V113.182C113.387 112.325 113.165 111.657 112.72 111.179C112.275 110.696 111.664 110.455 110.887 110.455C110.352 110.455 109.874 110.571 109.453 110.803C109.036 111.035 108.707 111.373 108.466 111.818C108.224 112.263 108.103 112.803 108.103 113.438ZM125.854 111.534L124.348 111.96C124.253 111.709 124.114 111.465 123.929 111.229C123.749 110.987 123.503 110.788 123.19 110.632C122.878 110.476 122.478 110.398 121.99 110.398C121.322 110.398 120.766 110.552 120.321 110.859C119.881 111.162 119.66 111.548 119.66 112.017C119.66 112.434 119.812 112.763 120.115 113.004C120.418 113.246 120.892 113.447 121.535 113.608L123.155 114.006C124.13 114.242 124.857 114.605 125.335 115.092C125.813 115.575 126.053 116.198 126.053 116.96C126.053 117.585 125.873 118.144 125.513 118.636C125.158 119.129 124.66 119.517 124.021 119.801C123.382 120.085 122.639 120.227 121.791 120.227C120.678 120.227 119.758 119.986 119.028 119.503C118.299 119.02 117.838 118.314 117.643 117.386L119.234 116.989C119.386 117.576 119.672 118.016 120.094 118.31C120.52 118.603 121.076 118.75 121.763 118.75C122.544 118.75 123.164 118.584 123.624 118.253C124.088 117.917 124.32 117.514 124.32 117.045C124.32 116.667 124.187 116.349 123.922 116.094C123.657 115.833 123.249 115.639 122.7 115.511L120.882 115.085C119.883 114.848 119.149 114.482 118.68 113.984C118.216 113.482 117.984 112.855 117.984 112.102C117.984 111.487 118.157 110.942 118.503 110.469C118.853 109.995 119.329 109.624 119.93 109.354C120.536 109.084 121.223 108.949 121.99 108.949C123.07 108.949 123.917 109.186 124.533 109.659C125.153 110.133 125.593 110.758 125.854 111.534ZM135.451 115.54V109.091H137.127V120H135.451V118.153H135.337C135.081 118.707 134.684 119.179 134.144 119.567C133.604 119.95 132.922 120.142 132.098 120.142C131.417 120.142 130.81 119.993 130.28 119.695C129.75 119.392 129.333 118.937 129.03 118.331C128.727 117.72 128.576 116.951 128.576 116.023V109.091H130.252V115.909C130.252 116.705 130.474 117.339 130.919 117.812C131.369 118.286 131.942 118.523 132.638 118.523C133.055 118.523 133.479 118.416 133.909 118.203C134.345 117.99 134.71 117.663 135.003 117.223C135.301 116.783 135.451 116.222 135.451 115.54ZM141.873 105.455V120H140.197V105.455H141.873ZM149.687 109.091V110.511H144.034V109.091H149.687ZM145.681 106.477H147.358V116.875C147.358 117.348 147.426 117.704 147.564 117.94C147.706 118.172 147.886 118.329 148.103 118.409C148.326 118.485 148.56 118.523 148.806 118.523C148.991 118.523 149.143 118.513 149.261 118.494C149.379 118.471 149.474 118.452 149.545 118.438L149.886 119.943C149.772 119.986 149.614 120.028 149.41 120.071C149.207 120.118 148.948 120.142 148.636 120.142C148.162 120.142 147.698 120.04 147.244 119.837C146.794 119.633 146.42 119.323 146.122 118.906C145.828 118.49 145.681 117.964 145.681 117.33V106.477ZM152.208 120V109.091H153.885V120H152.208ZM153.061 107.273C152.734 107.273 152.452 107.161 152.216 106.939C151.984 106.716 151.868 106.449 151.868 106.136C151.868 105.824 151.984 105.556 152.216 105.334C152.452 105.111 152.734 105 153.061 105C153.387 105 153.667 105.111 153.899 105.334C154.136 105.556 154.254 105.824 154.254 106.136C154.254 106.449 154.136 106.716 153.899 106.939C153.667 107.161 153.387 107.273 153.061 107.273ZM158.631 113.438V120H156.955V109.091H158.574V110.795H158.716C158.972 110.241 159.36 109.796 159.881 109.46C160.401 109.119 161.074 108.949 161.898 108.949C162.636 108.949 163.283 109.1 163.837 109.403C164.391 109.702 164.821 110.156 165.129 110.767C165.437 111.373 165.591 112.14 165.591 113.068V120H163.915V113.182C163.915 112.325 163.692 111.657 163.247 111.179C162.802 110.696 162.191 110.455 161.415 110.455C160.88 110.455 160.401 110.571 159.98 110.803C159.563 111.035 159.234 111.373 158.993 111.818C158.751 112.263 158.631 112.803 158.631 113.438ZM173.057 124.318C172.247 124.318 171.551 124.214 170.969 124.006C170.387 123.802 169.901 123.532 169.513 123.196C169.13 122.865 168.824 122.509 168.597 122.131L169.932 121.193C170.084 121.392 170.275 121.619 170.507 121.875C170.739 122.135 171.057 122.36 171.459 122.55C171.866 122.744 172.399 122.841 173.057 122.841C173.938 122.841 174.665 122.628 175.238 122.202C175.81 121.776 176.097 121.108 176.097 120.199V117.983H175.955C175.832 118.182 175.657 118.428 175.429 118.722C175.207 119.01 174.885 119.268 174.463 119.496C174.047 119.718 173.483 119.83 172.773 119.83C171.892 119.83 171.102 119.621 170.401 119.205C169.705 118.788 169.153 118.182 168.746 117.386C168.344 116.591 168.142 115.625 168.142 114.489C168.142 113.371 168.339 112.398 168.732 111.57C169.125 110.736 169.672 110.092 170.372 109.638C171.073 109.179 171.883 108.949 172.801 108.949C173.512 108.949 174.075 109.067 174.492 109.304C174.913 109.536 175.235 109.801 175.458 110.099C175.685 110.393 175.86 110.634 175.983 110.824H176.154V109.091H177.773V120.312C177.773 121.25 177.56 122.012 177.134 122.599C176.712 123.191 176.144 123.625 175.429 123.899C174.719 124.179 173.928 124.318 173.057 124.318ZM173 118.324C173.673 118.324 174.241 118.17 174.705 117.862C175.169 117.554 175.522 117.112 175.763 116.534C176.005 115.956 176.125 115.265 176.125 114.46C176.125 113.674 176.007 112.981 175.77 112.379C175.533 111.778 175.183 111.307 174.719 110.966C174.255 110.625 173.682 110.455 173 110.455C172.29 110.455 171.698 110.634 171.225 110.994C170.756 111.354 170.403 111.837 170.167 112.443C169.935 113.049 169.819 113.722 169.819 114.46C169.819 115.218 169.937 115.888 170.174 116.47C170.415 117.048 170.77 117.502 171.239 117.834C171.712 118.161 172.3 118.324 173 118.324ZM186.694 120V105.455H188.455V111.932H196.211V105.455H197.972V120H196.211V113.494H188.455V120H186.694ZM205.703 120.227C204.718 120.227 203.854 119.993 203.11 119.524C202.372 119.055 201.794 118.4 201.377 117.557C200.966 116.714 200.76 115.729 200.76 114.602C200.76 113.466 200.966 112.474 201.377 111.626C201.794 110.779 202.372 110.121 203.11 109.652C203.854 109.183 204.718 108.949 205.703 108.949C206.688 108.949 207.549 109.183 208.288 109.652C209.031 110.121 209.609 110.779 210.021 111.626C210.438 112.474 210.646 113.466 210.646 114.602C210.646 115.729 210.438 116.714 210.021 117.557C209.609 118.4 209.031 119.055 208.288 119.524C207.549 119.993 206.688 120.227 205.703 120.227ZM205.703 118.722C206.451 118.722 207.066 118.53 207.549 118.146C208.032 117.763 208.39 117.259 208.622 116.634C208.854 116.009 208.97 115.331 208.97 114.602C208.97 113.873 208.854 113.194 208.622 112.564C208.39 111.934 208.032 111.425 207.549 111.037C207.066 110.649 206.451 110.455 205.703 110.455C204.955 110.455 204.339 110.649 203.856 111.037C203.373 111.425 203.016 111.934 202.784 112.564C202.552 113.194 202.436 113.873 202.436 114.602C202.436 115.331 202.552 116.009 202.784 116.634C203.016 117.259 203.373 117.763 203.856 118.146C204.339 118.53 204.955 118.722 205.703 118.722ZM220.08 115.54V109.091H221.756V120H220.08V118.153H219.966C219.71 118.707 219.312 119.179 218.773 119.567C218.233 119.95 217.551 120.142 216.727 120.142C216.045 120.142 215.439 119.993 214.909 119.695C214.379 119.392 213.962 118.937 213.659 118.331C213.356 117.72 213.205 116.951 213.205 116.023V109.091H214.881V115.909C214.881 116.705 215.103 117.339 215.548 117.812C215.998 118.286 216.571 118.523 217.267 118.523C217.684 118.523 218.107 118.416 218.538 118.203C218.974 117.99 219.339 117.663 219.632 117.223C219.93 116.783 220.08 116.222 220.08 115.54ZM224.826 120V109.091H226.445V110.739H226.559C226.757 110.199 227.117 109.761 227.638 109.425C228.159 109.089 228.746 108.92 229.399 108.92C229.523 108.92 229.676 108.923 229.861 108.928C230.046 108.932 230.185 108.939 230.28 108.949V110.653C230.223 110.639 230.093 110.618 229.89 110.589C229.691 110.556 229.48 110.54 229.257 110.54C228.727 110.54 228.254 110.651 227.837 110.874C227.425 111.091 227.098 111.394 226.857 111.783C226.62 112.166 226.502 112.604 226.502 113.097V120H224.826ZM239.994 111.534L238.489 111.96C238.394 111.709 238.254 111.465 238.07 111.229C237.89 110.987 237.643 110.788 237.331 110.632C237.018 110.476 236.618 110.398 236.131 110.398C235.463 110.398 234.907 110.552 234.462 110.859C234.021 111.162 233.801 111.548 233.801 112.017C233.801 112.434 233.953 112.763 234.256 113.004C234.559 113.246 235.032 113.447 235.676 113.608L237.295 114.006C238.271 114.242 238.998 114.605 239.476 115.092C239.954 115.575 240.193 116.198 240.193 116.96C240.193 117.585 240.013 118.144 239.653 118.636C239.298 119.129 238.801 119.517 238.162 119.801C237.523 120.085 236.779 120.227 235.932 120.227C234.819 120.227 233.898 119.986 233.169 119.503C232.44 119.02 231.978 118.314 231.784 117.386L233.375 116.989C233.526 117.576 233.813 118.016 234.234 118.31C234.66 118.603 235.217 118.75 235.903 118.75C236.685 118.75 237.305 118.584 237.764 118.253C238.228 117.917 238.46 117.514 238.46 117.045C238.46 116.667 238.328 116.349 238.062 116.094C237.797 115.833 237.39 115.639 236.841 115.511L235.023 115.085C234.024 114.848 233.29 114.482 232.821 113.984C232.357 113.482 232.125 112.855 232.125 112.102C232.125 111.487 232.298 110.942 232.643 110.469C232.994 109.995 233.47 109.624 234.071 109.354C234.677 109.084 235.364 108.949 236.131 108.949C237.21 108.949 238.058 109.186 238.673 109.659C239.294 110.133 239.734 110.758 239.994 111.534Z" fill="#727272"/>
<path d="M86.9031 130.545V148H83.2127V134.048H83.1104L79.1133 136.554V133.281L83.4343 130.545H86.9031ZM97.4265 148.239C96.2219 148.239 95.1481 148.017 94.2049 147.574C93.2674 147.131 92.5231 146.52 91.9719 145.741C91.4208 144.963 91.1339 144.071 91.1112 143.065H94.6907C94.7305 143.741 95.0146 144.29 95.543 144.71C96.0714 145.131 96.6992 145.341 97.4265 145.341C98.006 145.341 98.5174 145.213 98.9606 144.957C99.4094 144.696 99.7589 144.335 100.009 143.875C100.265 143.409 100.392 142.875 100.392 142.273C100.392 141.659 100.262 141.119 100 140.653C99.7447 140.187 99.3896 139.824 98.935 139.562C98.4805 139.301 97.9606 139.168 97.3754 139.162C96.864 139.162 96.3668 139.267 95.8839 139.477C95.4066 139.687 95.0344 139.974 94.7674 140.338L91.4862 139.75L92.3129 130.545H102.983V133.562H95.3555L94.9038 137.935H95.006C95.3129 137.503 95.7759 137.145 96.3952 136.861C97.0146 136.577 97.7077 136.435 98.4748 136.435C99.5259 136.435 100.463 136.682 101.287 137.176C102.111 137.67 102.762 138.349 103.239 139.213C103.716 140.071 103.952 141.06 103.946 142.179C103.952 143.355 103.679 144.401 103.128 145.315C102.583 146.224 101.819 146.94 100.836 147.463C99.8583 147.98 98.7219 148.239 97.4265 148.239Z" fill="black"/>
<path d="M80.3002 158.21V157.273H86.8457V158.21H84.1014V166H83.0446V158.21H80.3002ZM89.3461 162.062V166H88.3404V157.273H89.3461V160.477H89.4313C89.5847 160.139 89.8148 159.871 90.1216 159.672C90.4313 159.47 90.8432 159.369 91.3574 159.369C91.8034 159.369 92.1941 159.459 92.5293 159.638C92.8645 159.814 93.1245 160.085 93.3091 160.452C93.4966 160.815 93.5904 161.278 93.5904 161.841V166H92.5847V161.909C92.5847 161.389 92.4498 160.987 92.1799 160.703C91.9128 160.416 91.5421 160.273 91.0676 160.273C90.7381 160.273 90.4426 160.342 90.1813 160.482C89.9228 160.621 89.7182 160.824 89.5676 161.091C89.4199 161.358 89.3461 161.682 89.3461 162.062ZM95.4302 166V159.455H96.4359V166H95.4302ZM95.9416 158.364C95.7456 158.364 95.5765 158.297 95.4345 158.163C95.2953 158.03 95.2257 157.869 95.2257 157.682C95.2257 157.494 95.2953 157.334 95.4345 157.2C95.5765 157.067 95.7456 157 95.9416 157C96.1376 157 96.3052 157.067 96.4444 157.2C96.5865 157.334 96.6575 157.494 96.6575 157.682C96.6575 157.869 96.5865 158.03 96.4444 158.163C96.3052 158.297 96.1376 158.364 95.9416 158.364ZM102.914 160.92L102.011 161.176C101.954 161.026 101.87 160.879 101.759 160.737C101.651 160.592 101.504 160.473 101.316 160.379C101.129 160.286 100.889 160.239 100.596 160.239C100.195 160.239 99.8617 160.331 99.5946 160.516C99.3304 160.697 99.1983 160.929 99.1983 161.21C99.1983 161.46 99.2892 161.658 99.4711 161.803C99.6529 161.947 99.937 162.068 100.323 162.165L101.295 162.403C101.88 162.545 102.316 162.763 102.603 163.055C102.89 163.345 103.034 163.719 103.034 164.176C103.034 164.551 102.926 164.886 102.71 165.182C102.497 165.477 102.198 165.71 101.815 165.881C101.431 166.051 100.985 166.136 100.477 166.136C99.8091 166.136 99.2566 165.991 98.8191 165.702C98.3816 165.412 98.1046 164.989 97.9881 164.432L98.9426 164.193C99.0336 164.545 99.2054 164.81 99.4583 164.986C99.714 165.162 100.048 165.25 100.46 165.25C100.928 165.25 101.301 165.151 101.576 164.952C101.855 164.75 101.994 164.509 101.994 164.227C101.994 164 101.914 163.81 101.755 163.656C101.596 163.5 101.352 163.384 101.022 163.307L99.9313 163.051C99.3319 162.909 98.8915 162.689 98.6103 162.391C98.3319 162.089 98.1926 161.713 98.1926 161.261C98.1926 160.892 98.2963 160.565 98.5037 160.281C98.714 159.997 98.9995 159.774 99.3603 159.612C99.7239 159.45 100.136 159.369 100.596 159.369C101.244 159.369 101.752 159.511 102.122 159.795C102.494 160.08 102.758 160.455 102.914 160.92ZM109.644 166L107.258 157.273H108.331L110.155 164.381H110.241L112.099 157.273H113.292L115.15 164.381H115.235L117.059 157.273H118.133L115.746 166H114.655L112.729 159.045H112.661L110.735 166H109.644ZM121.448 166.136C120.817 166.136 120.273 165.997 119.816 165.719C119.361 165.438 119.01 165.045 118.763 164.543C118.519 164.037 118.397 163.449 118.397 162.778C118.397 162.108 118.519 161.517 118.763 161.006C119.01 160.491 119.354 160.091 119.795 159.804C120.238 159.514 120.755 159.369 121.346 159.369C121.687 159.369 122.023 159.426 122.356 159.54C122.688 159.653 122.991 159.838 123.263 160.094C123.536 160.347 123.753 160.682 123.915 161.099C124.077 161.517 124.158 162.031 124.158 162.642V163.068H119.113V162.199H123.135C123.135 161.83 123.062 161.5 122.914 161.21C122.769 160.92 122.562 160.692 122.292 160.524C122.025 160.357 121.709 160.273 121.346 160.273C120.945 160.273 120.599 160.372 120.306 160.571C120.016 160.767 119.793 161.023 119.637 161.338C119.481 161.653 119.403 161.991 119.403 162.352V162.932C119.403 163.426 119.488 163.845 119.658 164.189C119.831 164.53 120.072 164.79 120.378 164.969C120.685 165.145 121.042 165.233 121.448 165.233C121.712 165.233 121.951 165.196 122.164 165.122C122.38 165.045 122.566 164.932 122.722 164.781C122.878 164.628 122.999 164.437 123.084 164.21L124.056 164.483C123.954 164.812 123.782 165.102 123.54 165.352C123.299 165.599 123.001 165.793 122.645 165.932C122.29 166.068 121.891 166.136 121.448 166.136ZM128.432 166.136C127.802 166.136 127.258 165.997 126.8 165.719C126.346 165.438 125.995 165.045 125.748 164.543C125.503 164.037 125.381 163.449 125.381 162.778C125.381 162.108 125.503 161.517 125.748 161.006C125.995 160.491 126.339 160.091 126.779 159.804C127.222 159.514 127.739 159.369 128.33 159.369C128.671 159.369 129.008 159.426 129.34 159.54C129.672 159.653 129.975 159.838 130.248 160.094C130.52 160.347 130.738 160.682 130.9 161.099C131.062 161.517 131.143 162.031 131.143 162.642V163.068H126.097V162.199H130.12C130.12 161.83 130.046 161.5 129.898 161.21C129.753 160.92 129.546 160.692 129.276 160.524C129.009 160.357 128.694 160.273 128.33 160.273C127.93 160.273 127.583 160.372 127.29 160.571C127.001 160.767 126.778 161.023 126.621 161.338C126.465 161.653 126.387 161.991 126.387 162.352V162.932C126.387 163.426 126.472 163.845 126.643 164.189C126.816 164.53 127.056 164.79 127.363 164.969C127.67 165.145 128.026 165.233 128.432 165.233C128.697 165.233 128.935 165.196 129.148 165.122C129.364 165.045 129.55 164.932 129.706 164.781C129.863 164.628 129.983 164.437 130.069 164.21L131.04 164.483C130.938 164.812 130.766 165.102 130.525 165.352C130.283 165.599 129.985 165.793 129.63 165.932C129.275 166.068 128.876 166.136 128.432 166.136ZM133.61 163.614L133.593 162.369H133.797L136.661 159.455H137.905L134.854 162.54H134.769L133.61 163.614ZM132.672 166V157.273H133.678V166H132.672ZM136.831 166L134.275 162.761L134.991 162.062L138.11 166H136.831Z" fill="#7B7B7B"/>
</svg>
