<svg width="260" height="200" viewBox="0 0 260 200" fill="none" xmlns="http://www.w3.org/2000/svg">
<rect width="260" height="200" rx="16" fill="#ECECEC"/>
<path d="M19.517 42V24.5455H31.2784V27.5881H23.2074V31.7472H30.6733V34.7898H23.2074V38.9574H31.3125V42H19.517ZM37.7749 34.4318V42H34.1442V28.9091H37.6044V31.2188H37.7578C38.0476 30.4574 38.5334 29.8551 39.2152 29.4119C39.897 28.9631 40.7237 28.7386 41.6953 28.7386C42.6044 28.7386 43.397 28.9375 44.0732 29.3352C44.7493 29.733 45.2749 30.3011 45.6499 31.0398C46.0249 31.7727 46.2124 32.6477 46.2124 33.6648V42H42.5817V34.3125C42.5874 33.5114 42.3828 32.8864 41.968 32.4375C41.5533 31.983 40.9822 31.7557 40.255 31.7557C39.7663 31.7557 39.3345 31.8608 38.9595 32.071C38.5902 32.2812 38.3004 32.5881 38.0902 32.9915C37.8857 33.3892 37.7805 33.8693 37.7749 34.4318ZM54.9716 47.1818C53.7955 47.1818 52.7869 47.0199 51.946 46.696C51.1108 46.3778 50.446 45.9432 49.9517 45.392C49.4574 44.8409 49.1364 44.2216 48.9886 43.5341L52.3466 43.0824C52.4489 43.3438 52.6108 43.5881 52.8324 43.8153C53.054 44.0426 53.3466 44.2244 53.7102 44.3608C54.0795 44.5028 54.5284 44.5739 55.0568 44.5739C55.8466 44.5739 56.4972 44.3807 57.0085 43.9943C57.5256 43.6136 57.7841 42.9744 57.7841 42.0767V39.6818H57.6307C57.4716 40.0455 57.233 40.3892 56.9148 40.7131C56.5966 41.0369 56.1875 41.3011 55.6875 41.5057C55.1875 41.7102 54.5909 41.8125 53.8977 41.8125C52.9148 41.8125 52.0199 41.5852 51.2131 41.1307C50.4119 40.6705 49.7727 39.9687 49.2955 39.0256C48.8239 38.0767 48.5881 36.8778 48.5881 35.429C48.5881 33.946 48.8295 32.7074 49.3125 31.7131C49.7955 30.7187 50.4375 29.9744 51.2386 29.4801C52.0455 28.9858 52.929 28.7386 53.8892 28.7386C54.6222 28.7386 55.2358 28.8636 55.7301 29.1136C56.2244 29.358 56.6222 29.6648 56.9233 30.0341C57.2301 30.3977 57.4659 30.7557 57.6307 31.108H57.767V28.9091H61.3722V42.1278C61.3722 43.2415 61.0994 44.1733 60.554 44.9233C60.0085 45.6733 59.2528 46.2358 58.2869 46.6108C57.3267 46.9915 56.2216 47.1818 54.9716 47.1818ZM55.0483 39.0852C55.6335 39.0852 56.1278 38.9403 56.5312 38.6506C56.9403 38.3551 57.2528 37.9347 57.4688 37.3892C57.6903 36.8381 57.8011 36.179 57.8011 35.4119C57.8011 34.6449 57.6932 33.9801 57.4773 33.4176C57.2614 32.8494 56.9489 32.4091 56.5398 32.0966C56.1307 31.7841 55.6335 31.6278 55.0483 31.6278C54.4517 31.6278 53.9489 31.7898 53.5398 32.1136C53.1307 32.4318 52.821 32.875 52.6108 33.4432C52.4006 34.0114 52.2955 34.6676 52.2955 35.4119C52.2955 36.1676 52.4006 36.821 52.6108 37.3722C52.8267 37.9176 53.1364 38.3409 53.5398 38.642C53.9489 38.9375 54.4517 39.0852 55.0483 39.0852ZM67.9943 42.2472C67.1591 42.2472 66.4148 42.1023 65.7614 41.8125C65.108 41.517 64.5909 41.0824 64.2102 40.5085C63.8352 39.929 63.6477 39.2074 63.6477 38.3438C63.6477 37.6165 63.7813 37.0057 64.0483 36.5114C64.3153 36.017 64.679 35.6193 65.1392 35.3182C65.5994 35.017 66.1222 34.7898 66.7074 34.6364C67.2983 34.483 67.9176 34.375 68.5653 34.3125C69.3267 34.233 69.9403 34.1591 70.4062 34.0909C70.8722 34.017 71.2102 33.9091 71.4205 33.767C71.6307 33.625 71.7358 33.4148 71.7358 33.1364V33.0852C71.7358 32.5455 71.5653 32.1278 71.2244 31.8324C70.8892 31.5369 70.4119 31.3892 69.7926 31.3892C69.1392 31.3892 68.6193 31.5341 68.233 31.8239C67.8466 32.108 67.5909 32.4659 67.4659 32.8977L64.108 32.625C64.2784 31.8295 64.6136 31.142 65.1136 30.5625C65.6136 29.9773 66.2585 29.5284 67.0483 29.2159C67.8438 28.8977 68.7642 28.7386 69.8097 28.7386C70.5369 28.7386 71.233 28.8239 71.8977 28.9943C72.5682 29.1648 73.1619 29.429 73.679 29.7869C74.2017 30.1449 74.6136 30.6051 74.9148 31.1676C75.2159 31.7244 75.3665 32.392 75.3665 33.1705V42H71.9233V40.1847H71.821C71.6108 40.5938 71.3295 40.9545 70.9773 41.267C70.625 41.5739 70.2017 41.8153 69.7074 41.9915C69.2131 42.1619 68.642 42.2472 67.9943 42.2472ZM69.0341 39.7415C69.5682 39.7415 70.0398 39.6364 70.4489 39.4261C70.858 39.2102 71.179 38.9205 71.4119 38.5568C71.6449 38.1932 71.7614 37.7812 71.7614 37.321V35.9318C71.6477 36.0057 71.4915 36.0739 71.2926 36.1364C71.0994 36.1932 70.8807 36.2472 70.6364 36.2983C70.392 36.3437 70.1477 36.3864 69.9034 36.4261C69.6591 36.4602 69.4375 36.4915 69.2386 36.5199C68.8125 36.5824 68.4403 36.6818 68.1222 36.8182C67.804 36.9545 67.5568 37.1392 67.3807 37.3722C67.2045 37.5994 67.1165 37.8835 67.1165 38.2244C67.1165 38.7188 67.2955 39.0966 67.6534 39.358C68.017 39.6136 68.4773 39.7415 69.0341 39.7415ZM84.081 47.1818C82.9048 47.1818 81.8963 47.0199 81.0554 46.696C80.2202 46.3778 79.5554 45.9432 79.0611 45.392C78.5668 44.8409 78.2457 44.2216 78.098 43.5341L81.456 43.0824C81.5582 43.3438 81.7202 43.5881 81.9418 43.8153C82.1634 44.0426 82.456 44.2244 82.8196 44.3608C83.1889 44.5028 83.6378 44.5739 84.1662 44.5739C84.956 44.5739 85.6065 44.3807 86.1179 43.9943C86.6349 43.6136 86.8935 42.9744 86.8935 42.0767V39.6818H86.7401C86.581 40.0455 86.3423 40.3892 86.0241 40.7131C85.706 41.0369 85.2969 41.3011 84.7969 41.5057C84.2969 41.7102 83.7003 41.8125 83.0071 41.8125C82.0241 41.8125 81.1293 41.5852 80.3224 41.1307C79.5213 40.6705 78.8821 39.9687 78.4048 39.0256C77.9332 38.0767 77.6974 36.8778 77.6974 35.429C77.6974 33.946 77.9389 32.7074 78.4219 31.7131C78.9048 30.7187 79.5469 29.9744 80.348 29.4801C81.1548 28.9858 82.0384 28.7386 82.9986 28.7386C83.7315 28.7386 84.3452 28.8636 84.8395 29.1136C85.3338 29.358 85.7315 29.6648 86.0327 30.0341C86.3395 30.3977 86.5753 30.7557 86.7401 31.108H86.8764V28.9091H90.4815V42.1278C90.4815 43.2415 90.2088 44.1733 89.6634 44.9233C89.1179 45.6733 88.3622 46.2358 87.3963 46.6108C86.4361 46.9915 85.331 47.1818 84.081 47.1818ZM84.1577 39.0852C84.7429 39.0852 85.2372 38.9403 85.6406 38.6506C86.0497 38.3551 86.3622 37.9347 86.5781 37.3892C86.7997 36.8381 86.9105 36.179 86.9105 35.4119C86.9105 34.6449 86.8026 33.9801 86.5866 33.4176C86.3707 32.8494 86.0582 32.4091 85.6491 32.0966C85.2401 31.7841 84.7429 31.6278 84.1577 31.6278C83.5611 31.6278 83.0582 31.7898 82.6491 32.1136C82.2401 32.4318 81.9304 32.875 81.7202 33.4432C81.5099 34.0114 81.4048 34.6676 81.4048 35.4119C81.4048 36.1676 81.5099 36.821 81.7202 37.3722C81.9361 37.9176 82.2457 38.3409 82.6491 38.642C83.0582 38.9375 83.5611 39.0852 84.1577 39.0852ZM99.3366 42.2557C97.9901 42.2557 96.831 41.983 95.8594 41.4375C94.8935 40.8864 94.1491 40.108 93.6264 39.1023C93.1037 38.0909 92.8423 36.8949 92.8423 35.5142C92.8423 34.1676 93.1037 32.9858 93.6264 31.9688C94.1491 30.9517 94.8849 30.1591 95.8338 29.5909C96.7884 29.0227 97.9077 28.7386 99.1918 28.7386C100.055 28.7386 100.859 28.8778 101.604 29.1562C102.354 29.429 103.007 29.8409 103.564 30.392C104.126 30.9432 104.564 31.6364 104.876 32.4716C105.189 33.3011 105.345 34.2727 105.345 35.3864V36.3835H94.2912V34.1335H101.928C101.928 33.6108 101.814 33.1477 101.587 32.7443C101.359 32.3409 101.044 32.0256 100.641 31.7983C100.243 31.5653 99.7798 31.4489 99.2514 31.4489C98.7003 31.4489 98.2116 31.5767 97.7855 31.8324C97.3651 32.0824 97.0355 32.4205 96.7969 32.8466C96.5582 33.267 96.4361 33.7358 96.4304 34.2528V36.392C96.4304 37.0398 96.5497 37.5994 96.7884 38.071C97.0327 38.5426 97.3764 38.9062 97.8196 39.1619C98.2628 39.4176 98.7884 39.5455 99.3963 39.5455C99.7997 39.5455 100.169 39.4886 100.504 39.375C100.839 39.2614 101.126 39.0909 101.365 38.8636C101.604 38.6364 101.786 38.358 101.911 38.0284L105.268 38.25C105.098 39.0568 104.749 39.7614 104.22 40.3636C103.697 40.9602 103.021 41.4261 102.192 41.7614C101.368 42.0909 100.416 42.2557 99.3366 42.2557ZM107.714 42V28.9091H111.175V31.2188H111.328C111.601 30.4517 112.055 29.8466 112.692 29.4034C113.328 28.9602 114.089 28.7386 114.976 28.7386C115.874 28.7386 116.638 28.9631 117.268 29.4119C117.899 29.8551 118.32 30.4574 118.53 31.2188H118.666C118.933 30.4688 119.416 29.8693 120.115 29.4205C120.82 28.9659 121.652 28.7386 122.612 28.7386C123.834 28.7386 124.825 29.1278 125.587 29.9062C126.354 30.679 126.737 31.7756 126.737 33.196V42H123.115V33.9119C123.115 33.1847 122.922 32.6392 122.536 32.2756C122.149 31.9119 121.666 31.7301 121.087 31.7301C120.428 31.7301 119.913 31.9403 119.544 32.3608C119.175 32.7756 118.99 33.3239 118.99 34.0057V42H115.47V33.8352C115.47 33.1932 115.286 32.6818 114.916 32.3011C114.553 31.9205 114.072 31.7301 113.476 31.7301C113.072 31.7301 112.709 31.8324 112.385 32.0369C112.067 32.2358 111.814 32.517 111.626 32.8807C111.439 33.2386 111.345 33.6591 111.345 34.142V42H107.714ZM135.571 42.2557C134.224 42.2557 133.065 41.983 132.094 41.4375C131.128 40.8864 130.384 40.108 129.861 39.1023C129.338 38.0909 129.077 36.8949 129.077 35.5142C129.077 34.1676 129.338 32.9858 129.861 31.9688C130.384 30.9517 131.119 30.1591 132.068 29.5909C133.023 29.0227 134.142 28.7386 135.426 28.7386C136.29 28.7386 137.094 28.8778 137.838 29.1562C138.588 29.429 139.241 29.8409 139.798 30.392C140.361 30.9432 140.798 31.6364 141.111 32.4716C141.423 33.3011 141.58 34.2727 141.58 35.3864V36.3835H130.526V34.1335H138.162C138.162 33.6108 138.048 33.1477 137.821 32.7443C137.594 32.3409 137.278 32.0256 136.875 31.7983C136.477 31.5653 136.014 31.4489 135.486 31.4489C134.935 31.4489 134.446 31.5767 134.02 31.8324C133.599 32.0824 133.27 32.4205 133.031 32.8466C132.793 33.267 132.67 33.7358 132.665 34.2528V36.392C132.665 37.0398 132.784 37.5994 133.023 38.071C133.267 38.5426 133.611 38.9062 134.054 39.1619C134.497 39.4176 135.023 39.5455 135.631 39.5455C136.034 39.5455 136.403 39.4886 136.739 39.375C137.074 39.2614 137.361 39.0909 137.599 38.8636C137.838 38.6364 138.02 38.358 138.145 38.0284L141.503 38.25C141.332 39.0568 140.983 39.7614 140.455 40.3636C139.932 40.9602 139.256 41.4261 138.426 41.7614C137.602 42.0909 136.651 42.2557 135.571 42.2557ZM147.58 34.4318V42H143.949V28.9091H147.409V31.2188H147.562C147.852 30.4574 148.338 29.8551 149.02 29.4119C149.702 28.9631 150.528 28.7386 151.5 28.7386C152.409 28.7386 153.202 28.9375 153.878 29.3352C154.554 29.733 155.08 30.3011 155.455 31.0398C155.83 31.7727 156.017 32.6477 156.017 33.6648V42H152.386V34.3125C152.392 33.5114 152.188 32.8864 151.773 32.4375C151.358 31.983 150.787 31.7557 150.06 31.7557C149.571 31.7557 149.139 31.8608 148.764 32.071C148.395 32.2812 148.105 32.5881 147.895 32.9915C147.69 33.3892 147.585 33.8693 147.58 34.4318ZM165.842 28.9091V31.6364H157.958V28.9091H165.842ZM159.748 25.7727H163.379V37.9773C163.379 38.3125 163.43 38.5739 163.532 38.7614C163.634 38.9432 163.776 39.071 163.958 39.1449C164.146 39.2187 164.362 39.2557 164.606 39.2557C164.776 39.2557 164.947 39.2415 165.117 39.2131C165.288 39.179 165.418 39.1534 165.509 39.1364L166.08 41.8381C165.898 41.8949 165.643 41.9602 165.313 42.0341C164.984 42.1136 164.583 42.1619 164.112 42.179C163.237 42.2131 162.469 42.0966 161.81 41.8295C161.157 41.5625 160.648 41.1477 160.285 40.5852C159.921 40.0227 159.742 39.3125 159.748 38.4545V25.7727Z" fill="#656565"/>
<rect x="36" y="135" width="188" height="35" rx="16" fill="#FFC0BE"/>
<path d="M130.086 114.459C130.867 115.24 132.133 115.24 132.914 114.459L145.642 101.731C146.423 100.95 146.423 99.6834 145.642 98.9024C144.861 98.1213 143.595 98.1213 142.814 98.9024L131.5 110.216L120.186 98.9024C119.405 98.1213 118.139 98.1213 117.358 98.9024C116.577 99.6834 116.577 100.95 117.358 101.731L130.086 114.459ZM131.5 61.9564H129.5V113.045H131.5H133.5V61.9564H131.5Z" fill="#D23737"/>
<path d="M81.3807 147.364V159H78.9205V149.699H78.8523L76.1875 151.369V149.188L79.0682 147.364H81.3807ZM88.3963 159.159C87.5933 159.159 86.8774 159.011 86.2486 158.716C85.6236 158.42 85.1274 158.013 84.7599 157.494C84.3925 156.975 84.2012 156.381 84.1861 155.71H86.5724C86.599 156.161 86.7884 156.527 87.1406 156.807C87.4929 157.087 87.9115 157.227 88.3963 157.227C88.7827 157.227 89.1236 157.142 89.419 156.972C89.7183 156.797 89.9512 156.557 90.1179 156.25C90.2884 155.939 90.3736 155.583 90.3736 155.182C90.3736 154.773 90.2865 154.413 90.1122 154.102C89.9418 153.792 89.705 153.549 89.402 153.375C89.099 153.201 88.7524 153.112 88.3622 153.108C88.0213 153.108 87.6899 153.178 87.3679 153.318C87.0497 153.458 86.8016 153.65 86.6236 153.892L84.4361 153.5L84.9872 147.364H92.1009V149.375H87.0156L86.7145 152.29H86.7827C86.9872 152.002 87.2959 151.763 87.7088 151.574C88.1217 151.384 88.5838 151.29 89.0952 151.29C89.7959 151.29 90.4209 151.455 90.9702 151.784C91.5194 152.114 91.9531 152.566 92.2713 153.142C92.5895 153.714 92.7467 154.373 92.7429 155.119C92.7467 155.903 92.5649 156.6 92.1974 157.21C91.8338 157.816 91.3243 158.294 90.669 158.642C90.0175 158.987 89.2599 159.159 88.3963 159.159ZM100.828 156.818V156.205C100.828 155.739 100.927 155.311 101.124 154.92C101.324 154.527 101.614 154.212 101.993 153.977C102.375 153.739 102.841 153.619 103.391 153.619C103.947 153.619 104.415 153.737 104.794 153.972C105.177 154.206 105.464 154.521 105.658 154.915C105.855 155.305 105.953 155.735 105.953 156.205V156.818C105.953 157.284 105.855 157.714 105.658 158.108C105.461 158.498 105.171 158.811 104.788 159.045C104.406 159.284 103.94 159.403 103.391 159.403C102.834 159.403 102.366 159.284 101.987 159.045C101.608 158.811 101.321 158.498 101.124 158.108C100.927 157.714 100.828 157.284 100.828 156.818ZM102.482 156.205V156.818C102.482 157.087 102.546 157.341 102.675 157.58C102.807 157.818 103.046 157.938 103.391 157.938C103.735 157.938 103.97 157.82 104.095 157.585C104.224 157.35 104.288 157.095 104.288 156.818V156.205C104.288 155.928 104.228 155.67 104.107 155.432C103.985 155.193 103.747 155.074 103.391 155.074C103.05 155.074 102.813 155.193 102.68 155.432C102.548 155.67 102.482 155.928 102.482 156.205ZM94.8565 150.159V149.545C94.8565 149.076 94.9569 148.646 95.1577 148.256C95.3584 147.862 95.6482 147.547 96.027 147.312C96.4096 147.078 96.8717 146.96 97.4134 146.96C97.974 146.96 98.4437 147.078 98.8224 147.312C99.2012 147.547 99.4891 147.862 99.6861 148.256C99.883 148.646 99.9815 149.076 99.9815 149.545V150.159C99.9815 150.629 99.8812 151.059 99.6804 151.449C99.4834 151.839 99.1937 152.152 98.8111 152.386C98.4323 152.617 97.9664 152.733 97.4134 152.733C96.8603 152.733 96.3925 152.616 96.0099 152.381C95.6312 152.142 95.3433 151.83 95.1463 151.443C94.9531 151.053 94.8565 150.625 94.8565 150.159ZM96.5213 149.545V150.159C96.5213 150.436 96.5857 150.691 96.7145 150.926C96.8471 151.161 97.08 151.278 97.4134 151.278C97.7618 151.278 97.9986 151.161 98.1236 150.926C98.2524 150.691 98.3168 150.436 98.3168 150.159V149.545C98.3168 149.269 98.2562 149.011 98.1349 148.773C98.0137 148.534 97.7732 148.415 97.4134 148.415C97.0762 148.415 96.8433 148.536 96.7145 148.778C96.5857 149.021 96.5213 149.277 96.5213 149.545ZM95.6065 159L103.607 147.364H105.095L97.0952 159H95.6065ZM115.151 159.142C114.488 159.142 113.887 158.972 113.349 158.631C112.815 158.286 112.391 157.78 112.077 157.114C111.766 156.443 111.611 155.621 111.611 154.648C111.611 153.648 111.772 152.816 112.094 152.153C112.416 151.487 112.844 150.989 113.378 150.659C113.916 150.326 114.505 150.159 115.145 150.159C115.634 150.159 116.041 150.242 116.366 150.409C116.696 150.572 116.961 150.777 117.162 151.023C117.366 151.265 117.522 151.504 117.628 151.739H117.702V147.364H120.116V159H117.73V157.602H117.628C117.514 157.845 117.353 158.085 117.145 158.324C116.94 158.559 116.673 158.754 116.344 158.909C116.018 159.064 115.62 159.142 115.151 159.142ZM115.918 157.216C116.308 157.216 116.637 157.11 116.906 156.898C117.179 156.682 117.387 156.381 117.531 155.994C117.679 155.608 117.753 155.155 117.753 154.636C117.753 154.117 117.681 153.667 117.537 153.284C117.393 152.902 117.185 152.606 116.912 152.398C116.639 152.189 116.308 152.085 115.918 152.085C115.52 152.085 115.185 152.193 114.912 152.409C114.639 152.625 114.433 152.924 114.293 153.307C114.152 153.689 114.082 154.133 114.082 154.636C114.082 155.144 114.152 155.593 114.293 155.983C114.437 156.369 114.643 156.672 114.912 156.892C115.185 157.108 115.52 157.216 115.918 157.216ZM126.084 159.17C125.186 159.17 124.413 158.989 123.766 158.625C123.122 158.258 122.625 157.739 122.277 157.068C121.929 156.394 121.754 155.597 121.754 154.676C121.754 153.778 121.929 152.991 122.277 152.312C122.625 151.634 123.116 151.106 123.749 150.727C124.385 150.348 125.131 150.159 125.987 150.159C126.563 150.159 127.099 150.252 127.595 150.438C128.095 150.619 128.531 150.894 128.902 151.261C129.277 151.629 129.569 152.091 129.777 152.648C129.985 153.201 130.089 153.848 130.089 154.591V155.256H122.72V153.756H127.811C127.811 153.407 127.735 153.098 127.584 152.83C127.432 152.561 127.222 152.35 126.953 152.199C126.688 152.044 126.379 151.966 126.027 151.966C125.66 151.966 125.334 152.051 125.05 152.222C124.769 152.388 124.55 152.614 124.391 152.898C124.232 153.178 124.15 153.491 124.146 153.835V155.261C124.146 155.693 124.226 156.066 124.385 156.381C124.548 156.695 124.777 156.938 125.072 157.108C125.368 157.278 125.718 157.364 126.124 157.364C126.393 157.364 126.639 157.326 126.862 157.25C127.086 157.174 127.277 157.061 127.436 156.909C127.595 156.758 127.716 156.572 127.8 156.352L130.038 156.5C129.925 157.038 129.692 157.508 129.339 157.909C128.991 158.307 128.54 158.617 127.987 158.841C127.438 159.061 126.804 159.17 126.084 159.17ZM135.612 159.17C134.718 159.17 133.949 158.981 133.305 158.602C132.665 158.22 132.173 157.689 131.828 157.011C131.487 156.333 131.317 155.553 131.317 154.67C131.317 153.777 131.489 152.992 131.834 152.318C132.182 151.64 132.677 151.112 133.317 150.733C133.957 150.35 134.718 150.159 135.601 150.159C136.362 150.159 137.029 150.297 137.601 150.574C138.173 150.85 138.625 151.239 138.959 151.739C139.292 152.239 139.476 152.826 139.51 153.5H137.226C137.161 153.064 136.991 152.714 136.714 152.449C136.442 152.18 136.084 152.045 135.641 152.045C135.266 152.045 134.938 152.148 134.658 152.352C134.381 152.553 134.165 152.847 134.01 153.233C133.855 153.619 133.777 154.087 133.777 154.636C133.777 155.193 133.853 155.667 134.004 156.057C134.16 156.447 134.377 156.744 134.658 156.949C134.938 157.153 135.266 157.256 135.641 157.256C135.917 157.256 136.165 157.199 136.385 157.085C136.608 156.972 136.792 156.807 136.936 156.591C137.084 156.371 137.18 156.108 137.226 155.801H139.51C139.472 156.468 139.29 157.055 138.964 157.562C138.643 158.066 138.197 158.46 137.629 158.744C137.061 159.028 136.389 159.17 135.612 159.17ZM141.06 159V150.273H143.406V151.795H143.497C143.656 151.254 143.923 150.845 144.298 150.568C144.673 150.288 145.105 150.148 145.594 150.148C145.715 150.148 145.846 150.155 145.986 150.17C146.126 150.186 146.249 150.206 146.355 150.233V152.381C146.241 152.347 146.084 152.316 145.884 152.29C145.683 152.263 145.499 152.25 145.332 152.25C144.976 152.25 144.658 152.328 144.378 152.483C144.101 152.634 143.882 152.847 143.719 153.119C143.56 153.392 143.48 153.706 143.48 154.062V159H141.06ZM151.178 159.17C150.28 159.17 149.507 158.989 148.859 158.625C148.215 158.258 147.719 157.739 147.371 157.068C147.022 156.394 146.848 155.597 146.848 154.676C146.848 153.778 147.022 152.991 147.371 152.312C147.719 151.634 148.21 151.106 148.842 150.727C149.479 150.348 150.225 150.159 151.081 150.159C151.657 150.159 152.193 150.252 152.689 150.438C153.189 150.619 153.625 150.894 153.996 151.261C154.371 151.629 154.662 152.091 154.871 152.648C155.079 153.201 155.183 153.848 155.183 154.591V155.256H147.814V153.756H152.905C152.905 153.407 152.829 153.098 152.678 152.83C152.526 152.561 152.316 152.35 152.047 152.199C151.782 152.044 151.473 151.966 151.121 151.966C150.753 151.966 150.428 152.051 150.143 152.222C149.863 152.388 149.643 152.614 149.484 152.898C149.325 153.178 149.244 153.491 149.24 153.835V155.261C149.24 155.693 149.32 156.066 149.479 156.381C149.642 156.695 149.871 156.938 150.166 157.108C150.462 157.278 150.812 157.364 151.217 157.364C151.486 157.364 151.732 157.326 151.956 157.25C152.179 157.174 152.371 157.061 152.53 156.909C152.689 156.758 152.81 156.572 152.893 156.352L155.132 156.5C155.018 157.038 154.786 157.508 154.433 157.909C154.085 158.307 153.634 158.617 153.081 158.841C152.532 159.061 151.897 159.17 151.178 159.17ZM159.251 159.165C158.695 159.165 158.198 159.068 157.763 158.875C157.327 158.678 156.982 158.388 156.729 158.006C156.479 157.619 156.354 157.138 156.354 156.562C156.354 156.078 156.443 155.67 156.621 155.341C156.799 155.011 157.041 154.746 157.348 154.545C157.655 154.345 158.003 154.193 158.393 154.091C158.787 153.989 159.2 153.917 159.632 153.875C160.14 153.822 160.549 153.773 160.859 153.727C161.17 153.678 161.395 153.606 161.536 153.511C161.676 153.417 161.746 153.277 161.746 153.091V153.057C161.746 152.697 161.632 152.419 161.405 152.222C161.181 152.025 160.863 151.926 160.45 151.926C160.015 151.926 159.668 152.023 159.411 152.216C159.153 152.405 158.982 152.644 158.899 152.932L156.661 152.75C156.774 152.22 156.998 151.761 157.331 151.375C157.664 150.985 158.094 150.686 158.621 150.477C159.151 150.265 159.765 150.159 160.462 150.159C160.946 150.159 161.411 150.216 161.854 150.33C162.301 150.443 162.696 150.619 163.041 150.858C163.39 151.097 163.664 151.403 163.865 151.778C164.066 152.15 164.166 152.595 164.166 153.114V159H161.871V157.79H161.803C161.662 158.062 161.475 158.303 161.24 158.511C161.005 158.716 160.723 158.877 160.393 158.994C160.064 159.108 159.683 159.165 159.251 159.165ZM159.945 157.494C160.301 157.494 160.615 157.424 160.888 157.284C161.161 157.14 161.375 156.947 161.53 156.705C161.685 156.462 161.763 156.187 161.763 155.881V154.955C161.687 155.004 161.583 155.049 161.45 155.091C161.321 155.129 161.176 155.165 161.013 155.199C160.85 155.229 160.687 155.258 160.524 155.284C160.361 155.307 160.214 155.328 160.081 155.347C159.797 155.388 159.549 155.455 159.337 155.545C159.125 155.636 158.96 155.759 158.842 155.915C158.725 156.066 158.666 156.256 158.666 156.483C158.666 156.812 158.786 157.064 159.024 157.239C159.267 157.409 159.573 157.494 159.945 157.494ZM173.305 152.761L171.089 152.898C171.052 152.708 170.97 152.538 170.845 152.386C170.72 152.231 170.555 152.108 170.351 152.017C170.15 151.922 169.91 151.875 169.629 151.875C169.254 151.875 168.938 151.955 168.68 152.114C168.423 152.269 168.294 152.477 168.294 152.739C168.294 152.947 168.377 153.123 168.544 153.267C168.711 153.411 168.997 153.527 169.402 153.614L170.982 153.932C171.83 154.106 172.463 154.386 172.879 154.773C173.296 155.159 173.504 155.667 173.504 156.295C173.504 156.867 173.336 157.369 172.999 157.801C172.665 158.233 172.207 158.57 171.624 158.812C171.044 159.051 170.375 159.17 169.618 159.17C168.463 159.17 167.542 158.93 166.857 158.449C166.175 157.964 165.775 157.305 165.658 156.472L168.038 156.347C168.11 156.699 168.285 156.968 168.561 157.153C168.838 157.335 169.192 157.426 169.624 157.426C170.048 157.426 170.389 157.345 170.646 157.182C170.908 157.015 171.04 156.801 171.044 156.54C171.04 156.32 170.947 156.14 170.766 156C170.584 155.856 170.304 155.746 169.925 155.67L168.413 155.369C167.561 155.199 166.927 154.903 166.51 154.483C166.097 154.062 165.891 153.527 165.891 152.875C165.891 152.314 166.042 151.831 166.345 151.426C166.652 151.021 167.082 150.708 167.635 150.489C168.192 150.269 168.843 150.159 169.589 150.159C170.692 150.159 171.559 150.392 172.192 150.858C172.828 151.324 173.199 151.958 173.305 152.761ZM179.006 159.17C178.108 159.17 177.335 158.989 176.688 158.625C176.044 158.258 175.547 157.739 175.199 157.068C174.85 156.394 174.676 155.597 174.676 154.676C174.676 153.778 174.85 152.991 175.199 152.312C175.547 151.634 176.038 151.106 176.67 150.727C177.307 150.348 178.053 150.159 178.909 150.159C179.485 150.159 180.021 150.252 180.517 150.438C181.017 150.619 181.453 150.894 181.824 151.261C182.199 151.629 182.491 152.091 182.699 152.648C182.907 153.201 183.011 153.848 183.011 154.591V155.256H175.642V153.756H180.733C180.733 153.407 180.657 153.098 180.506 152.83C180.354 152.561 180.144 152.35 179.875 152.199C179.61 152.044 179.301 151.966 178.949 151.966C178.581 151.966 178.256 152.051 177.972 152.222C177.691 152.388 177.472 152.614 177.312 152.898C177.153 153.178 177.072 153.491 177.068 153.835V155.261C177.068 155.693 177.148 156.066 177.307 156.381C177.47 156.695 177.699 156.938 177.994 157.108C178.29 157.278 178.64 157.364 179.045 157.364C179.314 157.364 179.561 157.326 179.784 157.25C180.008 157.174 180.199 157.061 180.358 156.909C180.517 156.758 180.638 156.572 180.722 156.352L182.96 156.5C182.847 157.038 182.614 157.508 182.261 157.909C181.913 158.307 181.462 158.617 180.909 158.841C180.36 159.061 179.725 159.17 179.006 159.17Z" fill="#D23737"/>
</svg>
