<svg width="415" height="200" viewBox="0 0 415 200" fill="none" xmlns="http://www.w3.org/2000/svg">
<rect width="415" height="200" rx="16" fill="#ECECEC"/>
<rect x="328" y="26" width="73" height="35" rx="16" fill="#FFC0BE"/>
<path d="M349.857 42.2216V44.142H344.55V42.2216H349.857ZM360.662 37.3636V49H358.202V39.6989H358.134L355.469 41.3693V39.1875L358.349 37.3636H360.662ZM367.678 49.1591C366.875 49.1591 366.159 49.0114 365.53 48.7159C364.905 48.4205 364.409 48.0133 364.041 47.4943C363.674 46.9754 363.482 46.3807 363.467 45.7102H365.854C365.88 46.161 366.07 46.5265 366.422 46.8068C366.774 47.0871 367.193 47.2273 367.678 47.2273C368.064 47.2273 368.405 47.142 368.7 46.9716C369 46.7973 369.232 46.5568 369.399 46.25C369.57 45.9394 369.655 45.5833 369.655 45.1818C369.655 44.7727 369.568 44.4129 369.393 44.1023C369.223 43.7917 368.986 43.5492 368.683 43.375C368.38 43.2008 368.034 43.1117 367.643 43.108C367.303 43.108 366.971 43.178 366.649 43.3182C366.331 43.4583 366.083 43.6496 365.905 43.892L363.717 43.5L364.268 37.3636H371.382V39.375H366.297L365.996 42.2898H366.064C366.268 42.0019 366.577 41.7633 366.99 41.5739C367.403 41.3845 367.865 41.2898 368.376 41.2898C369.077 41.2898 369.702 41.4545 370.251 41.7841C370.801 42.1136 371.234 42.5663 371.553 43.142C371.871 43.714 372.028 44.3731 372.024 45.1193C372.028 45.9034 371.846 46.6004 371.479 47.2102C371.115 47.8163 370.606 48.2936 369.95 48.642C369.299 48.9867 368.541 49.1591 367.678 49.1591ZM380.109 46.8182V46.2045C380.109 45.7386 380.208 45.3106 380.405 44.9205C380.606 44.5265 380.895 44.2121 381.274 43.9773C381.657 43.7386 382.123 43.6193 382.672 43.6193C383.229 43.6193 383.696 43.7367 384.075 43.9716C384.458 44.2064 384.746 44.5208 384.939 44.9148C385.136 45.3049 385.234 45.7348 385.234 46.2045V46.8182C385.234 47.2841 385.136 47.714 384.939 48.108C384.742 48.4981 384.452 48.8106 384.07 49.0455C383.687 49.2841 383.221 49.4034 382.672 49.4034C382.115 49.4034 381.647 49.2841 381.268 49.0455C380.89 48.8106 380.602 48.4981 380.405 48.108C380.208 47.714 380.109 47.2841 380.109 46.8182ZM381.763 46.2045V46.8182C381.763 47.0871 381.827 47.3409 381.956 47.5795C382.089 47.8182 382.327 47.9375 382.672 47.9375C383.017 47.9375 383.251 47.8201 383.376 47.5852C383.505 47.3504 383.57 47.0947 383.57 46.8182V46.2045C383.57 45.928 383.509 45.6705 383.388 45.4318C383.267 45.1932 383.028 45.0739 382.672 45.0739C382.331 45.0739 382.094 45.1932 381.962 45.4318C381.829 45.6705 381.763 45.928 381.763 46.2045ZM374.138 40.1591V39.5455C374.138 39.0758 374.238 38.6458 374.439 38.2557C374.64 37.8617 374.929 37.5473 375.308 37.3125C375.691 37.0777 376.153 36.9602 376.695 36.9602C377.255 36.9602 377.725 37.0777 378.104 37.3125C378.482 37.5473 378.77 37.8617 378.967 38.2557C379.164 38.6458 379.263 39.0758 379.263 39.5455V40.1591C379.263 40.6288 379.162 41.0587 378.962 41.4489C378.765 41.839 378.475 42.1515 378.092 42.3864C377.714 42.6174 377.248 42.733 376.695 42.733C376.142 42.733 375.674 42.6155 375.291 42.3807C374.912 42.142 374.625 41.8295 374.428 41.4432C374.234 41.053 374.138 40.625 374.138 40.1591ZM375.803 39.5455V40.1591C375.803 40.4356 375.867 40.6913 375.996 40.9261C376.128 41.161 376.361 41.2784 376.695 41.2784C377.043 41.2784 377.28 41.161 377.405 40.9261C377.534 40.6913 377.598 40.4356 377.598 40.1591V39.5455C377.598 39.2689 377.537 39.0114 377.416 38.7727C377.295 38.5341 377.054 38.4148 376.695 38.4148C376.357 38.4148 376.125 38.536 375.996 38.7784C375.867 39.0208 375.803 39.2765 375.803 39.5455ZM374.888 49L382.888 37.3636H384.376L376.376 49H374.888Z" fill="#7F1F1F"/>
<path d="M20.1136 52V34.5455H30.6477V36.4205H22.2273V42.3182H30.1023V44.1932H22.2273V50.125H30.7841V52H20.1136ZM36.196 44.125V52H34.1847V38.9091H36.1278V40.9545H36.2983C36.6051 40.2898 37.071 39.7557 37.696 39.3523C38.321 38.9432 39.1278 38.7386 40.1165 38.7386C41.0028 38.7386 41.7784 38.9205 42.4432 39.2841C43.108 39.642 43.625 40.1875 43.9943 40.9205C44.3636 41.6477 44.5483 42.5682 44.5483 43.6818V52H42.5369V43.8182C42.5369 42.7898 42.2699 41.9886 41.7358 41.4148C41.2017 40.8352 40.4688 40.5455 39.5369 40.5455C38.8949 40.5455 38.321 40.6847 37.8153 40.9631C37.3153 41.2415 36.9205 41.6477 36.6307 42.1818C36.3409 42.7159 36.196 43.3636 36.196 44.125ZM53.5078 57.1818C52.5362 57.1818 51.701 57.0568 51.0021 56.8068C50.3033 56.5625 49.7209 56.2386 49.255 55.8352C48.7947 55.4375 48.4283 55.0114 48.1555 54.5568L49.7578 53.4318C49.9396 53.6705 50.1697 53.9432 50.4482 54.25C50.7266 54.5625 51.1072 54.8324 51.5902 55.0597C52.0788 55.2926 52.718 55.4091 53.5078 55.4091C54.5646 55.4091 55.4368 55.1534 56.1243 54.642C56.8118 54.1307 57.1555 53.3295 57.1555 52.2386V49.5795H56.9851C56.8374 49.8182 56.6271 50.1136 56.3544 50.4659C56.0874 50.8125 55.701 51.1222 55.1953 51.3949C54.6953 51.6619 54.0192 51.7955 53.1669 51.7955C52.1101 51.7955 51.1612 51.5455 50.3203 51.0455C49.4851 50.5455 48.8232 49.8182 48.3345 48.8636C47.8516 47.9091 47.6101 46.75 47.6101 45.3864C47.6101 44.0455 47.8459 42.8778 48.3175 41.8835C48.7891 40.8835 49.4453 40.1108 50.2862 39.5653C51.1271 39.0142 52.0987 38.7386 53.201 38.7386C54.0533 38.7386 54.7294 38.8807 55.2294 39.1648C55.7351 39.4432 56.1214 39.7614 56.3885 40.1193C56.6612 40.4716 56.8714 40.7614 57.0192 40.9886H57.2237V38.9091H59.1669V52.375C59.1669 53.5 58.9112 54.4148 58.3999 55.1193C57.8942 55.8295 57.2124 56.3494 56.3544 56.679C55.5021 57.0142 54.5533 57.1818 53.5078 57.1818ZM53.4396 49.9886C54.2464 49.9886 54.9283 49.804 55.4851 49.4347C56.0419 49.0653 56.4652 48.5341 56.755 47.8409C57.0447 47.1477 57.1896 46.3182 57.1896 45.3523C57.1896 44.4091 57.0476 43.5767 56.7635 42.8551C56.4794 42.1335 56.0589 41.5682 55.5021 41.1591C54.9453 40.75 54.2578 40.5455 53.4396 40.5455C52.5874 40.5455 51.8771 40.7614 51.3089 41.1932C50.7464 41.625 50.3232 42.2045 50.0391 42.9318C49.7607 43.6591 49.6214 44.4659 49.6214 45.3523C49.6214 46.2614 49.7635 47.0653 50.0476 47.7642C50.3374 48.4574 50.7635 49.0028 51.326 49.4006C51.8942 49.7926 52.5987 49.9886 53.4396 49.9886ZM66.701 52.3068C65.8714 52.3068 65.1186 52.1506 64.4425 51.8381C63.7663 51.5199 63.2294 51.0625 62.8317 50.4659C62.4339 49.8636 62.2351 49.1364 62.2351 48.2841C62.2351 47.5341 62.3828 46.9261 62.6783 46.4602C62.9737 45.9886 63.3686 45.6193 63.8629 45.3523C64.3572 45.0852 64.9027 44.8864 65.4993 44.7557C66.1016 44.6193 66.7067 44.5114 67.3146 44.4318C68.1101 44.3295 68.755 44.2528 69.2493 44.2017C69.7493 44.1449 70.1129 44.0511 70.3402 43.9205C70.5732 43.7898 70.6896 43.5625 70.6896 43.2386V43.1705C70.6896 42.3295 70.4595 41.6761 69.9993 41.2102C69.5447 40.7443 68.8544 40.5114 67.9283 40.5114C66.968 40.5114 66.2152 40.7216 65.6697 41.142C65.1243 41.5625 64.7408 42.0114 64.5192 42.4886L62.6101 41.8068C62.951 41.0114 63.4055 40.392 63.9737 39.9489C64.5476 39.5 65.1726 39.1875 65.8487 39.0114C66.5305 38.8295 67.201 38.7386 67.8601 38.7386C68.2805 38.7386 68.7635 38.7898 69.3089 38.892C69.8601 38.9886 70.3913 39.1903 70.9027 39.4972C71.4197 39.804 71.8487 40.267 72.1896 40.8864C72.5305 41.5057 72.701 42.3352 72.701 43.375V52H70.6896V50.2273H70.5874C70.451 50.5114 70.2237 50.8153 69.9055 51.1392C69.5874 51.4631 69.1641 51.7386 68.6357 51.9659C68.1072 52.1932 67.4624 52.3068 66.701 52.3068ZM67.0078 50.5C67.8033 50.5 68.4737 50.3438 69.0192 50.0312C69.5703 49.7188 69.9851 49.3153 70.2635 48.821C70.5476 48.3267 70.6896 47.8068 70.6896 47.2614V45.4205C70.6044 45.5227 70.4169 45.6165 70.1271 45.7017C69.843 45.7812 69.5135 45.8523 69.1385 45.9148C68.7692 45.9716 68.4084 46.0227 68.0561 46.0682C67.7095 46.108 67.4283 46.142 67.2124 46.1705C66.6896 46.2386 66.201 46.3494 65.7464 46.5028C65.2976 46.6506 64.9339 46.875 64.6555 47.1761C64.3828 47.4716 64.2464 47.875 64.2464 48.3864C64.2464 49.0852 64.505 49.6136 65.022 49.9716C65.5447 50.3239 66.2067 50.5 67.0078 50.5ZM81.6562 57.1818C80.6847 57.1818 79.8494 57.0568 79.1506 56.8068C78.4517 56.5625 77.8693 56.2386 77.4034 55.8352C76.9432 55.4375 76.5767 55.0114 76.304 54.5568L77.9062 53.4318C78.0881 53.6705 78.3182 53.9432 78.5966 54.25C78.875 54.5625 79.2557 54.8324 79.7386 55.0597C80.2273 55.2926 80.8665 55.4091 81.6562 55.4091C82.7131 55.4091 83.5852 55.1534 84.2727 54.642C84.9602 54.1307 85.304 53.3295 85.304 52.2386V49.5795H85.1335C84.9858 49.8182 84.7756 50.1136 84.5028 50.4659C84.2358 50.8125 83.8494 51.1222 83.3438 51.3949C82.8438 51.6619 82.1676 51.7955 81.3153 51.7955C80.2585 51.7955 79.3097 51.5455 78.4688 51.0455C77.6335 50.5455 76.9716 49.8182 76.483 48.8636C76 47.9091 75.7585 46.75 75.7585 45.3864C75.7585 44.0455 75.9943 42.8778 76.4659 41.8835C76.9375 40.8835 77.5938 40.1108 78.4347 39.5653C79.2756 39.0142 80.2472 38.7386 81.3494 38.7386C82.2017 38.7386 82.8778 38.8807 83.3778 39.1648C83.8835 39.4432 84.2699 39.7614 84.5369 40.1193C84.8097 40.4716 85.0199 40.7614 85.1676 40.9886H85.3722V38.9091H87.3153V52.375C87.3153 53.5 87.0597 54.4148 86.5483 55.1193C86.0426 55.8295 85.3608 56.3494 84.5028 56.679C83.6506 57.0142 82.7017 57.1818 81.6562 57.1818ZM81.5881 49.9886C82.3949 49.9886 83.0767 49.804 83.6335 49.4347C84.1903 49.0653 84.6136 48.5341 84.9034 47.8409C85.1932 47.1477 85.3381 46.3182 85.3381 45.3523C85.3381 44.4091 85.196 43.5767 84.9119 42.8551C84.6278 42.1335 84.2074 41.5682 83.6506 41.1591C83.0938 40.75 82.4063 40.5455 81.5881 40.5455C80.7358 40.5455 80.0256 40.7614 79.4574 41.1932C78.8949 41.625 78.4716 42.2045 78.1875 42.9318C77.9091 43.6591 77.7699 44.4659 77.7699 45.3523C77.7699 46.2614 77.9119 47.0653 78.196 47.7642C78.4858 48.4574 78.9119 49.0028 79.4744 49.4006C80.0426 49.7926 80.7472 49.9886 81.5881 49.9886ZM96.4858 52.2727C95.2244 52.2727 94.1364 51.9943 93.2216 51.4375C92.3125 50.875 91.6108 50.0909 91.1165 49.0852C90.6278 48.0739 90.3835 46.8977 90.3835 45.5568C90.3835 44.2159 90.6278 43.0341 91.1165 42.0114C91.6108 40.983 92.2983 40.1818 93.179 39.608C94.0653 39.0284 95.0994 38.7386 96.2812 38.7386C96.9631 38.7386 97.6364 38.8523 98.3011 39.0795C98.9659 39.3068 99.571 39.6761 100.116 40.1875C100.662 40.6932 101.097 41.3636 101.42 42.1989C101.744 43.0341 101.906 44.0625 101.906 45.2841V46.1364H91.8153V44.3977H99.8608C99.8608 43.6591 99.7131 43 99.4176 42.4205C99.1278 41.8409 98.7131 41.3835 98.1733 41.0483C97.6392 40.7131 97.0085 40.5455 96.2812 40.5455C95.4801 40.5455 94.7869 40.7443 94.2017 41.142C93.6222 41.5341 93.1761 42.0455 92.8636 42.6761C92.5511 43.3068 92.3949 43.983 92.3949 44.7045V45.8636C92.3949 46.8523 92.5653 47.6903 92.9062 48.3778C93.2528 49.0597 93.733 49.5795 94.3466 49.9375C94.9602 50.2898 95.6733 50.4659 96.4858 50.4659C97.0142 50.4659 97.4915 50.392 97.9176 50.2443C98.3494 50.0909 98.7216 49.8636 99.0341 49.5625C99.3466 49.2557 99.5881 48.875 99.7585 48.4205L101.702 48.9659C101.497 49.625 101.153 50.2045 100.67 50.7045C100.188 51.1989 99.5909 51.5852 98.8807 51.8636C98.1705 52.1364 97.3722 52.2727 96.4858 52.2727ZM104.966 52V38.9091H106.909V40.9545H107.08C107.352 40.2557 107.793 39.7131 108.401 39.3267C109.009 38.9347 109.739 38.7386 110.591 38.7386C111.455 38.7386 112.173 38.9347 112.747 39.3267C113.327 39.7131 113.778 40.2557 114.102 40.9545H114.239C114.574 40.2784 115.077 39.7415 115.747 39.3438C116.418 38.9403 117.222 38.7386 118.159 38.7386C119.33 38.7386 120.287 39.1051 121.031 39.8381C121.776 40.5653 122.148 41.6989 122.148 43.2386V52H120.136V43.2386C120.136 42.2727 119.872 41.5824 119.344 41.1676C118.815 40.7528 118.193 40.5455 117.477 40.5455C116.557 40.5455 115.844 40.8239 115.338 41.3807C114.832 41.9318 114.58 42.6307 114.58 43.4773V52H112.534V43.0341C112.534 42.2898 112.293 41.6903 111.81 41.2358C111.327 40.7756 110.705 40.5455 109.943 40.5455C109.42 40.5455 108.932 40.6847 108.477 40.9631C108.028 41.2415 107.665 41.6278 107.386 42.1222C107.114 42.6108 106.977 43.1761 106.977 43.8182V52H104.966ZM131.314 52.2727C130.053 52.2727 128.964 51.9943 128.05 51.4375C127.141 50.875 126.439 50.0909 125.945 49.0852C125.456 48.0739 125.212 46.8977 125.212 45.5568C125.212 44.2159 125.456 43.0341 125.945 42.0114C126.439 40.983 127.126 40.1818 128.007 39.608C128.893 39.0284 129.928 38.7386 131.109 38.7386C131.791 38.7386 132.464 38.8523 133.129 39.0795C133.794 39.3068 134.399 39.6761 134.945 40.1875C135.49 40.6932 135.925 41.3636 136.249 42.1989C136.572 43.0341 136.734 44.0625 136.734 45.2841V46.1364H126.643V44.3977H134.689C134.689 43.6591 134.541 43 134.246 42.4205C133.956 41.8409 133.541 41.3835 133.001 41.0483C132.467 40.7131 131.837 40.5455 131.109 40.5455C130.308 40.5455 129.615 40.7443 129.03 41.142C128.45 41.5341 128.004 42.0455 127.692 42.6761C127.379 43.3068 127.223 43.983 127.223 44.7045V45.8636C127.223 46.8523 127.393 47.6903 127.734 48.3778C128.081 49.0597 128.561 49.5795 129.175 49.9375C129.788 50.2898 130.501 50.4659 131.314 50.4659C131.842 50.4659 132.32 50.392 132.746 50.2443C133.178 50.0909 133.55 49.8636 133.862 49.5625C134.175 49.2557 134.416 48.875 134.587 48.4205L136.53 48.9659C136.325 49.625 135.982 50.2045 135.499 50.7045C135.016 51.1989 134.419 51.5852 133.709 51.8636C132.999 52.1364 132.2 52.2727 131.314 52.2727ZM141.805 44.125V52H139.794V38.9091H141.737V40.9545H141.908C142.214 40.2898 142.68 39.7557 143.305 39.3523C143.93 38.9432 144.737 38.7386 145.726 38.7386C146.612 38.7386 147.388 38.9205 148.053 39.2841C148.717 39.642 149.234 40.1875 149.604 40.9205C149.973 41.6477 150.158 42.5682 150.158 43.6818V52H148.146V43.8182C148.146 42.7898 147.879 41.9886 147.345 41.4148C146.811 40.8352 146.078 40.5455 145.146 40.5455C144.504 40.5455 143.93 40.6847 143.425 40.9631C142.925 41.2415 142.53 41.6477 142.24 42.1818C141.95 42.7159 141.805 43.3636 141.805 44.125ZM159.526 38.9091V40.6136H152.742V38.9091H159.526ZM154.719 35.7727H156.731V48.25C156.731 48.8182 156.813 49.2443 156.978 49.5284C157.148 49.8068 157.364 49.9943 157.626 50.0909C157.893 50.1818 158.174 50.2273 158.469 50.2273C158.691 50.2273 158.873 50.2159 159.015 50.1932C159.157 50.1648 159.271 50.142 159.356 50.125L159.765 51.9318C159.629 51.983 159.438 52.0341 159.194 52.0852C158.95 52.142 158.64 52.1705 158.265 52.1705C157.697 52.1705 157.14 52.0483 156.594 51.804C156.055 51.5597 155.606 51.1875 155.248 50.6875C154.896 50.1875 154.719 49.5568 154.719 48.7955V35.7727Z" fill="#656565"/>
<path d="M201.307 180.136C200.886 180.136 200.526 179.986 200.224 179.685C199.923 179.384 199.773 179.023 199.773 178.602C199.773 178.182 199.923 177.821 200.224 177.52C200.526 177.219 200.886 177.068 201.307 177.068C201.727 177.068 202.088 177.219 202.389 177.52C202.69 177.821 202.841 178.182 202.841 178.602C202.841 178.881 202.77 179.136 202.628 179.369C202.491 179.602 202.307 179.79 202.074 179.932C201.847 180.068 201.591 180.136 201.307 180.136ZM207.916 180.136C207.496 180.136 207.135 179.986 206.834 179.685C206.533 179.384 206.382 179.023 206.382 178.602C206.382 178.182 206.533 177.821 206.834 177.52C207.135 177.219 207.496 177.068 207.916 177.068C208.337 177.068 208.697 177.219 208.999 177.52C209.3 177.821 209.45 178.182 209.45 178.602C209.45 178.881 209.379 179.136 209.237 179.369C209.101 179.602 208.916 179.79 208.683 179.932C208.456 180.068 208.2 180.136 207.916 180.136ZM214.526 180.136C214.105 180.136 213.744 179.986 213.443 179.685C213.142 179.384 212.991 179.023 212.991 178.602C212.991 178.182 213.142 177.821 213.443 177.52C213.744 177.219 214.105 177.068 214.526 177.068C214.946 177.068 215.307 177.219 215.608 177.52C215.909 177.821 216.06 178.182 216.06 178.602C216.06 178.881 215.989 179.136 215.847 179.369C215.71 179.602 215.526 179.79 215.293 179.932C215.065 180.068 214.81 180.136 214.526 180.136Z" fill="#656565"/>
<path d="M27.0085 77.5455V95H23.3182V81.0483H23.2159L19.2188 83.554V80.2812L23.5398 77.5455H27.0085ZM38.7507 77.5455V95H35.0604V81.0483H34.9581L30.9609 83.554V80.2812L35.282 77.5455H38.7507ZM42.8991 95V92.3409L49.1122 86.5881C49.6406 86.0767 50.0838 85.6165 50.4418 85.2074C50.8054 84.7983 51.081 84.3977 51.2685 84.0057C51.456 83.608 51.5497 83.179 51.5497 82.7188C51.5497 82.2074 51.4332 81.767 51.2003 81.3977C50.9673 81.0227 50.6491 80.7358 50.2457 80.5369C49.8423 80.3324 49.3849 80.2301 48.8736 80.2301C48.3395 80.2301 47.8736 80.3381 47.4759 80.554C47.0781 80.7699 46.7713 81.0795 46.5554 81.483C46.3395 81.8864 46.2315 82.3665 46.2315 82.9233H42.7287C42.7287 81.7812 42.9872 80.7898 43.5043 79.9489C44.0213 79.108 44.7457 78.4574 45.6776 77.9972C46.6094 77.5369 47.6832 77.3068 48.8991 77.3068C50.1491 77.3068 51.2372 77.5284 52.1634 77.9716C53.0952 78.4091 53.8196 79.017 54.3366 79.7955C54.8537 80.5739 55.1122 81.4659 55.1122 82.4716C55.1122 83.1307 54.9815 83.7812 54.7202 84.4233C54.4645 85.0653 54.0071 85.7784 53.348 86.5625C52.6889 87.3409 51.7599 88.2756 50.5611 89.3665L48.0128 91.8636V91.983H55.3423V95H42.8991ZM68.9425 85.642L65.6186 85.8466C65.5618 85.5625 65.4396 85.3068 65.2521 85.0795C65.0646 84.8466 64.8175 84.6619 64.5107 84.5256C64.2095 84.3835 63.8487 84.3125 63.4283 84.3125C62.8658 84.3125 62.3913 84.4318 62.005 84.6705C61.6186 84.9034 61.4254 85.2159 61.4254 85.608C61.4254 85.9205 61.5504 86.1847 61.8004 86.4006C62.0504 86.6165 62.4794 86.7898 63.0874 86.9205L65.4567 87.3977C66.7294 87.6591 67.6783 88.0795 68.3033 88.6591C68.9283 89.2386 69.2408 90 69.2408 90.9432C69.2408 91.8011 68.9879 92.554 68.4822 93.2017C67.9822 93.8494 67.2947 94.3551 66.4197 94.7188C65.5504 95.0767 64.5476 95.2557 63.4112 95.2557C61.6783 95.2557 60.2976 94.8949 59.2692 94.1733C58.2464 93.446 57.647 92.4574 57.4709 91.2074L61.0419 91.0199C61.1499 91.5483 61.4112 91.9517 61.826 92.2301C62.2408 92.5028 62.772 92.6392 63.4197 92.6392C64.0561 92.6392 64.5675 92.517 64.9538 92.2727C65.3459 92.0227 65.5447 91.7017 65.5504 91.3097C65.5447 90.9801 65.4055 90.7102 65.1328 90.5C64.8601 90.2841 64.4396 90.1193 63.8714 90.0057L61.6044 89.554C60.326 89.2983 59.3743 88.8551 58.7493 88.2244C58.13 87.5937 57.8203 86.7898 57.8203 85.8125C57.8203 84.9716 58.0476 84.2472 58.5021 83.6392C58.9624 83.0312 59.6072 82.5625 60.4368 82.233C61.272 81.9034 62.2493 81.7386 63.3686 81.7386C65.022 81.7386 66.3232 82.0881 67.272 82.7869C68.2266 83.4858 68.7834 84.4375 68.9425 85.642Z" fill="black"/>
</svg>
