<svg width="260" height="200" viewBox="0 0 260 200" fill="none" xmlns="http://www.w3.org/2000/svg">
<rect width="260" height="200" rx="16" fill="#ECECEC"/>
<path d="M19.517 42V24.5455H26.4034C27.7273 24.5455 28.8551 24.7983 29.7869 25.304C30.7188 25.804 31.429 26.5 31.9176 27.392C32.4119 28.2784 32.6591 29.3011 32.6591 30.4602C32.6591 31.6193 32.4091 32.642 31.9091 33.5284C31.4091 34.4148 30.6847 35.1051 29.7358 35.5994C28.7926 36.0937 27.6506 36.3409 26.3097 36.3409H21.9205V33.3835H25.7131C26.4233 33.3835 27.0085 33.2614 27.4688 33.017C27.9347 32.767 28.2813 32.4233 28.5085 31.9858C28.7415 31.5426 28.858 31.0341 28.858 30.4602C28.858 29.8807 28.7415 29.375 28.5085 28.9432C28.2813 28.5057 27.9347 28.1676 27.4688 27.929C27.0028 27.6847 26.4119 27.5625 25.696 27.5625H23.2074V42H19.517ZM34.9879 42V28.9091H38.5078V31.1932H38.6442C38.8828 30.3807 39.2834 29.767 39.8459 29.3523C40.4084 28.9318 41.0561 28.7216 41.7891 28.7216C41.9709 28.7216 42.1669 28.733 42.3771 28.7557C42.5874 28.7784 42.772 28.8097 42.9311 28.8494V32.071C42.7607 32.0199 42.5249 31.9744 42.2237 31.9347C41.9226 31.8949 41.647 31.875 41.397 31.875C40.8629 31.875 40.3857 31.9915 39.9652 32.2244C39.5504 32.4517 39.2209 32.7699 38.9766 33.179C38.7379 33.5881 38.6186 34.0597 38.6186 34.5938V42H34.9879ZM50.1136 42.2557C48.7898 42.2557 47.6449 41.9744 46.679 41.4119C45.7188 40.8437 44.9773 40.054 44.4545 39.0426C43.9318 38.0256 43.6705 36.8466 43.6705 35.5057C43.6705 34.1534 43.9318 32.9716 44.4545 31.9602C44.9773 30.9432 45.7188 30.1534 46.679 29.5909C47.6449 29.0227 48.7898 28.7386 50.1136 28.7386C51.4375 28.7386 52.5795 29.0227 53.5398 29.5909C54.5057 30.1534 55.25 30.9432 55.7727 31.9602C56.2955 32.9716 56.5568 34.1534 56.5568 35.5057C56.5568 36.8466 56.2955 38.0256 55.7727 39.0426C55.25 40.054 54.5057 40.8437 53.5398 41.4119C52.5795 41.9744 51.4375 42.2557 50.1136 42.2557ZM50.1307 39.4432C50.733 39.4432 51.2358 39.2727 51.6392 38.9318C52.0426 38.5852 52.3466 38.1136 52.5511 37.517C52.7614 36.9205 52.8665 36.2415 52.8665 35.4801C52.8665 34.7188 52.7614 34.0398 52.5511 33.4432C52.3466 32.8466 52.0426 32.375 51.6392 32.0284C51.2358 31.6818 50.733 31.5085 50.1307 31.5085C49.5227 31.5085 49.0114 31.6818 48.5966 32.0284C48.1875 32.375 47.8778 32.8466 47.6676 33.4432C47.4631 34.0398 47.3608 34.7188 47.3608 35.4801C47.3608 36.2415 47.4631 36.9205 47.6676 37.517C47.8778 38.1136 48.1875 38.5852 48.5966 38.9318C49.0114 39.2727 49.5227 39.4432 50.1307 39.4432ZM63.7415 42.2131C62.7472 42.2131 61.8466 41.9574 61.0398 41.446C60.2386 40.929 59.6023 40.1705 59.1307 39.1705C58.6648 38.1648 58.4318 36.9318 58.4318 35.4716C58.4318 33.9716 58.6733 32.7244 59.1562 31.7301C59.6392 30.7301 60.2813 29.983 61.0824 29.4886C61.8892 28.9886 62.7727 28.7386 63.733 28.7386C64.4659 28.7386 65.0767 28.8636 65.5653 29.1136C66.0597 29.358 66.4574 29.6648 66.7585 30.0341C67.0653 30.3977 67.2983 30.7557 67.4574 31.108H67.5682V24.5455H71.1903V42H67.6108V39.9034H67.4574C67.2869 40.267 67.0455 40.6278 66.733 40.9858C66.4261 41.3381 66.0256 41.6307 65.5312 41.8636C65.0426 42.0966 64.446 42.2131 63.7415 42.2131ZM64.892 39.3239C65.4773 39.3239 65.9716 39.1648 66.375 38.8466C66.7841 38.5227 67.0966 38.071 67.3125 37.4915C67.5341 36.9119 67.6449 36.233 67.6449 35.4545C67.6449 34.6761 67.5369 34 67.321 33.4261C67.1051 32.8523 66.7926 32.4091 66.3835 32.0966C65.9744 31.7841 65.4773 31.6278 64.892 31.6278C64.2955 31.6278 63.7926 31.7898 63.3835 32.1136C62.9744 32.4375 62.6648 32.8864 62.4545 33.4602C62.2443 34.0341 62.1392 34.6989 62.1392 35.4545C62.1392 36.2159 62.2443 36.8892 62.4545 37.4744C62.6705 38.054 62.9801 38.5085 63.3835 38.8381C63.7926 39.1619 64.2955 39.3239 64.892 39.3239ZM82.5703 36.4261V28.9091H86.201V42H82.7152V39.6222H82.5788C82.2834 40.3892 81.7919 41.0057 81.1044 41.4716C80.4226 41.9375 79.5902 42.1705 78.6072 42.1705C77.7322 42.1705 76.9624 41.9716 76.2976 41.5739C75.6328 41.1761 75.1129 40.6108 74.7379 39.8778C74.3686 39.1449 74.1811 38.267 74.1754 37.2443V28.9091H77.8061V36.5966C77.8118 37.3693 78.0192 37.9801 78.4283 38.429C78.8374 38.8778 79.3857 39.1023 80.0732 39.1023C80.5107 39.1023 80.9197 39.0028 81.3004 38.804C81.6811 38.5994 81.9879 38.2983 82.2209 37.9006C82.4595 37.5028 82.576 37.0114 82.5703 36.4261ZM95.0199 42.2557C93.679 42.2557 92.5256 41.9716 91.5597 41.4034C90.5994 40.8295 89.8608 40.0341 89.3438 39.017C88.8324 38 88.5767 36.8295 88.5767 35.5057C88.5767 34.1648 88.8352 32.9886 89.3523 31.9773C89.875 30.9602 90.6165 30.1676 91.5767 29.5994C92.5369 29.0256 93.679 28.7386 95.0028 28.7386C96.1449 28.7386 97.1449 28.946 98.0028 29.3608C98.8608 29.7756 99.5398 30.358 100.04 31.108C100.54 31.858 100.815 32.7386 100.866 33.75H97.4403C97.3438 33.0966 97.0881 32.571 96.6733 32.1733C96.2642 31.7699 95.7273 31.5682 95.0625 31.5682C94.5 31.5682 94.0085 31.7216 93.5881 32.0284C93.1733 32.3295 92.8494 32.7699 92.6165 33.3494C92.3835 33.929 92.267 34.6307 92.267 35.4545C92.267 36.2898 92.3807 37 92.608 37.5852C92.8409 38.1705 93.1676 38.6165 93.5881 38.9233C94.0085 39.2301 94.5 39.3835 95.0625 39.3835C95.4773 39.3835 95.8494 39.2983 96.179 39.1278C96.5142 38.9574 96.7898 38.7102 97.0057 38.3864C97.2273 38.0568 97.3722 37.6619 97.4403 37.2017H100.866C100.81 38.2017 100.537 39.0824 100.048 39.8438C99.5653 40.5994 98.8977 41.1903 98.0455 41.6165C97.1932 42.0426 96.1847 42.2557 95.0199 42.2557ZM110.154 28.9091V31.6364H102.271V28.9091H110.154ZM104.06 25.7727H107.691V37.9773C107.691 38.3125 107.742 38.5739 107.844 38.7614C107.947 38.9432 108.089 39.071 108.271 39.1449C108.458 39.2187 108.674 39.2557 108.918 39.2557C109.089 39.2557 109.259 39.2415 109.43 39.2131C109.6 39.179 109.731 39.1534 109.822 39.1364L110.393 41.8381C110.211 41.8949 109.955 41.9602 109.626 42.0341C109.296 42.1136 108.896 42.1619 108.424 42.179C107.549 42.2131 106.782 42.0966 106.123 41.8295C105.469 41.5625 104.961 41.1477 104.597 40.5852C104.234 40.0227 104.055 39.3125 104.06 38.4545V25.7727ZM112.519 42V28.9091H116.15V42H112.519ZM114.343 27.2216C113.803 27.2216 113.34 27.0426 112.954 26.6847C112.573 26.321 112.383 25.8864 112.383 25.3807C112.383 24.8807 112.573 24.4517 112.954 24.0938C113.34 23.7301 113.803 23.5483 114.343 23.5483C114.883 23.5483 115.343 23.7301 115.724 24.0938C116.11 24.4517 116.303 24.8807 116.303 25.3807C116.303 25.8864 116.11 26.321 115.724 26.6847C115.343 27.0426 114.883 27.2216 114.343 27.2216ZM131.263 28.9091L126.686 42H122.595L118.018 28.9091H121.854L124.572 38.2756H124.709L127.419 28.9091H131.263ZM133.121 42V28.9091H136.751V42H133.121ZM134.945 27.2216C134.405 27.2216 133.942 27.0426 133.555 26.6847C133.175 26.321 132.984 25.8864 132.984 25.3807C132.984 24.8807 133.175 24.4517 133.555 24.0938C133.942 23.7301 134.405 23.5483 134.945 23.5483C135.484 23.5483 135.945 23.7301 136.325 24.0938C136.712 24.4517 136.905 24.8807 136.905 25.3807C136.905 25.8864 136.712 26.321 136.325 26.6847C135.945 27.0426 135.484 27.2216 134.945 27.2216ZM146.623 28.9091V31.6364H138.739V28.9091H146.623ZM140.529 25.7727H144.16V37.9773C144.16 38.3125 144.211 38.5739 144.313 38.7614C144.415 38.9432 144.558 39.071 144.739 39.1449C144.927 39.2187 145.143 39.2557 145.387 39.2557C145.558 39.2557 145.728 39.2415 145.898 39.2131C146.069 39.179 146.2 39.1534 146.29 39.1364L146.862 41.8381C146.68 41.8949 146.424 41.9602 146.094 42.0341C145.765 42.1136 145.364 42.1619 144.893 42.179C144.018 42.2131 143.251 42.0966 142.592 41.8295C141.938 41.5625 141.43 41.1477 141.066 40.5852C140.702 40.0227 140.523 39.3125 140.529 38.4545V25.7727ZM151.229 46.9091C150.769 46.9091 150.337 46.8722 149.934 46.7983C149.536 46.7301 149.207 46.642 148.945 46.5341L149.763 43.8239C150.19 43.9545 150.573 44.0256 150.914 44.0369C151.261 44.0483 151.559 43.9688 151.809 43.7983C152.065 43.6278 152.272 43.3381 152.431 42.929L152.644 42.375L147.948 28.9091H151.766L154.477 38.5227H154.613L157.349 28.9091H161.192L156.104 43.4148C155.86 44.1193 155.528 44.733 155.107 45.2557C154.692 45.7841 154.167 46.1903 153.531 46.4744C152.894 46.7642 152.127 46.9091 151.229 46.9091Z" fill="#656565"/>
<rect x="36" y="135" width="188" height="35" rx="16" fill="#BEFFD3"/>
<path d="M132.914 60.5421C132.133 59.7611 130.867 59.7611 130.086 60.5421L117.358 73.27C116.577 74.0511 116.577 75.3174 117.358 76.0985C118.139 76.8795 119.405 76.8795 120.186 76.0985L131.5 64.7848L142.814 76.0985C143.595 76.8795 144.861 76.8795 145.642 76.0985C146.423 75.3174 146.423 74.0511 145.642 73.27L132.914 60.5421ZM131.5 113.044H133.5V61.9563H131.5H129.5V113.044H131.5Z" fill="#4BBA47"/>
<path d="M77.5526 159V157.227L81.6946 153.392C82.0469 153.051 82.3423 152.744 82.581 152.472C82.8234 152.199 83.0071 151.932 83.1321 151.67C83.2571 151.405 83.3196 151.119 83.3196 150.812C83.3196 150.472 83.242 150.178 83.0866 149.932C82.9313 149.682 82.7192 149.491 82.4503 149.358C82.1813 149.222 81.8764 149.153 81.5355 149.153C81.1795 149.153 80.8688 149.225 80.6037 149.369C80.3385 149.513 80.134 149.72 79.9901 149.989C79.8461 150.258 79.7741 150.578 79.7741 150.949H77.4389C77.4389 150.187 77.6113 149.527 77.956 148.966C78.3007 148.405 78.7836 147.972 79.4048 147.665C80.026 147.358 80.742 147.205 81.5526 147.205C82.3859 147.205 83.1113 147.352 83.7287 147.648C84.3499 147.939 84.8329 148.345 85.1776 148.864C85.5223 149.383 85.6946 149.977 85.6946 150.648C85.6946 151.087 85.6075 151.521 85.4332 151.949C85.2628 152.377 84.9579 152.852 84.5185 153.375C84.0791 153.894 83.4598 154.517 82.6605 155.244L80.9616 156.909V156.989H85.848V159H77.5526ZM92.1932 159.256C91.2159 159.252 90.375 159.011 89.6705 158.534C88.9697 158.057 88.4299 157.366 88.0511 156.46C87.6761 155.555 87.4905 154.466 87.4943 153.193C87.4943 151.924 87.6818 150.843 88.0568 149.949C88.4356 149.055 88.9754 148.375 89.6761 147.909C90.3807 147.439 91.2197 147.205 92.1932 147.205C93.1667 147.205 94.0038 147.439 94.7045 147.909C95.4091 148.379 95.9508 149.061 96.3295 149.955C96.7083 150.845 96.8958 151.924 96.892 153.193C96.892 154.47 96.7027 155.561 96.3239 156.466C95.9489 157.371 95.411 158.062 94.7102 158.54C94.0095 159.017 93.1705 159.256 92.1932 159.256ZM92.1932 157.216C92.8598 157.216 93.392 156.881 93.7898 156.21C94.1875 155.54 94.3845 154.534 94.3807 153.193C94.3807 152.311 94.2898 151.576 94.108 150.989C93.9299 150.402 93.6761 149.96 93.3466 149.665C93.0208 149.369 92.6364 149.222 92.1932 149.222C91.5303 149.222 91 149.553 90.6023 150.216C90.2045 150.879 90.0038 151.871 90 153.193C90 154.087 90.089 154.833 90.267 155.432C90.4489 156.027 90.7045 156.473 91.0341 156.773C91.3636 157.068 91.75 157.216 92.1932 157.216ZM105.016 156.818V156.205C105.016 155.739 105.114 155.311 105.311 154.92C105.512 154.527 105.802 154.212 106.18 153.977C106.563 153.739 107.029 153.619 107.578 153.619C108.135 153.619 108.603 153.737 108.982 153.972C109.364 154.206 109.652 154.521 109.845 154.915C110.042 155.305 110.141 155.735 110.141 156.205V156.818C110.141 157.284 110.042 157.714 109.845 158.108C109.648 158.498 109.358 158.811 108.976 159.045C108.593 159.284 108.127 159.403 107.578 159.403C107.021 159.403 106.554 159.284 106.175 159.045C105.796 158.811 105.508 158.498 105.311 158.108C105.114 157.714 105.016 157.284 105.016 156.818ZM106.669 156.205V156.818C106.669 157.087 106.733 157.341 106.862 157.58C106.995 157.818 107.233 157.938 107.578 157.938C107.923 157.938 108.158 157.82 108.283 157.585C108.411 157.35 108.476 157.095 108.476 156.818V156.205C108.476 155.928 108.415 155.67 108.294 155.432C108.173 155.193 107.934 155.074 107.578 155.074C107.237 155.074 107 155.193 106.868 155.432C106.735 155.67 106.669 155.928 106.669 156.205ZM99.044 150.159V149.545C99.044 149.076 99.1444 148.646 99.3452 148.256C99.5459 147.862 99.8357 147.547 100.214 147.312C100.597 147.078 101.059 146.96 101.601 146.96C102.161 146.96 102.631 147.078 103.01 147.312C103.389 147.547 103.677 147.862 103.874 148.256C104.071 148.646 104.169 149.076 104.169 149.545V150.159C104.169 150.629 104.069 151.059 103.868 151.449C103.671 151.839 103.381 152.152 102.999 152.386C102.62 152.617 102.154 152.733 101.601 152.733C101.048 152.733 100.58 152.616 100.197 152.381C99.8187 152.142 99.5308 151.83 99.3338 151.443C99.1406 151.053 99.044 150.625 99.044 150.159ZM100.709 149.545V150.159C100.709 150.436 100.773 150.691 100.902 150.926C101.035 151.161 101.268 151.278 101.601 151.278C101.949 151.278 102.186 151.161 102.311 150.926C102.44 150.691 102.504 150.436 102.504 150.159V149.545C102.504 149.269 102.444 149.011 102.322 148.773C102.201 148.534 101.961 148.415 101.601 148.415C101.264 148.415 101.031 148.536 100.902 148.778C100.773 149.021 100.709 149.277 100.709 149.545ZM99.794 159L107.794 147.364H109.283L101.283 159H99.794ZM116.122 159V150.273H118.543V159H116.122ZM117.338 149.148C116.978 149.148 116.67 149.028 116.412 148.79C116.158 148.547 116.031 148.258 116.031 147.92C116.031 147.587 116.158 147.301 116.412 147.062C116.67 146.82 116.978 146.699 117.338 146.699C117.698 146.699 118.005 146.82 118.259 147.062C118.516 147.301 118.645 147.587 118.645 147.92C118.645 148.258 118.516 148.547 118.259 148.79C118.005 149.028 117.698 149.148 117.338 149.148ZM122.902 153.955V159H120.482V150.273H122.788V151.812H122.891C123.084 151.305 123.408 150.903 123.862 150.608C124.317 150.309 124.868 150.159 125.516 150.159C126.122 150.159 126.65 150.292 127.101 150.557C127.552 150.822 127.902 151.201 128.152 151.693C128.402 152.182 128.527 152.765 128.527 153.443V159H126.107V153.875C126.11 153.341 125.974 152.924 125.697 152.625C125.421 152.322 125.04 152.17 124.555 152.17C124.23 152.17 123.942 152.241 123.692 152.381C123.446 152.521 123.252 152.725 123.112 152.994C122.976 153.259 122.906 153.58 122.902 153.955ZM134.378 159.17C133.484 159.17 132.715 158.981 132.071 158.602C131.431 158.22 130.938 157.689 130.594 157.011C130.253 156.333 130.082 155.553 130.082 154.67C130.082 153.777 130.255 152.992 130.599 152.318C130.948 151.64 131.442 151.112 132.082 150.733C132.723 150.35 133.484 150.159 134.366 150.159C135.128 150.159 135.795 150.297 136.366 150.574C136.938 150.85 137.391 151.239 137.724 151.739C138.058 152.239 138.241 152.826 138.276 153.5H135.991C135.927 153.064 135.757 152.714 135.48 152.449C135.207 152.18 134.849 152.045 134.406 152.045C134.031 152.045 133.704 152.148 133.423 152.352C133.147 152.553 132.931 152.847 132.776 153.233C132.62 153.619 132.543 154.087 132.543 154.636C132.543 155.193 132.618 155.667 132.77 156.057C132.925 156.447 133.143 156.744 133.423 156.949C133.704 157.153 134.031 157.256 134.406 157.256C134.683 157.256 134.931 157.199 135.151 157.085C135.374 156.972 135.558 156.807 135.702 156.591C135.849 156.371 135.946 156.108 135.991 155.801H138.276C138.238 156.468 138.056 157.055 137.73 157.562C137.408 158.066 136.963 158.46 136.395 158.744C135.827 159.028 135.154 159.17 134.378 159.17ZM139.825 159V150.273H142.172V151.795H142.263C142.422 151.254 142.689 150.845 143.064 150.568C143.439 150.288 143.871 150.148 144.359 150.148C144.481 150.148 144.611 150.155 144.751 150.17C144.892 150.186 145.015 150.206 145.121 150.233V152.381C145.007 152.347 144.85 152.316 144.649 152.29C144.448 152.263 144.265 152.25 144.098 152.25C143.742 152.25 143.424 152.328 143.143 152.483C142.867 152.634 142.647 152.847 142.484 153.119C142.325 153.392 142.246 153.706 142.246 154.062V159H139.825ZM149.943 159.17C149.045 159.17 148.273 158.989 147.625 158.625C146.981 158.258 146.485 157.739 146.136 157.068C145.788 156.394 145.614 155.597 145.614 154.676C145.614 153.778 145.788 152.991 146.136 152.312C146.485 151.634 146.975 151.106 147.608 150.727C148.244 150.348 148.991 150.159 149.847 150.159C150.422 150.159 150.958 150.252 151.455 150.438C151.955 150.619 152.39 150.894 152.761 151.261C153.136 151.629 153.428 152.091 153.636 152.648C153.845 153.201 153.949 153.848 153.949 154.591V155.256H146.58V153.756H151.67C151.67 153.407 151.595 153.098 151.443 152.83C151.292 152.561 151.081 152.35 150.812 152.199C150.547 152.044 150.239 151.966 149.886 151.966C149.519 151.966 149.193 152.051 148.909 152.222C148.629 152.388 148.409 152.614 148.25 152.898C148.091 153.178 148.009 153.491 148.006 153.835V155.261C148.006 155.693 148.085 156.066 148.244 156.381C148.407 156.695 148.636 156.938 148.932 157.108C149.227 157.278 149.578 157.364 149.983 157.364C150.252 157.364 150.498 157.326 150.722 157.25C150.945 157.174 151.136 157.061 151.295 156.909C151.455 156.758 151.576 156.572 151.659 156.352L153.898 156.5C153.784 157.038 153.551 157.508 153.199 157.909C152.85 158.307 152.4 158.617 151.847 158.841C151.297 159.061 150.663 159.17 149.943 159.17ZM158.017 159.165C157.46 159.165 156.964 159.068 156.528 158.875C156.093 158.678 155.748 158.388 155.494 158.006C155.244 157.619 155.119 157.138 155.119 156.562C155.119 156.078 155.208 155.67 155.386 155.341C155.564 155.011 155.807 154.746 156.114 154.545C156.42 154.345 156.769 154.193 157.159 154.091C157.553 153.989 157.966 153.917 158.398 153.875C158.905 153.822 159.314 153.773 159.625 153.727C159.936 153.678 160.161 153.606 160.301 153.511C160.441 153.417 160.511 153.277 160.511 153.091V153.057C160.511 152.697 160.398 152.419 160.17 152.222C159.947 152.025 159.629 151.926 159.216 151.926C158.78 151.926 158.434 152.023 158.176 152.216C157.919 152.405 157.748 152.644 157.665 152.932L155.426 152.75C155.54 152.22 155.763 151.761 156.097 151.375C156.43 150.985 156.86 150.686 157.386 150.477C157.917 150.265 158.53 150.159 159.227 150.159C159.712 150.159 160.176 150.216 160.619 150.33C161.066 150.443 161.462 150.619 161.807 150.858C162.155 151.097 162.43 151.403 162.631 151.778C162.831 152.15 162.932 152.595 162.932 153.114V159H160.636V157.79H160.568C160.428 158.062 160.241 158.303 160.006 158.511C159.771 158.716 159.489 158.877 159.159 158.994C158.83 159.108 158.449 159.165 158.017 159.165ZM158.71 157.494C159.066 157.494 159.381 157.424 159.653 157.284C159.926 157.14 160.14 156.947 160.295 156.705C160.451 156.462 160.528 156.187 160.528 155.881V154.955C160.453 155.004 160.348 155.049 160.216 155.091C160.087 155.129 159.941 155.165 159.778 155.199C159.616 155.229 159.453 155.258 159.29 155.284C159.127 155.307 158.979 155.328 158.847 155.347C158.563 155.388 158.314 155.455 158.102 155.545C157.89 155.636 157.725 155.759 157.608 155.915C157.491 156.066 157.432 156.256 157.432 156.483C157.432 156.812 157.551 157.064 157.79 157.239C158.032 157.409 158.339 157.494 158.71 157.494ZM172.071 152.761L169.855 152.898C169.817 152.708 169.736 152.538 169.611 152.386C169.486 152.231 169.321 152.108 169.116 152.017C168.916 151.922 168.675 151.875 168.395 151.875C168.02 151.875 167.704 151.955 167.446 152.114C167.188 152.269 167.06 152.477 167.06 152.739C167.06 152.947 167.143 153.123 167.31 153.267C167.476 153.411 167.762 153.527 168.168 153.614L169.747 153.932C170.596 154.106 171.228 154.386 171.645 154.773C172.062 155.159 172.27 155.667 172.27 156.295C172.27 156.867 172.101 157.369 171.764 157.801C171.431 158.233 170.973 158.57 170.389 158.812C169.81 159.051 169.141 159.17 168.384 159.17C167.228 159.17 166.308 158.93 165.622 158.449C164.94 157.964 164.541 157.305 164.423 156.472L166.804 156.347C166.876 156.699 167.05 156.968 167.327 157.153C167.603 157.335 167.957 157.426 168.389 157.426C168.813 157.426 169.154 157.345 169.412 157.182C169.673 157.015 169.806 156.801 169.81 156.54C169.806 156.32 169.713 156.14 169.531 156C169.349 155.856 169.069 155.746 168.69 155.67L167.179 155.369C166.327 155.199 165.692 154.903 165.276 154.483C164.863 154.062 164.656 153.527 164.656 152.875C164.656 152.314 164.808 151.831 165.111 151.426C165.418 151.021 165.848 150.708 166.401 150.489C166.957 150.269 167.609 150.159 168.355 150.159C169.457 150.159 170.325 150.392 170.957 150.858C171.594 151.324 171.965 151.958 172.071 152.761ZM177.771 159.17C176.874 159.17 176.101 158.989 175.453 158.625C174.809 158.258 174.313 157.739 173.964 157.068C173.616 156.394 173.442 155.597 173.442 154.676C173.442 153.778 173.616 152.991 173.964 152.312C174.313 151.634 174.804 151.106 175.436 150.727C176.072 150.348 176.819 150.159 177.675 150.159C178.25 150.159 178.786 150.252 179.283 150.438C179.783 150.619 180.218 150.894 180.589 151.261C180.964 151.629 181.256 152.091 181.464 152.648C181.673 153.201 181.777 153.848 181.777 154.591V155.256H174.408V153.756H179.499C179.499 153.407 179.423 153.098 179.271 152.83C179.12 152.561 178.91 152.35 178.641 152.199C178.375 152.044 178.067 151.966 177.714 151.966C177.347 151.966 177.021 152.051 176.737 152.222C176.457 152.388 176.237 152.614 176.078 152.898C175.919 153.178 175.838 153.491 175.834 153.835V155.261C175.834 155.693 175.913 156.066 176.072 156.381C176.235 156.695 176.464 156.938 176.76 157.108C177.055 157.278 177.406 157.364 177.811 157.364C178.08 157.364 178.326 157.326 178.55 157.25C178.773 157.174 178.964 157.061 179.124 156.909C179.283 156.758 179.404 156.572 179.487 156.352L181.726 156.5C181.612 157.038 181.379 157.508 181.027 157.909C180.679 158.307 180.228 158.617 179.675 158.841C179.125 159.061 178.491 159.17 177.771 159.17Z" fill="#4BBA47"/>
</svg>
