<svg width="415" height="200" viewBox="0 0 415 200" fill="none" xmlns="http://www.w3.org/2000/svg">
<rect width="415" height="200" rx="16" fill="#ECECEC"/>
<rect x="319" y="26" width="73" height="35" rx="16" fill="#BEFFD3"/>
<path d="M335.71 47.2273V39.1818H337.744V47.2273H335.71ZM332.704 44.2216V42.1875H340.749V44.2216H332.704ZM346.81 49V47.2273L350.952 43.392C351.305 43.0511 351.6 42.7443 351.839 42.4716C352.081 42.1989 352.265 41.9318 352.39 41.6705C352.515 41.4053 352.577 41.1193 352.577 40.8125C352.577 40.4716 352.5 40.178 352.344 39.9318C352.189 39.6818 351.977 39.4905 351.708 39.358C351.439 39.2216 351.134 39.1534 350.793 39.1534C350.437 39.1534 350.127 39.2254 349.862 39.3693C349.596 39.5133 349.392 39.7197 349.248 39.9886C349.104 40.2576 349.032 40.5777 349.032 40.9489H346.697C346.697 40.1875 346.869 39.5265 347.214 38.9659C347.558 38.4053 348.041 37.9716 348.663 37.6648C349.284 37.358 350 37.2045 350.81 37.2045C351.644 37.2045 352.369 37.3523 352.987 37.6477C353.608 37.9394 354.091 38.3447 354.435 38.8636C354.78 39.3826 354.952 39.9773 354.952 40.6477C354.952 41.0871 354.865 41.5208 354.691 41.9489C354.521 42.3769 354.216 42.8523 353.776 43.375C353.337 43.8939 352.718 44.517 351.918 45.2443L350.219 46.9091V46.9886H355.106V49H346.81ZM361.451 49.2557C360.474 49.2519 359.633 49.0114 358.928 48.5341C358.228 48.0568 357.688 47.3655 357.309 46.4602C356.934 45.5549 356.748 44.4659 356.752 43.1932C356.752 41.9242 356.94 40.8428 357.315 39.9489C357.693 39.0549 358.233 38.375 358.934 37.9091C359.638 37.4394 360.478 37.2045 361.451 37.2045C362.424 37.2045 363.262 37.4394 363.962 37.9091C364.667 38.3788 365.209 39.0606 365.587 39.9545C365.966 40.8447 366.154 41.9242 366.15 43.1932C366.15 44.4697 365.96 45.5606 365.582 46.4659C365.207 47.3712 364.669 48.0625 363.968 48.5398C363.267 49.017 362.428 49.2557 361.451 49.2557ZM361.451 47.2159C362.118 47.2159 362.65 46.8807 363.048 46.2102C363.445 45.5398 363.642 44.5341 363.638 43.1932C363.638 42.3106 363.548 41.5758 363.366 40.9886C363.188 40.4015 362.934 39.9602 362.604 39.6648C362.279 39.3693 361.894 39.2216 361.451 39.2216C360.788 39.2216 360.258 39.553 359.86 40.2159C359.462 40.8788 359.262 41.8712 359.258 43.1932C359.258 44.0871 359.347 44.8333 359.525 45.4318C359.707 46.0265 359.962 46.4735 360.292 46.7727C360.621 47.0682 361.008 47.2159 361.451 47.2159ZM374.273 46.8182V46.2045C374.273 45.7386 374.372 45.3106 374.569 44.9205C374.77 44.5265 375.059 44.2121 375.438 43.9773C375.821 43.7386 376.287 43.6193 376.836 43.6193C377.393 43.6193 377.861 43.7367 378.239 43.9716C378.622 44.2064 378.91 44.5208 379.103 44.9148C379.3 45.3049 379.398 45.7348 379.398 46.2045V46.8182C379.398 47.2841 379.3 47.714 379.103 48.108C378.906 48.4981 378.616 48.8106 378.234 49.0455C377.851 49.2841 377.385 49.4034 376.836 49.4034C376.279 49.4034 375.811 49.2841 375.433 49.0455C375.054 48.8106 374.766 48.4981 374.569 48.108C374.372 47.714 374.273 47.2841 374.273 46.8182ZM375.927 46.2045V46.8182C375.927 47.0871 375.991 47.3409 376.12 47.5795C376.253 47.8182 376.491 47.9375 376.836 47.9375C377.181 47.9375 377.415 47.8201 377.54 47.5852C377.669 47.3504 377.734 47.0947 377.734 46.8182V46.2045C377.734 45.928 377.673 45.6705 377.552 45.4318C377.431 45.1932 377.192 45.0739 376.836 45.0739C376.495 45.0739 376.258 45.1932 376.126 45.4318C375.993 45.6705 375.927 45.928 375.927 46.2045ZM368.302 40.1591V39.5455C368.302 39.0758 368.402 38.6458 368.603 38.2557C368.804 37.8617 369.094 37.5473 369.472 37.3125C369.855 37.0777 370.317 36.9602 370.859 36.9602C371.419 36.9602 371.889 37.0777 372.268 37.3125C372.647 37.5473 372.934 37.8617 373.131 38.2557C373.328 38.6458 373.427 39.0758 373.427 39.5455V40.1591C373.427 40.6288 373.326 41.0587 373.126 41.4489C372.929 41.839 372.639 42.1515 372.256 42.3864C371.878 42.6174 371.412 42.733 370.859 42.733C370.306 42.733 369.838 42.6155 369.455 42.3807C369.076 42.142 368.789 41.8295 368.592 41.4432C368.398 41.053 368.302 40.625 368.302 40.1591ZM369.967 39.5455V40.1591C369.967 40.4356 370.031 40.6913 370.16 40.9261C370.292 41.161 370.525 41.2784 370.859 41.2784C371.207 41.2784 371.444 41.161 371.569 40.9261C371.698 40.6913 371.762 40.4356 371.762 40.1591V39.5455C371.762 39.2689 371.701 39.0114 371.58 38.7727C371.459 38.5341 371.219 38.4148 370.859 38.4148C370.522 38.4148 370.289 38.536 370.16 38.7784C370.031 39.0208 369.967 39.2765 369.967 39.5455ZM369.052 49L377.052 37.3636H378.54L370.54 49H369.052Z" fill="#32712F"/>
<path d="M19.1136 52V34.5455H25.0114C26.3807 34.5455 27.5 34.7926 28.3693 35.2869C29.2443 35.7756 29.892 36.4375 30.3125 37.2727C30.733 38.108 30.9432 39.0398 30.9432 40.0682C30.9432 41.0966 30.733 42.0312 30.3125 42.8722C29.8977 43.7131 29.2557 44.3835 28.3864 44.8835C27.517 45.3778 26.4034 45.625 25.0455 45.625H20.8182V43.75H24.9773C25.9148 43.75 26.6676 43.5881 27.2358 43.2642C27.804 42.9403 28.2159 42.5028 28.4716 41.9517C28.733 41.3949 28.8636 40.767 28.8636 40.0682C28.8636 39.3693 28.733 38.7443 28.4716 38.1932C28.2159 37.642 27.8011 37.2102 27.2273 36.8977C26.6534 36.5795 25.892 36.4205 24.9432 36.4205H21.2273V52H19.1136ZM34.0753 52V38.9091H36.0185V40.8864H36.1548C36.3935 40.2386 36.8253 39.7131 37.4503 39.3097C38.0753 38.9062 38.7798 38.7045 39.5639 38.7045C39.7116 38.7045 39.8963 38.7074 40.1179 38.7131C40.3395 38.7187 40.5071 38.7273 40.6207 38.7386V40.7841C40.5526 40.767 40.3963 40.7415 40.152 40.7074C39.9134 40.6676 39.6605 40.6477 39.3935 40.6477C38.7571 40.6477 38.1889 40.7812 37.6889 41.0483C37.1946 41.3097 36.8026 41.6733 36.5128 42.1392C36.2287 42.5994 36.0866 43.125 36.0866 43.7159V52H34.0753ZM47.9247 52.2727C46.7429 52.2727 45.706 51.9915 44.8139 51.429C43.9276 50.8665 43.2344 50.0795 42.7344 49.0682C42.2401 48.0568 41.9929 46.875 41.9929 45.5227C41.9929 44.1591 42.2401 42.9687 42.7344 41.9517C43.2344 40.9347 43.9276 40.1449 44.8139 39.5824C45.706 39.0199 46.7429 38.7386 47.9247 38.7386C49.1065 38.7386 50.1406 39.0199 51.027 39.5824C51.919 40.1449 52.6122 40.9347 53.1065 41.9517C53.6065 42.9687 53.8565 44.1591 53.8565 45.5227C53.8565 46.875 53.6065 48.0568 53.1065 49.0682C52.6122 50.0795 51.919 50.8665 51.027 51.429C50.1406 51.9915 49.1065 52.2727 47.9247 52.2727ZM47.9247 50.4659C48.8224 50.4659 49.5611 50.2358 50.1406 49.7756C50.7202 49.3153 51.1491 48.7102 51.4276 47.9602C51.706 47.2102 51.8452 46.3977 51.8452 45.5227C51.8452 44.6477 51.706 43.8324 51.4276 43.0767C51.1491 42.321 50.7202 41.7102 50.1406 41.2443C49.5611 40.7784 48.8224 40.5455 47.9247 40.5455C47.027 40.5455 46.2884 40.7784 45.7088 41.2443C45.1293 41.7102 44.7003 42.321 44.4219 43.0767C44.1435 43.8324 44.0043 44.6477 44.0043 45.5227C44.0043 46.3977 44.1435 47.2102 44.4219 47.9602C44.7003 48.7102 45.1293 49.3153 45.7088 49.7756C46.2884 50.2358 47.027 50.4659 47.9247 50.4659ZM61.87 52.2727C60.7791 52.2727 59.8161 51.9972 58.9808 51.446C58.1456 50.8892 57.4922 50.1051 57.0206 49.0938C56.549 48.0767 56.3132 46.875 56.3132 45.4886C56.3132 44.1136 56.549 42.9205 57.0206 41.9091C57.4922 40.8977 58.1484 40.1165 58.9893 39.5653C59.8303 39.0142 60.8018 38.7386 61.9041 38.7386C62.7564 38.7386 63.4297 38.8807 63.924 39.1648C64.424 39.4432 64.8047 39.7614 65.0661 40.1193C65.3331 40.4716 65.5405 40.7614 65.6882 40.9886H65.8587V34.5455H67.87V52H65.9268V49.9886H65.6882C65.5405 50.2273 65.3303 50.5284 65.0575 50.892C64.7848 51.25 64.3956 51.571 63.8899 51.8551C63.3842 52.1335 62.7109 52.2727 61.87 52.2727ZM62.1428 50.4659C62.9496 50.4659 63.6314 50.2557 64.1882 49.8352C64.745 49.4091 65.1683 48.821 65.4581 48.071C65.7479 47.3153 65.8928 46.4432 65.8928 45.4545C65.8928 44.4773 65.7507 43.6222 65.4666 42.8892C65.1825 42.1506 64.7621 41.5767 64.2053 41.1676C63.6484 40.7528 62.9609 40.5455 62.1428 40.5455C61.2905 40.5455 60.5803 40.7642 60.0121 41.2017C59.4496 41.6335 59.0263 42.2216 58.7422 42.9659C58.4638 43.7045 58.3246 44.5341 58.3246 45.4545C58.3246 46.3864 58.4666 47.233 58.7507 47.9943C59.0405 48.75 59.4666 49.3523 60.0291 49.8011C60.5973 50.2443 61.3018 50.4659 62.1428 50.4659ZM80.0831 46.6477V38.9091H82.0945V52H80.0831V49.7841H79.9467C79.6399 50.4489 79.1626 51.0142 78.5149 51.4801C77.8672 51.9403 77.049 52.1705 76.0604 52.1705C75.2422 52.1705 74.5149 51.9915 73.8786 51.6335C73.2422 51.2699 72.7422 50.7244 72.3786 49.9972C72.0149 49.2642 71.8331 48.3409 71.8331 47.2273V38.9091H73.8445V47.0909C73.8445 48.0455 74.1115 48.8068 74.6456 49.375C75.1854 49.9432 75.8729 50.2273 76.7081 50.2273C77.2081 50.2273 77.7166 50.0994 78.2337 49.8438C78.7564 49.5881 79.1939 49.196 79.5462 48.6676C79.9041 48.1392 80.0831 47.4659 80.0831 46.6477ZM91.0966 52.2727C89.8693 52.2727 88.8125 51.983 87.9261 51.4034C87.0398 50.8239 86.358 50.0256 85.8807 49.0085C85.4034 47.9915 85.1648 46.8295 85.1648 45.5227C85.1648 44.1932 85.4091 43.0199 85.8977 42.0028C86.392 40.9801 87.0795 40.1818 87.9602 39.608C88.8466 39.0284 89.8807 38.7386 91.0625 38.7386C91.983 38.7386 92.8125 38.9091 93.5511 39.25C94.2898 39.5909 94.8949 40.0682 95.3665 40.6818C95.8381 41.2955 96.1307 42.0114 96.2443 42.8295H94.233C94.0795 42.233 93.7386 41.7045 93.2102 41.2443C92.6875 40.7784 91.983 40.5455 91.0966 40.5455C90.3125 40.5455 89.625 40.75 89.0341 41.1591C88.4489 41.5625 87.9915 42.1335 87.6619 42.8722C87.3381 43.6051 87.1761 44.4659 87.1761 45.4545C87.1761 46.4659 87.3352 47.3466 87.6534 48.0966C87.9773 48.8466 88.4318 49.429 89.017 49.8438C89.608 50.2585 90.3011 50.4659 91.0966 50.4659C91.6193 50.4659 92.0938 50.375 92.5199 50.1932C92.946 50.0114 93.3068 49.75 93.6023 49.4091C93.8977 49.0682 94.108 48.6591 94.233 48.1818H96.2443C96.1307 48.9545 95.8494 49.6506 95.4006 50.2699C94.9574 50.8835 94.3693 51.3722 93.6364 51.7358C92.9091 52.0938 92.0625 52.2727 91.0966 52.2727ZM104.878 38.9091V40.6136H98.0938V38.9091H104.878ZM100.071 35.7727H102.082V48.25C102.082 48.8182 102.165 49.2443 102.33 49.5284C102.5 49.8068 102.716 49.9943 102.977 50.0909C103.244 50.1818 103.526 50.2273 103.821 50.2273C104.043 50.2273 104.224 50.2159 104.366 50.1932C104.509 50.1648 104.622 50.142 104.707 50.125L105.116 51.9318C104.98 51.983 104.79 52.0341 104.545 52.0852C104.301 52.142 103.991 52.1705 103.616 52.1705C103.048 52.1705 102.491 52.0483 101.946 51.804C101.406 51.5597 100.957 51.1875 100.599 50.6875C100.247 50.1875 100.071 49.5568 100.071 48.7955V35.7727ZM107.903 52V38.9091H109.915V52H107.903ZM108.926 36.7273C108.534 36.7273 108.196 36.5938 107.912 36.3267C107.634 36.0597 107.494 35.7386 107.494 35.3636C107.494 34.9886 107.634 34.6676 107.912 34.4006C108.196 34.1335 108.534 34 108.926 34C109.318 34 109.653 34.1335 109.932 34.4006C110.216 34.6676 110.358 34.9886 110.358 35.3636C110.358 35.7386 110.216 36.0597 109.932 36.3267C109.653 36.5938 109.318 36.7273 108.926 36.7273ZM124.303 38.9091L119.462 52H117.417L112.576 38.9091H114.758L118.371 49.3409H118.508L122.121 38.9091H124.303ZM126.958 52V38.9091H128.969V52H126.958ZM127.981 36.7273C127.589 36.7273 127.251 36.5938 126.967 36.3267C126.688 36.0597 126.549 35.7386 126.549 35.3636C126.549 34.9886 126.688 34.6676 126.967 34.4006C127.251 34.1335 127.589 34 127.981 34C128.373 34 128.708 34.1335 128.987 34.4006C129.271 34.6676 129.413 34.9886 129.413 35.3636C129.413 35.7386 129.271 36.0597 128.987 36.3267C128.708 36.5938 128.373 36.7273 127.981 36.7273ZM138.347 38.9091V40.6136H131.562V38.9091H138.347ZM133.54 35.7727H135.551V48.25C135.551 48.8182 135.634 49.2443 135.798 49.5284C135.969 49.8068 136.185 49.9943 136.446 50.0909C136.713 50.1818 136.994 50.2273 137.29 50.2273C137.511 50.2273 137.693 50.2159 137.835 50.1932C137.977 50.1648 138.091 50.142 138.176 50.125L138.585 51.9318C138.449 51.983 138.259 52.0341 138.014 52.0852C137.77 52.142 137.46 52.1705 137.085 52.1705C136.517 52.1705 135.96 52.0483 135.415 51.804C134.875 51.5597 134.426 51.1875 134.068 50.6875C133.716 50.1875 133.54 49.5568 133.54 48.7955V35.7727ZM142.668 56.9091C142.327 56.9091 142.023 56.8807 141.756 56.8239C141.489 56.7727 141.304 56.7216 141.202 56.6705L141.713 54.8977C142.202 55.0227 142.634 55.0682 143.009 55.0341C143.384 55 143.716 54.8324 144.006 54.5312C144.301 54.2358 144.571 53.7557 144.815 53.0909L145.19 52.0682L140.349 38.9091H142.531L146.145 49.3409H146.281L149.895 38.9091H152.077L146.52 53.9091C146.27 54.5852 145.96 55.1449 145.591 55.5881C145.222 56.0369 144.793 56.3693 144.304 56.5852C143.821 56.8011 143.276 56.9091 142.668 56.9091Z" fill="#656565"/>
<path d="M26.0085 78.5455V96H22.3182V82.0483H22.2159L18.2188 84.554V81.2812L22.5398 78.5455H26.0085ZM36.4723 78.3068C37.37 78.3068 38.2337 78.4574 39.0632 78.7585C39.8984 79.0597 40.6428 79.5398 41.2962 80.1989C41.9553 80.858 42.4751 81.733 42.8558 82.8239C43.2422 83.9091 43.4382 85.2415 43.4439 86.821C43.4439 88.304 43.2763 89.6278 42.9411 90.7926C42.6115 91.9517 42.1371 92.9375 41.5178 93.75C40.8984 94.5625 40.1513 95.1818 39.2763 95.608C38.4013 96.0284 37.424 96.2386 36.3445 96.2386C35.1797 96.2386 34.1513 96.0142 33.2592 95.5653C32.3672 95.1108 31.6484 94.4943 31.103 93.7159C30.5632 92.9318 30.2365 92.0511 30.1229 91.0739H33.7621C33.9041 91.7102 34.2024 92.2045 34.657 92.5568C35.1115 92.9034 35.674 93.0767 36.3445 93.0767C37.4808 93.0767 38.3445 92.5824 38.9354 91.5938C39.5263 90.5994 39.8246 89.2386 39.8303 87.5114H39.7109C39.4496 88.0227 39.0973 88.4631 38.6541 88.8324C38.2109 89.196 37.7024 89.4773 37.1286 89.6761C36.5604 89.875 35.9553 89.9744 35.3132 89.9744C34.2848 89.9744 33.3672 89.733 32.5604 89.25C31.7536 88.767 31.1172 88.1023 30.6513 87.2557C30.1854 86.4091 29.9524 85.4432 29.9524 84.358C29.9467 83.1875 30.2166 82.1449 30.7621 81.2301C31.3075 80.3153 32.0689 79.5994 33.0462 79.0824C34.0291 78.5597 35.1712 78.3011 36.4723 78.3068ZM36.4979 81.2045C35.924 81.2045 35.4126 81.3409 34.9638 81.6136C34.5206 81.8864 34.1683 82.2528 33.907 82.7131C33.6513 83.1733 33.5263 83.6875 33.532 84.2557C33.532 84.8295 33.657 85.3466 33.907 85.8068C34.1626 86.2614 34.5092 86.625 34.9467 86.8977C35.3899 87.1648 35.8956 87.2983 36.4638 87.2983C36.8899 87.2983 37.2848 87.2187 37.6484 87.0597C38.0121 86.9006 38.3274 86.6818 38.5945 86.4034C38.8672 86.1193 39.0803 85.7926 39.2337 85.4233C39.3871 85.054 39.4638 84.6619 39.4638 84.2472C39.4581 83.696 39.3274 83.1903 39.0717 82.7301C38.8161 82.2699 38.4638 81.9006 38.0149 81.6222C37.5661 81.3437 37.0604 81.2045 36.4979 81.2045ZM52.3757 96.2386C51.1712 96.2386 50.0973 96.017 49.1541 95.5739C48.2166 95.1307 47.4723 94.5199 46.9212 93.7415C46.37 92.9631 46.0831 92.071 46.0604 91.0653H49.6399C49.6797 91.7415 49.9638 92.2898 50.4922 92.7102C51.0206 93.1307 51.6484 93.3409 52.3757 93.3409C52.9553 93.3409 53.4666 93.2131 53.9098 92.9574C54.3587 92.696 54.7081 92.3352 54.9581 91.875C55.2138 91.4091 55.3416 90.875 55.3416 90.2727C55.3416 89.6591 55.2109 89.1193 54.9496 88.6534C54.6939 88.1875 54.3388 87.8239 53.8842 87.5625C53.4297 87.3011 52.9098 87.1676 52.3246 87.1619C51.8132 87.1619 51.3161 87.267 50.8331 87.4773C50.3558 87.6875 49.9837 87.9744 49.7166 88.3381L46.4354 87.75L47.2621 78.5455H57.9325V81.5625H50.3047L49.853 85.9347H49.9553C50.2621 85.5028 50.7251 85.1449 51.3445 84.8608C51.9638 84.5767 52.657 84.4347 53.424 84.4347C54.4751 84.4347 55.4126 84.6818 56.2365 85.1761C57.0604 85.6705 57.7109 86.3494 58.1882 87.2131C58.6655 88.071 58.9013 89.0597 58.8956 90.179C58.9013 91.3551 58.6286 92.4006 58.0774 93.3153C57.532 94.2244 56.7678 94.9403 55.7848 95.4631C54.8075 95.9801 53.6712 96.2386 52.3757 96.2386ZM65.1342 88.4318V96H61.5036V78.5455H65.032V85.2188H65.1854C65.4808 84.446 65.9581 83.8409 66.6172 83.4034C67.2763 82.9602 68.103 82.7386 69.0973 82.7386C70.0064 82.7386 70.799 82.9375 71.4751 83.3352C72.157 83.7273 72.6854 84.2926 73.0604 85.0312C73.4411 85.7642 73.6286 86.642 73.6229 87.6648V96H69.9922V88.3125C69.9979 87.5057 69.7933 86.8778 69.3786 86.429C68.9695 85.9801 68.3956 85.7557 67.657 85.7557C67.1626 85.7557 66.7251 85.8608 66.3445 86.071C65.9695 86.2812 65.674 86.5881 65.4581 86.9915C65.2479 87.3892 65.1399 87.8693 65.1342 88.4318ZM76.4801 96V82.9091H80V85.1932H80.1364C80.375 84.3807 80.7756 83.767 81.3381 83.3523C81.9006 82.9318 82.5483 82.7216 83.2812 82.7216C83.4631 82.7216 83.6591 82.733 83.8693 82.7557C84.0795 82.7784 84.2642 82.8097 84.4233 82.8494V86.071C84.2528 86.0199 84.017 85.9744 83.7159 85.9347C83.4148 85.8949 83.1392 85.875 82.8892 85.875C82.3551 85.875 81.8778 85.9915 81.4574 86.2244C81.0426 86.4517 80.7131 86.7699 80.4688 87.179C80.2301 87.5881 80.1108 88.0597 80.1108 88.5938V96H76.4801ZM97.1925 86.642L93.8686 86.8466C93.8118 86.5625 93.6896 86.3068 93.5021 86.0795C93.3146 85.8466 93.0675 85.6619 92.7607 85.5256C92.4595 85.3835 92.0987 85.3125 91.6783 85.3125C91.1158 85.3125 90.6413 85.4318 90.255 85.6705C89.8686 85.9034 89.6754 86.2159 89.6754 86.608C89.6754 86.9205 89.8004 87.1847 90.0504 87.4006C90.3004 87.6165 90.7294 87.7898 91.3374 87.9205L93.7067 88.3977C94.9794 88.6591 95.9283 89.0795 96.5533 89.6591C97.1783 90.2386 97.4908 91 97.4908 91.9432C97.4908 92.8011 97.2379 93.554 96.7322 94.2017C96.2322 94.8494 95.5447 95.3551 94.6697 95.7188C93.8004 96.0767 92.7976 96.2557 91.6612 96.2557C89.9283 96.2557 88.5476 95.8949 87.5192 95.1733C86.4964 94.446 85.897 93.4574 85.7209 92.2074L89.2919 92.0199C89.3999 92.5483 89.6612 92.9517 90.076 93.2301C90.4908 93.5028 91.022 93.6392 91.6697 93.6392C92.3061 93.6392 92.8175 93.517 93.2038 93.2727C93.5959 93.0227 93.7947 92.7017 93.8004 92.3097C93.7947 91.9801 93.6555 91.7102 93.3828 91.5C93.1101 91.2841 92.6896 91.1193 92.1214 91.0057L89.8544 90.554C88.576 90.2983 87.6243 89.8551 86.9993 89.2244C86.38 88.5937 86.0703 87.7898 86.0703 86.8125C86.0703 85.9716 86.2976 85.2472 86.7521 84.6392C87.2124 84.0312 87.8572 83.5625 88.6868 83.233C89.522 82.9034 90.4993 82.7386 91.6186 82.7386C93.272 82.7386 94.5732 83.0881 95.522 83.7869C96.4766 84.4858 97.0334 85.4375 97.1925 86.642Z" fill="black"/>
<path d="M201.307 180.136C200.886 180.136 200.526 179.986 200.224 179.685C199.923 179.384 199.773 179.023 199.773 178.602C199.773 178.182 199.923 177.821 200.224 177.52C200.526 177.219 200.886 177.068 201.307 177.068C201.727 177.068 202.088 177.219 202.389 177.52C202.69 177.821 202.841 178.182 202.841 178.602C202.841 178.881 202.77 179.136 202.628 179.369C202.491 179.602 202.307 179.79 202.074 179.932C201.847 180.068 201.591 180.136 201.307 180.136ZM207.916 180.136C207.496 180.136 207.135 179.986 206.834 179.685C206.533 179.384 206.382 179.023 206.382 178.602C206.382 178.182 206.533 177.821 206.834 177.52C207.135 177.219 207.496 177.068 207.916 177.068C208.337 177.068 208.697 177.219 208.999 177.52C209.3 177.821 209.45 178.182 209.45 178.602C209.45 178.881 209.379 179.136 209.237 179.369C209.101 179.602 208.916 179.79 208.683 179.932C208.456 180.068 208.2 180.136 207.916 180.136ZM214.526 180.136C214.105 180.136 213.744 179.986 213.443 179.685C213.142 179.384 212.991 179.023 212.991 178.602C212.991 178.182 213.142 177.821 213.443 177.52C213.744 177.219 214.105 177.068 214.526 177.068C214.946 177.068 215.307 177.219 215.608 177.52C215.909 177.821 216.06 178.182 216.06 178.602C216.06 178.881 215.989 179.136 215.847 179.369C215.71 179.602 215.526 179.79 215.293 179.932C215.065 180.068 214.81 180.136 214.526 180.136Z" fill="#656565"/>
</svg>
