<svg width="415" height="200" viewBox="0 0 415 200" fill="none" xmlns="http://www.w3.org/2000/svg">
<rect width="415" height="200" rx="16" fill="#ECECEC"/>
<path d="M12.1136 52V34.5455H18.0114C19.375 34.5455 20.4943 34.7784 21.3693 35.2443C22.2443 35.7045 22.892 36.3381 23.3125 37.1449C23.733 37.9517 23.9432 38.8693 23.9432 39.8977C23.9432 40.9261 23.733 41.8381 23.3125 42.6335C22.892 43.429 22.2472 44.054 21.3778 44.5085C20.5085 44.9574 19.3977 45.1818 18.0455 45.1818H13.2727V43.2727H17.9773C18.9091 43.2727 19.6591 43.1364 20.2273 42.8636C20.8011 42.5909 21.2159 42.2045 21.4716 41.7045C21.733 41.1989 21.8636 40.5966 21.8636 39.8977C21.8636 39.1989 21.733 38.5881 21.4716 38.0653C21.2102 37.5426 20.7926 37.1392 20.2188 36.8551C19.6449 36.5653 18.8864 36.4205 17.9432 36.4205H14.2273V52H12.1136ZM20.3295 44.1591L24.625 52H22.1705L17.9432 44.1591H20.3295ZM35.4425 46.6477V38.9091H37.4538V52H35.4425V49.7841H35.3061C34.9993 50.4489 34.522 51.0142 33.8743 51.4801C33.2266 51.9403 32.4084 52.1705 31.4197 52.1705C30.6016 52.1705 29.8743 51.9915 29.2379 51.6335C28.6016 51.2699 28.1016 50.7244 27.7379 49.9972C27.3743 49.2642 27.1925 48.3409 27.1925 47.2273V38.9091H29.2038V47.0909C29.2038 48.0455 29.4709 48.8068 30.005 49.375C30.5447 49.9432 31.2322 50.2273 32.0675 50.2273C32.5675 50.2273 33.076 50.0994 33.593 49.8438C34.1158 49.5881 34.5533 49.196 34.9055 48.6676C35.2635 48.1392 35.4425 47.4659 35.4425 46.6477ZM43.1491 44.125V52H41.1378V38.9091H43.081V40.9545H43.2514C43.5582 40.2898 44.0241 39.7557 44.6491 39.3523C45.2741 38.9432 46.081 38.7386 47.0696 38.7386C47.956 38.7386 48.7315 38.9205 49.3963 39.2841C50.0611 39.642 50.5781 40.1875 50.9474 40.9205C51.3168 41.6477 51.5014 42.5682 51.5014 43.6818V52H49.4901V43.8182C49.4901 42.7898 49.223 41.9886 48.6889 41.4148C48.1548 40.8352 47.4219 40.5455 46.4901 40.5455C45.848 40.5455 45.2741 40.6847 44.7685 40.9631C44.2685 41.2415 43.8736 41.6477 43.5838 42.1818C43.294 42.7159 43.1491 43.3636 43.1491 44.125ZM61.245 36.4205V34.5455H74.3359V36.4205H68.8473V52H66.7337V36.4205H61.245ZM77.3253 52V38.9091H79.3366V52H77.3253ZM78.348 36.7273C77.956 36.7273 77.6179 36.5938 77.3338 36.3267C77.0554 36.0597 76.9162 35.7386 76.9162 35.3636C76.9162 34.9886 77.0554 34.6676 77.3338 34.4006C77.6179 34.1335 77.956 34 78.348 34C78.7401 34 79.0753 34.1335 79.3537 34.4006C79.6378 34.6676 79.7798 34.9886 79.7798 35.3636C79.7798 35.7386 79.6378 36.0597 79.3537 36.3267C79.0753 36.5938 78.7401 36.7273 78.348 36.7273ZM83.0206 52V38.9091H84.9638V40.9545H85.1342C85.407 40.2557 85.8473 39.7131 86.4553 39.3267C87.0632 38.9347 87.7933 38.7386 88.6456 38.7386C89.5092 38.7386 90.228 38.9347 90.8018 39.3267C91.3814 39.7131 91.8331 40.2557 92.157 40.9545H92.2933C92.6286 40.2784 93.1314 39.7415 93.8018 39.3438C94.4723 38.9403 95.2763 38.7386 96.2138 38.7386C97.3842 38.7386 98.3416 39.1051 99.0859 39.8381C99.8303 40.5653 100.202 41.6989 100.202 43.2386V52H98.1911V43.2386C98.1911 42.2727 97.9268 41.5824 97.3984 41.1676C96.87 40.7528 96.2479 40.5455 95.532 40.5455C94.6115 40.5455 93.8984 40.8239 93.3928 41.3807C92.8871 41.9318 92.6342 42.6307 92.6342 43.4773V52H90.5888V43.0341C90.5888 42.2898 90.3473 41.6903 89.8643 41.2358C89.3814 40.7756 88.7592 40.5455 87.9979 40.5455C87.4751 40.5455 86.9865 40.6847 86.532 40.9631C86.0831 41.2415 85.7195 41.6278 85.4411 42.1222C85.1683 42.6108 85.032 43.1761 85.032 43.8182V52H83.0206ZM109.369 52.2727C108.107 52.2727 107.019 51.9943 106.104 51.4375C105.195 50.875 104.494 50.0909 103.999 49.0852C103.511 48.0739 103.266 46.8977 103.266 45.5568C103.266 44.2159 103.511 43.0341 103.999 42.0114C104.494 40.983 105.181 40.1818 106.062 39.608C106.948 39.0284 107.982 38.7386 109.164 38.7386C109.846 38.7386 110.519 38.8523 111.184 39.0795C111.849 39.3068 112.454 39.6761 112.999 40.1875C113.545 40.6932 113.979 41.3636 114.303 42.1989C114.627 43.0341 114.789 44.0625 114.789 45.2841V46.1364H104.698V44.3977H112.744C112.744 43.6591 112.596 43 112.3 42.4205C112.011 41.8409 111.596 41.3835 111.056 41.0483C110.522 40.7131 109.891 40.5455 109.164 40.5455C108.363 40.5455 107.67 40.7443 107.085 41.142C106.505 41.5341 106.059 42.0455 105.746 42.6761C105.434 43.3068 105.278 43.983 105.278 44.7045V45.8636C105.278 46.8523 105.448 47.6903 105.789 48.3778C106.136 49.0597 106.616 49.5795 107.229 49.9375C107.843 50.2898 108.556 50.4659 109.369 50.4659C109.897 50.4659 110.374 50.392 110.8 50.2443C111.232 50.0909 111.604 49.8636 111.917 49.5625C112.229 49.2557 112.471 48.875 112.641 48.4205L114.585 48.9659C114.38 49.625 114.036 50.2045 113.553 50.7045C113.07 51.1989 112.474 51.5852 111.763 51.8636C111.053 52.1364 110.255 52.2727 109.369 52.2727Z" fill="#656565"/>
<path d="M201.307 180.136C200.886 180.136 200.526 179.986 200.224 179.685C199.923 179.384 199.773 179.023 199.773 178.602C199.773 178.182 199.923 177.821 200.224 177.52C200.526 177.219 200.886 177.068 201.307 177.068C201.727 177.068 202.088 177.219 202.389 177.52C202.69 177.821 202.841 178.182 202.841 178.602C202.841 178.881 202.77 179.136 202.628 179.369C202.491 179.602 202.307 179.79 202.074 179.932C201.847 180.068 201.591 180.136 201.307 180.136ZM207.916 180.136C207.496 180.136 207.135 179.986 206.834 179.685C206.533 179.384 206.382 179.023 206.382 178.602C206.382 178.182 206.533 177.821 206.834 177.52C207.135 177.219 207.496 177.068 207.916 177.068C208.337 177.068 208.697 177.219 208.999 177.52C209.3 177.821 209.45 178.182 209.45 178.602C209.45 178.881 209.379 179.136 209.237 179.369C209.101 179.602 208.916 179.79 208.683 179.932C208.456 180.068 208.2 180.136 207.916 180.136ZM214.526 180.136C214.105 180.136 213.744 179.986 213.443 179.685C213.142 179.384 212.991 179.023 212.991 178.602C212.991 178.182 213.142 177.821 213.443 177.52C213.744 177.219 214.105 177.068 214.526 177.068C214.946 177.068 215.307 177.219 215.608 177.52C215.909 177.821 216.06 178.182 216.06 178.602C216.06 178.881 215.989 179.136 215.847 179.369C215.71 179.602 215.526 179.79 215.293 179.932C215.065 180.068 214.81 180.136 214.526 180.136Z" fill="#7B7B7B"/>
<rect x="330" y="25" width="73" height="35" rx="10" fill="#BEFFD3"/>
<path d="M350.014 46.5597V40.0227H351.667V46.5597H350.014ZM347.572 44.1175V42.4648H354.109V44.1175H347.572ZM362.528 48.1293C361.839 48.1293 361.225 48.0108 360.686 47.7738C360.151 47.5337 359.727 47.2044 359.417 46.7859C359.109 46.3642 358.95 45.878 358.941 45.3271H360.954C360.966 45.5579 361.042 45.761 361.18 45.9364C361.322 46.1088 361.509 46.2427 361.743 46.3381C361.977 46.4335 362.24 46.4812 362.533 46.4812C362.837 46.4812 363.107 46.4273 363.341 46.3196C363.575 46.2119 363.758 46.0626 363.89 45.8718C364.022 45.681 364.088 45.4609 364.088 45.2116C364.088 44.9593 364.018 44.7362 363.876 44.5423C363.738 44.3453 363.538 44.1914 363.276 44.0806C363.017 43.9698 362.71 43.9144 362.353 43.9144H361.471V42.4464H362.353C362.654 42.4464 362.92 42.3941 363.151 42.2894C363.385 42.1848 363.567 42.0401 363.696 41.8555C363.825 41.6677 363.89 41.4492 363.89 41.1999C363.89 40.9629 363.833 40.7552 363.719 40.5767C363.608 40.3951 363.451 40.2536 363.248 40.152C363.048 40.0504 362.814 39.9996 362.547 39.9996C362.276 39.9996 362.028 40.0489 361.803 40.1474C361.579 40.2428 361.399 40.3797 361.263 40.5582C361.128 40.7367 361.055 40.946 361.046 41.1861H359.13C359.14 40.6413 359.295 40.1612 359.597 39.7457C359.898 39.3303 360.304 39.0056 360.815 38.7717C361.329 38.5347 361.909 38.4162 362.556 38.4162C363.208 38.4162 363.779 38.5347 364.269 38.7717C364.758 39.0086 365.138 39.3287 365.409 39.7319C365.683 40.132 365.818 40.5813 365.815 41.0799C365.818 41.6093 365.653 42.0509 365.321 42.4048C364.992 42.7588 364.562 42.9834 364.033 43.0788V43.1527C364.729 43.242 365.258 43.4835 365.621 43.8775C365.987 44.2683 366.169 44.7577 366.166 45.3455C366.169 45.8841 366.014 46.3627 365.7 46.7812C365.389 47.1998 364.959 47.5291 364.412 47.7692C363.864 48.0092 363.236 48.1293 362.528 48.1293ZM371.097 48.1293C370.408 48.1293 369.794 48.0108 369.255 47.7738C368.72 47.5337 368.297 47.2044 367.986 46.7859C367.678 46.3642 367.52 45.878 367.51 45.3271H369.523C369.536 45.5579 369.611 45.761 369.749 45.9364C369.891 46.1088 370.079 46.2427 370.313 46.3381C370.547 46.4335 370.81 46.4812 371.102 46.4812C371.407 46.4812 371.676 46.4273 371.91 46.3196C372.144 46.2119 372.327 46.0626 372.459 45.8718C372.592 45.681 372.658 45.4609 372.658 45.2116C372.658 44.9593 372.587 44.7362 372.445 44.5423C372.307 44.3453 372.107 44.1914 371.845 44.0806C371.587 43.9698 371.279 43.9144 370.922 43.9144H370.04V42.4464H370.922C371.224 42.4464 371.49 42.3941 371.721 42.2894C371.955 42.1848 372.136 42.0401 372.265 41.8555C372.395 41.6677 372.459 41.4492 372.459 41.1999C372.459 40.9629 372.402 40.7552 372.288 40.5767C372.178 40.3951 372.021 40.2536 371.818 40.152C371.618 40.0504 371.384 39.9996 371.116 39.9996C370.845 39.9996 370.597 40.0489 370.373 40.1474C370.148 40.2428 369.968 40.3797 369.833 40.5582C369.697 40.7367 369.625 40.946 369.616 41.1861H367.7C367.709 40.6413 367.864 40.1612 368.166 39.7457C368.468 39.3303 368.874 39.0056 369.385 38.7717C369.899 38.5347 370.479 38.4162 371.125 38.4162C371.778 38.4162 372.348 38.5347 372.838 38.7717C373.327 39.0086 373.707 39.3287 373.978 39.7319C374.252 40.132 374.387 40.5813 374.384 41.0799C374.387 41.6093 374.223 42.0509 373.89 42.4048C373.561 42.7588 373.132 42.9834 372.602 43.0788V43.1527C373.298 43.242 373.827 43.4835 374.19 43.8775C374.557 44.2683 374.738 44.7577 374.735 45.3455C374.738 45.8841 374.583 46.3627 374.269 46.7812C373.958 47.1998 373.529 47.5291 372.981 47.7692C372.433 48.0092 371.805 48.1293 371.097 48.1293ZM381.347 46.2273V45.7287C381.347 45.3501 381.427 45.0024 381.587 44.6854C381.75 44.3653 381.986 44.1098 382.294 43.919C382.604 43.7251 382.983 43.6282 383.429 43.6282C383.882 43.6282 384.262 43.7236 384.569 43.9144C384.88 44.1052 385.114 44.3607 385.271 44.6808C385.431 44.9978 385.511 45.3471 385.511 45.7287V46.2273C385.511 46.6058 385.431 46.9551 385.271 47.2752C385.111 47.5922 384.876 47.8461 384.565 48.0369C384.254 48.2308 383.875 48.3278 383.429 48.3278C382.977 48.3278 382.597 48.2308 382.289 48.0369C381.981 47.8461 381.747 47.5922 381.587 47.2752C381.427 46.9551 381.347 46.6058 381.347 46.2273ZM382.691 45.7287V46.2273C382.691 46.4458 382.743 46.652 382.848 46.8459C382.955 47.0398 383.149 47.1367 383.429 47.1367C383.709 47.1367 383.9 47.0413 384.002 46.8505C384.106 46.6597 384.159 46.4519 384.159 46.2273V45.7287C384.159 45.504 384.109 45.2947 384.011 45.1009C383.912 44.907 383.718 44.81 383.429 44.81C383.152 44.81 382.96 44.907 382.852 45.1009C382.744 45.2947 382.691 45.504 382.691 45.7287ZM376.495 40.8168V40.3182C376.495 39.9366 376.577 39.5872 376.74 39.2702C376.903 38.9502 377.138 38.6947 377.446 38.5039C377.757 38.3131 378.133 38.2177 378.573 38.2177C379.028 38.2177 379.41 38.3131 379.718 38.5039C380.025 38.6947 380.259 38.9502 380.419 39.2702C380.579 39.5872 380.659 39.9366 380.659 40.3182V40.8168C380.659 41.1984 380.578 41.5477 380.415 41.8647C380.255 42.1817 380.019 42.4356 379.708 42.6264C379.401 42.8142 379.022 42.908 378.573 42.908C378.123 42.908 377.743 42.8126 377.432 42.6218C377.125 42.4279 376.891 42.174 376.731 41.8601C376.574 41.5431 376.495 41.1953 376.495 40.8168ZM377.848 40.3182V40.8168C377.848 41.0414 377.9 41.2492 378.005 41.44C378.113 41.6308 378.302 41.7262 378.573 41.7262C378.856 41.7262 379.048 41.6308 379.15 41.44C379.254 41.2492 379.307 41.0414 379.307 40.8168V40.3182C379.307 40.0935 379.257 39.8842 379.159 39.6903C379.06 39.4964 378.865 39.3995 378.573 39.3995C378.299 39.3995 378.109 39.498 378.005 39.695C377.9 39.8919 377.848 40.0997 377.848 40.3182ZM377.105 48L383.605 38.5455H384.814L378.314 48H377.105Z" fill="#32712F"/>
<path d="M18.0934 76.3068C18.9911 76.3068 19.8548 76.4574 20.6843 76.7585C21.5195 77.0597 22.2638 77.5398 22.9173 78.1989C23.5763 78.858 24.0962 79.733 24.4769 80.8239C24.8633 81.9091 25.0593 83.2415 25.065 84.821C25.065 86.304 24.8974 87.6278 24.5621 88.7926C24.2326 89.9517 23.7582 90.9375 23.1389 91.75C22.5195 92.5625 21.7724 93.1818 20.8974 93.608C20.0224 94.0284 19.0451 94.2386 17.9656 94.2386C16.8008 94.2386 15.7724 94.0142 14.8803 93.5653C13.9883 93.1108 13.2695 92.4943 12.7241 91.7159C12.1843 90.9318 11.8576 90.0511 11.744 89.0739H15.3832C15.5252 89.7102 15.8235 90.2045 16.2781 90.5568C16.7326 90.9034 17.2951 91.0767 17.9656 91.0767C19.1019 91.0767 19.9656 90.5824 20.5565 89.5938C21.1474 88.5994 21.4457 87.2386 21.4513 85.5114H21.332C21.0707 86.0227 20.7184 86.4631 20.2752 86.8324C19.832 87.196 19.3235 87.4773 18.7496 87.6761C18.1815 87.875 17.5763 87.9744 16.9343 87.9744C15.9059 87.9744 14.9883 87.733 14.1815 87.25C13.3746 86.767 12.7383 86.1023 12.2724 85.2557C11.8065 84.4091 11.5735 83.4432 11.5735 82.358C11.5678 81.1875 11.8377 80.1449 12.3832 79.2301C12.9286 78.3153 13.69 77.5994 14.6673 77.0824C15.6502 76.5597 16.7923 76.3011 18.0934 76.3068ZM18.119 79.2045C17.5451 79.2045 17.0337 79.3409 16.5849 79.6136C16.1417 79.8864 15.7894 80.2528 15.5281 80.7131C15.2724 81.1733 15.1474 81.6875 15.1531 82.2557C15.1531 82.8295 15.2781 83.3466 15.5281 83.8068C15.7837 84.2614 16.1303 84.625 16.5678 84.8977C17.011 85.1648 17.5167 85.2983 18.0849 85.2983C18.511 85.2983 18.9059 85.2187 19.2695 85.0597C19.6332 84.9006 19.9485 84.6818 20.2156 84.4034C20.4883 84.1193 20.7013 83.7926 20.8548 83.4233C21.0082 83.054 21.0849 82.6619 21.0849 82.2472C21.0792 81.696 20.9485 81.1903 20.6928 80.7301C20.4371 80.2699 20.0849 79.9006 19.636 79.6222C19.1871 79.3437 18.6815 79.2045 18.119 79.2045ZM27.8434 94L35.0792 79.6818V79.5625H26.6502V76.5455H38.8974V79.6051L31.6531 94H27.8434ZM50.9805 90.7273V89.8068C50.9805 89.108 51.1282 88.4659 51.4237 87.8807C51.7248 87.2898 52.1594 86.8182 52.7276 86.4659C53.3015 86.108 54.0004 85.929 54.8242 85.929C55.6594 85.929 56.3612 86.1051 56.9293 86.4574C57.5032 86.8097 57.935 87.2812 58.2248 87.8722C58.5202 88.4574 58.668 89.1023 58.668 89.8068V90.7273C58.668 91.4261 58.5202 92.071 58.2248 92.6619C57.9293 93.2472 57.4947 93.7159 56.9208 94.0682C56.3469 94.4261 55.6481 94.6051 54.8242 94.6051C53.989 94.6051 53.2873 94.4261 52.7191 94.0682C52.1509 93.7159 51.7191 93.2472 51.4237 92.6619C51.1282 92.071 50.9805 91.4261 50.9805 90.7273ZM53.4606 89.8068V90.7273C53.4606 91.1307 53.5572 91.5114 53.7504 91.8693C53.9492 92.2273 54.3072 92.4062 54.8242 92.4062C55.3413 92.4062 55.6935 92.2301 55.881 91.8778C56.0742 91.5256 56.1708 91.142 56.1708 90.7273V89.8068C56.1708 89.392 56.0799 89.0057 55.8981 88.6477C55.7163 88.2898 55.3583 88.1108 54.8242 88.1108C54.3129 88.1108 53.9577 88.2898 53.7589 88.6477C53.56 89.0057 53.4606 89.392 53.4606 89.8068ZM42.0231 80.7386V79.8182C42.0231 79.1136 42.1737 78.4687 42.4748 77.8835C42.7759 77.2926 43.2106 76.821 43.7788 76.4688C44.3526 76.1165 45.0458 75.9403 45.8583 75.9403C46.6992 75.9403 47.4038 76.1165 47.9719 76.4688C48.5401 76.821 48.9719 77.2926 49.2674 77.8835C49.5629 78.4687 49.7106 79.1136 49.7106 79.8182V80.7386C49.7106 81.4432 49.56 82.0881 49.2589 82.6733C48.9634 83.2585 48.5288 83.7273 47.9549 84.0795C47.3867 84.4261 46.6879 84.5994 45.8583 84.5994C45.0288 84.5994 44.3271 84.4233 43.7532 84.071C43.185 83.7131 42.7532 83.2443 42.4577 82.6648C42.168 82.0795 42.0231 81.4375 42.0231 80.7386ZM44.5202 79.8182V80.7386C44.5202 81.1534 44.6168 81.5369 44.81 81.8892C45.0089 82.2415 45.3583 82.4176 45.8583 82.4176C46.381 82.4176 46.7362 82.2415 46.9237 81.8892C47.1168 81.5369 47.2134 81.1534 47.2134 80.7386V79.8182C47.2134 79.4034 47.1225 79.017 46.9407 78.6591C46.7589 78.3011 46.3981 78.1222 45.8583 78.1222C45.3526 78.1222 45.0032 78.304 44.81 78.6676C44.6168 79.0312 44.5202 79.4148 44.5202 79.8182ZM43.1481 94L55.1481 76.5455H57.381L45.381 94H43.1481Z" fill="black"/>
</svg>
