<svg width="260" height="200" viewBox="0 0 260 200" fill="none" xmlns="http://www.w3.org/2000/svg">
<rect width="260" height="200" rx="16" fill="#ECECEC"/>
<path d="M19.517 42V24.5455H26.4034C27.7216 24.5455 28.8466 24.7812 29.7784 25.2528C30.7159 25.7187 31.429 26.3807 31.9176 27.2386C32.4119 28.0909 32.6591 29.0937 32.6591 30.2472C32.6591 31.4062 32.4091 32.4034 31.9091 33.2386C31.4091 34.0682 30.6847 34.7045 29.7358 35.1477C28.7926 35.5909 27.6506 35.8125 26.3097 35.8125H21.6989V32.8466H25.7131C26.4176 32.8466 27.0028 32.75 27.4688 32.5568C27.9347 32.3636 28.2813 32.0739 28.5085 31.6875C28.7415 31.3011 28.858 30.821 28.858 30.2472C28.858 29.6676 28.7415 29.179 28.5085 28.7812C28.2813 28.3835 27.9318 28.0824 27.4602 27.8778C26.9943 27.6676 26.4063 27.5625 25.696 27.5625H23.2074V42H19.517ZM28.9432 34.0568L33.2812 42H29.2074L24.9631 34.0568H28.9432ZM43.5938 36.4261V28.9091H47.2244V42H43.7386V39.6222H43.6023C43.3068 40.3892 42.8153 41.0057 42.1278 41.4716C41.446 41.9375 40.6136 42.1705 39.6307 42.1705C38.7557 42.1705 37.9858 41.9716 37.321 41.5739C36.6563 41.1761 36.1364 40.6108 35.7614 39.8778C35.392 39.1449 35.2045 38.267 35.1989 37.2443V28.9091H38.8295V36.5966C38.8352 37.3693 39.0426 37.9801 39.4517 38.429C39.8608 38.8778 40.4091 39.1023 41.0966 39.1023C41.5341 39.1023 41.9432 39.0028 42.3239 38.804C42.7045 38.5994 43.0114 38.2983 43.2443 37.9006C43.483 37.5028 43.5994 37.0114 43.5938 36.4261ZM53.7592 34.4318V42H50.1286V28.9091H53.5888V31.2188H53.7422C54.032 30.4574 54.5178 29.8551 55.1996 29.4119C55.8814 28.9631 56.7081 28.7386 57.6797 28.7386C58.5888 28.7386 59.3814 28.9375 60.0575 29.3352C60.7337 29.733 61.2592 30.3011 61.6342 31.0398C62.0092 31.7727 62.1967 32.6477 62.1967 33.6648V42H58.5661V34.3125C58.5717 33.5114 58.3672 32.8864 57.9524 32.4375C57.5376 31.983 56.9666 31.7557 56.2393 31.7557C55.7507 31.7557 55.3189 31.8608 54.9439 32.071C54.5746 32.2812 54.2848 32.5881 54.0746 32.9915C53.87 33.3892 53.7649 33.8693 53.7592 34.4318ZM70.0163 27.5881V24.5455H84.3516V27.5881H79.0078V42H75.3601V27.5881H70.0163ZM86.6442 42V28.9091H90.2749V42H86.6442ZM88.468 27.2216C87.9283 27.2216 87.4652 27.0426 87.0788 26.6847C86.6982 26.321 86.5078 25.8864 86.5078 25.3807C86.5078 24.8807 86.6982 24.4517 87.0788 24.0938C87.4652 23.7301 87.9283 23.5483 88.468 23.5483C89.0078 23.5483 89.468 23.7301 89.8487 24.0938C90.2351 24.4517 90.4283 24.8807 90.4283 25.3807C90.4283 25.8864 90.2351 26.321 89.8487 26.6847C89.468 27.0426 89.0078 27.2216 88.468 27.2216ZM93.1832 42V28.9091H96.6435V31.2188H96.7969C97.0696 30.4517 97.5241 29.8466 98.1605 29.4034C98.7969 28.9602 99.5582 28.7386 100.445 28.7386C101.342 28.7386 102.107 28.9631 102.737 29.4119C103.368 29.8551 103.788 30.4574 103.999 31.2188H104.135C104.402 30.4688 104.885 29.8693 105.584 29.4205C106.288 28.9659 107.121 28.7386 108.081 28.7386C109.303 28.7386 110.294 29.1278 111.055 29.9062C111.822 30.679 112.206 31.7756 112.206 33.196V42H108.584V33.9119C108.584 33.1847 108.391 32.6392 108.004 32.2756C107.618 31.9119 107.135 31.7301 106.555 31.7301C105.896 31.7301 105.382 31.9403 105.013 32.3608C104.643 32.7756 104.459 33.3239 104.459 34.0057V42H100.939V33.8352C100.939 33.1932 100.754 32.6818 100.385 32.3011C100.021 31.9205 99.5412 31.7301 98.9446 31.7301C98.5412 31.7301 98.1776 31.8324 97.8537 32.0369C97.5355 32.2358 97.2827 32.517 97.0952 32.8807C96.9077 33.2386 96.8139 33.6591 96.8139 34.142V42H93.1832ZM121.04 42.2557C119.693 42.2557 118.534 41.983 117.562 41.4375C116.597 40.8864 115.852 40.108 115.33 39.1023C114.807 38.0909 114.545 36.8949 114.545 35.5142C114.545 34.1676 114.807 32.9858 115.33 31.9688C115.852 30.9517 116.588 30.1591 117.537 29.5909C118.491 29.0227 119.611 28.7386 120.895 28.7386C121.759 28.7386 122.563 28.8778 123.307 29.1562C124.057 29.429 124.71 29.8409 125.267 30.392C125.83 30.9432 126.267 31.6364 126.58 32.4716C126.892 33.3011 127.048 34.2727 127.048 35.3864V36.3835H115.994V34.1335H123.631C123.631 33.6108 123.517 33.1477 123.29 32.7443C123.063 32.3409 122.747 32.0256 122.344 31.7983C121.946 31.5653 121.483 31.4489 120.955 31.4489C120.403 31.4489 119.915 31.5767 119.489 31.8324C119.068 32.0824 118.739 32.4205 118.5 32.8466C118.261 33.267 118.139 33.7358 118.134 34.2528V36.392C118.134 37.0398 118.253 37.5994 118.491 38.071C118.736 38.5426 119.08 38.9062 119.523 39.1619C119.966 39.4176 120.491 39.5455 121.099 39.5455C121.503 39.5455 121.872 39.4886 122.207 39.375C122.543 39.2614 122.83 39.0909 123.068 38.8636C123.307 38.6364 123.489 38.358 123.614 38.0284L126.972 38.25C126.801 39.0568 126.452 39.7614 125.923 40.3636C125.401 40.9602 124.724 41.4261 123.895 41.7614C123.071 42.0909 122.119 42.2557 121.04 42.2557Z" fill="#656565"/>
<rect x="36" y="135" width="188" height="35" rx="16" fill="#BEFFD3"/>
<path d="M132.914 60.5421C132.133 59.7611 130.867 59.7611 130.086 60.5421L117.358 73.27C116.577 74.0511 116.577 75.3174 117.358 76.0985C118.139 76.8795 119.405 76.8795 120.186 76.0985L131.5 64.7848L142.814 76.0985C143.595 76.8795 144.861 76.8795 145.642 76.0985C146.423 75.3174 146.423 74.0511 145.642 73.27L132.914 60.5421ZM131.5 113.044H133.5V61.9563H131.5H129.5V113.044H131.5Z" fill="#4BBA47"/>
<path d="M81.8537 159.159C81.0052 159.159 80.2495 159.013 79.5866 158.722C78.9276 158.426 78.4067 158.021 78.0241 157.506C77.6454 156.987 77.4503 156.388 77.4389 155.71H79.9162C79.9313 155.994 80.0241 156.244 80.1946 156.46C80.3688 156.672 80.5999 156.837 80.8878 156.955C81.1757 157.072 81.4995 157.131 81.8594 157.131C82.2344 157.131 82.5658 157.064 82.8537 156.932C83.1416 156.799 83.367 156.616 83.5298 156.381C83.6927 156.146 83.7741 155.875 83.7741 155.568C83.7741 155.258 83.687 154.983 83.5128 154.744C83.3423 154.502 83.0961 154.312 82.7741 154.176C82.456 154.04 82.0772 153.972 81.6378 153.972H80.5526V152.165H81.6378C82.009 152.165 82.3366 152.1 82.6207 151.972C82.9086 151.843 83.1321 151.665 83.2912 151.438C83.4503 151.206 83.5298 150.938 83.5298 150.631C83.5298 150.339 83.4598 150.083 83.3196 149.864C83.1832 149.64 82.9901 149.466 82.7401 149.341C82.4938 149.216 82.206 149.153 81.8764 149.153C81.5431 149.153 81.2382 149.214 80.9616 149.335C80.6851 149.453 80.4635 149.621 80.2969 149.841C80.1302 150.061 80.0412 150.318 80.0298 150.614H77.6719C77.6832 149.943 77.8745 149.352 78.2457 148.841C78.617 148.33 79.117 147.93 79.7457 147.642C80.3783 147.35 81.0923 147.205 81.8878 147.205C82.6908 147.205 83.3935 147.35 83.9957 147.642C84.598 147.934 85.0658 148.328 85.3991 148.824C85.7363 149.316 85.9029 149.869 85.8991 150.483C85.9029 151.134 85.7003 151.678 85.2912 152.114C84.8859 152.549 84.3575 152.826 83.706 152.943V153.034C84.562 153.144 85.2135 153.441 85.6605 153.926C86.1113 154.407 86.3348 155.009 86.331 155.733C86.3348 156.396 86.1435 156.985 85.7571 157.5C85.3745 158.015 84.8461 158.42 84.1719 158.716C83.4976 159.011 82.7249 159.159 81.8537 159.159ZM92.4006 159.159C91.5521 159.159 90.7964 159.013 90.1335 158.722C89.4744 158.426 88.9536 158.021 88.571 157.506C88.1922 156.987 87.9972 156.388 87.9858 155.71H90.4631C90.4782 155.994 90.571 156.244 90.7415 156.46C90.9157 156.672 91.1468 156.837 91.4347 156.955C91.7225 157.072 92.0464 157.131 92.4062 157.131C92.7812 157.131 93.1127 157.064 93.4006 156.932C93.6884 156.799 93.9138 156.616 94.0767 156.381C94.2396 156.146 94.321 155.875 94.321 155.568C94.321 155.258 94.2339 154.983 94.0597 154.744C93.8892 154.502 93.643 154.312 93.321 154.176C93.0028 154.04 92.6241 153.972 92.1847 153.972H91.0994V152.165H92.1847C92.5559 152.165 92.8835 152.1 93.1676 151.972C93.4555 151.843 93.679 151.665 93.8381 151.438C93.9972 151.206 94.0767 150.938 94.0767 150.631C94.0767 150.339 94.0066 150.083 93.8665 149.864C93.7301 149.64 93.5369 149.466 93.2869 149.341C93.0407 149.216 92.7528 149.153 92.4233 149.153C92.09 149.153 91.785 149.214 91.5085 149.335C91.232 149.453 91.0104 149.621 90.8438 149.841C90.6771 150.061 90.5881 150.318 90.5767 150.614H88.2188C88.2301 149.943 88.4214 149.352 88.7926 148.841C89.1638 148.33 89.6638 147.93 90.2926 147.642C90.9252 147.35 91.6392 147.205 92.4347 147.205C93.2377 147.205 93.9403 147.35 94.5426 147.642C95.1449 147.934 95.6127 148.328 95.946 148.824C96.2831 149.316 96.4498 149.869 96.446 150.483C96.4498 151.134 96.2472 151.678 95.8381 152.114C95.4328 152.549 94.9044 152.826 94.2528 152.943V153.034C95.1089 153.144 95.7604 153.441 96.2074 153.926C96.6581 154.407 96.8816 155.009 96.8778 155.733C96.8816 156.396 96.6903 156.985 96.304 157.5C95.9214 158.015 95.393 158.42 94.7188 158.716C94.0445 159.011 93.2718 159.159 92.4006 159.159ZM105.016 156.818V156.205C105.016 155.739 105.114 155.311 105.311 154.92C105.512 154.527 105.802 154.212 106.18 153.977C106.563 153.739 107.029 153.619 107.578 153.619C108.135 153.619 108.603 153.737 108.982 153.972C109.364 154.206 109.652 154.521 109.845 154.915C110.042 155.305 110.141 155.735 110.141 156.205V156.818C110.141 157.284 110.042 157.714 109.845 158.108C109.648 158.498 109.358 158.811 108.976 159.045C108.593 159.284 108.127 159.403 107.578 159.403C107.021 159.403 106.554 159.284 106.175 159.045C105.796 158.811 105.508 158.498 105.311 158.108C105.114 157.714 105.016 157.284 105.016 156.818ZM106.669 156.205V156.818C106.669 157.087 106.733 157.341 106.862 157.58C106.995 157.818 107.233 157.938 107.578 157.938C107.923 157.938 108.158 157.82 108.283 157.585C108.411 157.35 108.476 157.095 108.476 156.818V156.205C108.476 155.928 108.415 155.67 108.294 155.432C108.173 155.193 107.934 155.074 107.578 155.074C107.237 155.074 107 155.193 106.868 155.432C106.735 155.67 106.669 155.928 106.669 156.205ZM99.044 150.159V149.545C99.044 149.076 99.1444 148.646 99.3452 148.256C99.5459 147.862 99.8357 147.547 100.214 147.312C100.597 147.078 101.059 146.96 101.601 146.96C102.161 146.96 102.631 147.078 103.01 147.312C103.389 147.547 103.677 147.862 103.874 148.256C104.071 148.646 104.169 149.076 104.169 149.545V150.159C104.169 150.629 104.069 151.059 103.868 151.449C103.671 151.839 103.381 152.152 102.999 152.386C102.62 152.617 102.154 152.733 101.601 152.733C101.048 152.733 100.58 152.616 100.197 152.381C99.8187 152.142 99.5308 151.83 99.3338 151.443C99.1406 151.053 99.044 150.625 99.044 150.159ZM100.709 149.545V150.159C100.709 150.436 100.773 150.691 100.902 150.926C101.035 151.161 101.268 151.278 101.601 151.278C101.949 151.278 102.186 151.161 102.311 150.926C102.44 150.691 102.504 150.436 102.504 150.159V149.545C102.504 149.269 102.444 149.011 102.322 148.773C102.201 148.534 101.961 148.415 101.601 148.415C101.264 148.415 101.031 148.536 100.902 148.778C100.773 149.021 100.709 149.277 100.709 149.545ZM99.794 159L107.794 147.364H109.283L101.283 159H99.794ZM116.122 159V150.273H118.543V159H116.122ZM117.338 149.148C116.978 149.148 116.67 149.028 116.412 148.79C116.158 148.547 116.031 148.258 116.031 147.92C116.031 147.587 116.158 147.301 116.412 147.062C116.67 146.82 116.978 146.699 117.338 146.699C117.698 146.699 118.005 146.82 118.259 147.062C118.516 147.301 118.645 147.587 118.645 147.92C118.645 148.258 118.516 148.547 118.259 148.79C118.005 149.028 117.698 149.148 117.338 149.148ZM122.902 153.955V159H120.482V150.273H122.788V151.812H122.891C123.084 151.305 123.408 150.903 123.862 150.608C124.317 150.309 124.868 150.159 125.516 150.159C126.122 150.159 126.65 150.292 127.101 150.557C127.552 150.822 127.902 151.201 128.152 151.693C128.402 152.182 128.527 152.765 128.527 153.443V159H126.107V153.875C126.11 153.341 125.974 152.924 125.697 152.625C125.421 152.322 125.04 152.17 124.555 152.17C124.23 152.17 123.942 152.241 123.692 152.381C123.446 152.521 123.252 152.725 123.112 152.994C122.976 153.259 122.906 153.58 122.902 153.955ZM134.378 159.17C133.484 159.17 132.715 158.981 132.071 158.602C131.431 158.22 130.938 157.689 130.594 157.011C130.253 156.333 130.082 155.553 130.082 154.67C130.082 153.777 130.255 152.992 130.599 152.318C130.948 151.64 131.442 151.112 132.082 150.733C132.723 150.35 133.484 150.159 134.366 150.159C135.128 150.159 135.795 150.297 136.366 150.574C136.938 150.85 137.391 151.239 137.724 151.739C138.058 152.239 138.241 152.826 138.276 153.5H135.991C135.927 153.064 135.757 152.714 135.48 152.449C135.207 152.18 134.849 152.045 134.406 152.045C134.031 152.045 133.704 152.148 133.423 152.352C133.147 152.553 132.931 152.847 132.776 153.233C132.62 153.619 132.543 154.087 132.543 154.636C132.543 155.193 132.618 155.667 132.77 156.057C132.925 156.447 133.143 156.744 133.423 156.949C133.704 157.153 134.031 157.256 134.406 157.256C134.683 157.256 134.931 157.199 135.151 157.085C135.374 156.972 135.558 156.807 135.702 156.591C135.849 156.371 135.946 156.108 135.991 155.801H138.276C138.238 156.468 138.056 157.055 137.73 157.562C137.408 158.066 136.963 158.46 136.395 158.744C135.827 159.028 135.154 159.17 134.378 159.17ZM139.825 159V150.273H142.172V151.795H142.263C142.422 151.254 142.689 150.845 143.064 150.568C143.439 150.288 143.871 150.148 144.359 150.148C144.481 150.148 144.611 150.155 144.751 150.17C144.892 150.186 145.015 150.206 145.121 150.233V152.381C145.007 152.347 144.85 152.316 144.649 152.29C144.448 152.263 144.265 152.25 144.098 152.25C143.742 152.25 143.424 152.328 143.143 152.483C142.867 152.634 142.647 152.847 142.484 153.119C142.325 153.392 142.246 153.706 142.246 154.062V159H139.825ZM149.943 159.17C149.045 159.17 148.273 158.989 147.625 158.625C146.981 158.258 146.485 157.739 146.136 157.068C145.788 156.394 145.614 155.597 145.614 154.676C145.614 153.778 145.788 152.991 146.136 152.312C146.485 151.634 146.975 151.106 147.608 150.727C148.244 150.348 148.991 150.159 149.847 150.159C150.422 150.159 150.958 150.252 151.455 150.438C151.955 150.619 152.39 150.894 152.761 151.261C153.136 151.629 153.428 152.091 153.636 152.648C153.845 153.201 153.949 153.848 153.949 154.591V155.256H146.58V153.756H151.67C151.67 153.407 151.595 153.098 151.443 152.83C151.292 152.561 151.081 152.35 150.812 152.199C150.547 152.044 150.239 151.966 149.886 151.966C149.519 151.966 149.193 152.051 148.909 152.222C148.629 152.388 148.409 152.614 148.25 152.898C148.091 153.178 148.009 153.491 148.006 153.835V155.261C148.006 155.693 148.085 156.066 148.244 156.381C148.407 156.695 148.636 156.938 148.932 157.108C149.227 157.278 149.578 157.364 149.983 157.364C150.252 157.364 150.498 157.326 150.722 157.25C150.945 157.174 151.136 157.061 151.295 156.909C151.455 156.758 151.576 156.572 151.659 156.352L153.898 156.5C153.784 157.038 153.551 157.508 153.199 157.909C152.85 158.307 152.4 158.617 151.847 158.841C151.297 159.061 150.663 159.17 149.943 159.17ZM158.017 159.165C157.46 159.165 156.964 159.068 156.528 158.875C156.093 158.678 155.748 158.388 155.494 158.006C155.244 157.619 155.119 157.138 155.119 156.562C155.119 156.078 155.208 155.67 155.386 155.341C155.564 155.011 155.807 154.746 156.114 154.545C156.42 154.345 156.769 154.193 157.159 154.091C157.553 153.989 157.966 153.917 158.398 153.875C158.905 153.822 159.314 153.773 159.625 153.727C159.936 153.678 160.161 153.606 160.301 153.511C160.441 153.417 160.511 153.277 160.511 153.091V153.057C160.511 152.697 160.398 152.419 160.17 152.222C159.947 152.025 159.629 151.926 159.216 151.926C158.78 151.926 158.434 152.023 158.176 152.216C157.919 152.405 157.748 152.644 157.665 152.932L155.426 152.75C155.54 152.22 155.763 151.761 156.097 151.375C156.43 150.985 156.86 150.686 157.386 150.477C157.917 150.265 158.53 150.159 159.227 150.159C159.712 150.159 160.176 150.216 160.619 150.33C161.066 150.443 161.462 150.619 161.807 150.858C162.155 151.097 162.43 151.403 162.631 151.778C162.831 152.15 162.932 152.595 162.932 153.114V159H160.636V157.79H160.568C160.428 158.062 160.241 158.303 160.006 158.511C159.771 158.716 159.489 158.877 159.159 158.994C158.83 159.108 158.449 159.165 158.017 159.165ZM158.71 157.494C159.066 157.494 159.381 157.424 159.653 157.284C159.926 157.14 160.14 156.947 160.295 156.705C160.451 156.462 160.528 156.187 160.528 155.881V154.955C160.453 155.004 160.348 155.049 160.216 155.091C160.087 155.129 159.941 155.165 159.778 155.199C159.616 155.229 159.453 155.258 159.29 155.284C159.127 155.307 158.979 155.328 158.847 155.347C158.563 155.388 158.314 155.455 158.102 155.545C157.89 155.636 157.725 155.759 157.608 155.915C157.491 156.066 157.432 156.256 157.432 156.483C157.432 156.812 157.551 157.064 157.79 157.239C158.032 157.409 158.339 157.494 158.71 157.494ZM172.071 152.761L169.855 152.898C169.817 152.708 169.736 152.538 169.611 152.386C169.486 152.231 169.321 152.108 169.116 152.017C168.916 151.922 168.675 151.875 168.395 151.875C168.02 151.875 167.704 151.955 167.446 152.114C167.188 152.269 167.06 152.477 167.06 152.739C167.06 152.947 167.143 153.123 167.31 153.267C167.476 153.411 167.762 153.527 168.168 153.614L169.747 153.932C170.596 154.106 171.228 154.386 171.645 154.773C172.062 155.159 172.27 155.667 172.27 156.295C172.27 156.867 172.101 157.369 171.764 157.801C171.431 158.233 170.973 158.57 170.389 158.812C169.81 159.051 169.141 159.17 168.384 159.17C167.228 159.17 166.308 158.93 165.622 158.449C164.94 157.964 164.541 157.305 164.423 156.472L166.804 156.347C166.876 156.699 167.05 156.968 167.327 157.153C167.603 157.335 167.957 157.426 168.389 157.426C168.813 157.426 169.154 157.345 169.412 157.182C169.673 157.015 169.806 156.801 169.81 156.54C169.806 156.32 169.713 156.14 169.531 156C169.349 155.856 169.069 155.746 168.69 155.67L167.179 155.369C166.327 155.199 165.692 154.903 165.276 154.483C164.863 154.062 164.656 153.527 164.656 152.875C164.656 152.314 164.808 151.831 165.111 151.426C165.418 151.021 165.848 150.708 166.401 150.489C166.957 150.269 167.609 150.159 168.355 150.159C169.457 150.159 170.325 150.392 170.957 150.858C171.594 151.324 171.965 151.958 172.071 152.761ZM177.771 159.17C176.874 159.17 176.101 158.989 175.453 158.625C174.809 158.258 174.313 157.739 173.964 157.068C173.616 156.394 173.442 155.597 173.442 154.676C173.442 153.778 173.616 152.991 173.964 152.312C174.313 151.634 174.804 151.106 175.436 150.727C176.072 150.348 176.819 150.159 177.675 150.159C178.25 150.159 178.786 150.252 179.283 150.438C179.783 150.619 180.218 150.894 180.589 151.261C180.964 151.629 181.256 152.091 181.464 152.648C181.673 153.201 181.777 153.848 181.777 154.591V155.256H174.408V153.756H179.499C179.499 153.407 179.423 153.098 179.271 152.83C179.12 152.561 178.91 152.35 178.641 152.199C178.375 152.044 178.067 151.966 177.714 151.966C177.347 151.966 177.021 152.051 176.737 152.222C176.457 152.388 176.237 152.614 176.078 152.898C175.919 153.178 175.838 153.491 175.834 153.835V155.261C175.834 155.693 175.913 156.066 176.072 156.381C176.235 156.695 176.464 156.938 176.76 157.108C177.055 157.278 177.406 157.364 177.811 157.364C178.08 157.364 178.326 157.326 178.55 157.25C178.773 157.174 178.964 157.061 179.124 156.909C179.283 156.758 179.404 156.572 179.487 156.352L181.726 156.5C181.612 157.038 181.379 157.508 181.027 157.909C180.679 158.307 180.228 158.617 179.675 158.841C179.125 159.061 178.491 159.17 177.771 159.17Z" fill="#4BBA47"/>
</svg>
