<svg width="321" height="200" viewBox="0 0 321 200" fill="none" xmlns="http://www.w3.org/2000/svg">
<rect width="321" height="200" rx="16" fill="#ECECEC"/>
<rect x="135" y="35" width="54" height="54" rx="8" fill="#B1D6F3"/>
<path d="M141.836 60.4811C140.482 59.2521 141.351 57 143.18 57H180.82C182.649 57 183.518 59.2521 182.164 60.4811L178.816 63.5189C177.941 64.3126 177.941 65.6874 178.816 66.4811L182.164 69.5189C183.518 70.7479 182.649 73 180.82 73H143.18C141.351 73 140.482 70.7479 141.836 69.5189L145.184 66.4811C146.059 65.6874 146.059 64.3126 145.184 63.5189L141.836 60.4811Z" fill="#2D90DC"/>
<path d="M161 63H163V67H161V63Z" fill="#70B9F2"/>
<path d="M161 68H163V72H161V68Z" fill="#70B9F2"/>
<path d="M161 58H163V62H161V58Z" fill="#70B9F2"/>
<path d="M100.304 108.091C100.219 107.371 99.8729 106.812 99.2669 106.415C98.6608 106.017 97.9174 105.818 97.0368 105.818C96.3928 105.818 95.8294 105.922 95.3464 106.131C94.8682 106.339 94.4941 106.625 94.2243 106.99C93.9591 107.355 93.8265 107.769 93.8265 108.233C93.8265 108.621 93.9189 108.955 94.1035 109.234C94.2929 109.509 94.5344 109.739 94.8279 109.923C95.1215 110.103 95.4293 110.252 95.7512 110.371C96.0732 110.484 96.3691 110.577 96.639 110.648L98.1163 111.045C98.4951 111.145 98.9165 111.282 99.3805 111.457C99.8493 111.633 100.297 111.872 100.723 112.175C101.154 112.473 101.509 112.857 101.788 113.325C102.068 113.794 102.207 114.369 102.207 115.051C102.207 115.837 102.001 116.547 101.589 117.182C101.182 117.816 100.586 118.321 99.7995 118.695C99.0183 119.069 98.069 119.256 96.9515 119.256C95.9099 119.256 95.0079 119.088 94.2456 118.751C93.488 118.415 92.8914 117.946 92.4558 117.345C92.0249 116.744 91.7811 116.045 91.7243 115.25H93.5424C93.5898 115.799 93.7744 116.254 94.0964 116.614C94.4231 116.969 94.835 117.234 95.3322 117.409C95.8341 117.58 96.3739 117.665 96.9515 117.665C97.6239 117.665 98.2276 117.556 98.7626 117.338C99.2976 117.116 99.7214 116.808 100.034 116.415C100.346 116.017 100.503 115.553 100.503 115.023C100.503 114.54 100.368 114.147 100.098 113.844C99.8279 113.541 99.4728 113.295 99.0325 113.105C98.5922 112.916 98.1163 112.75 97.6049 112.608L95.8152 112.097C94.6788 111.77 93.7792 111.304 93.1163 110.697C92.4534 110.091 92.122 109.298 92.122 108.318C92.122 107.504 92.3422 106.794 92.7825 106.188C93.2276 105.577 93.8242 105.103 94.5723 104.767C95.3251 104.426 96.1655 104.256 97.0936 104.256C98.0311 104.256 98.8644 104.424 99.5936 104.76C100.323 105.091 100.9 105.546 101.327 106.124C101.757 106.701 101.985 107.357 102.008 108.091H100.304ZM109.45 119.227C108.399 119.227 107.492 118.995 106.73 118.531C105.972 118.062 105.387 117.409 104.975 116.571C104.568 115.728 104.365 114.748 104.365 113.631C104.365 112.513 104.568 111.528 104.975 110.676C105.387 109.819 105.96 109.152 106.694 108.673C107.433 108.19 108.294 107.949 109.279 107.949C109.847 107.949 110.409 108.044 110.963 108.233C111.517 108.422 112.021 108.73 112.475 109.156C112.93 109.578 113.292 110.136 113.562 110.832C113.832 111.528 113.967 112.385 113.967 113.403V114.114H105.558V112.665H112.262C112.262 112.049 112.139 111.5 111.893 111.017C111.651 110.534 111.306 110.153 110.856 109.874C110.411 109.594 109.885 109.455 109.279 109.455C108.612 109.455 108.034 109.62 107.546 109.952C107.063 110.278 106.692 110.705 106.431 111.23C106.171 111.756 106.041 112.319 106.041 112.92V113.886C106.041 114.71 106.183 115.409 106.467 115.982C106.756 116.55 107.156 116.983 107.667 117.281C108.178 117.575 108.773 117.722 109.45 117.722C109.89 117.722 110.288 117.66 110.643 117.537C111.003 117.409 111.313 117.22 111.573 116.969C111.834 116.713 112.035 116.396 112.177 116.017L113.796 116.472C113.626 117.021 113.339 117.504 112.937 117.92C112.535 118.332 112.037 118.654 111.445 118.886C110.854 119.114 110.188 119.227 109.45 119.227ZM116.517 119V108.091H118.136V109.739H118.249C118.448 109.199 118.808 108.761 119.329 108.425C119.85 108.089 120.437 107.92 121.09 107.92C121.213 107.92 121.367 107.923 121.552 107.928C121.737 107.932 121.876 107.939 121.971 107.949V109.653C121.914 109.639 121.784 109.618 121.58 109.589C121.382 109.556 121.171 109.54 120.948 109.54C120.418 109.54 119.945 109.651 119.528 109.874C119.116 110.091 118.789 110.394 118.548 110.783C118.311 111.166 118.193 111.604 118.193 112.097V119H116.517ZM133.21 108.091L129.176 119H127.472L123.438 108.091H125.256L128.267 116.784H128.381L131.392 108.091H133.21ZM135.423 119V108.091H137.099V119H135.423ZM136.275 106.273C135.948 106.273 135.667 106.161 135.43 105.939C135.198 105.716 135.082 105.449 135.082 105.136C135.082 104.824 135.198 104.556 135.43 104.334C135.667 104.111 135.948 104 136.275 104C136.602 104 136.881 104.111 137.113 104.334C137.35 104.556 137.468 104.824 137.468 105.136C137.468 105.449 137.35 105.716 137.113 105.939C136.881 106.161 136.602 106.273 136.275 106.273ZM144.601 119.227C143.578 119.227 142.697 118.986 141.959 118.503C141.22 118.02 140.652 117.355 140.254 116.507C139.856 115.66 139.657 114.691 139.657 113.602C139.657 112.494 139.861 111.517 140.268 110.669C140.68 109.817 141.253 109.152 141.987 108.673C142.726 108.19 143.587 107.949 144.572 107.949C145.339 107.949 146.031 108.091 146.646 108.375C147.262 108.659 147.766 109.057 148.159 109.568C148.552 110.08 148.796 110.676 148.89 111.358H147.214C147.086 110.861 146.802 110.42 146.362 110.037C145.926 109.649 145.339 109.455 144.601 109.455C143.947 109.455 143.374 109.625 142.882 109.966C142.394 110.302 142.013 110.778 141.738 111.393C141.469 112.004 141.334 112.722 141.334 113.545C141.334 114.388 141.466 115.122 141.731 115.747C142.001 116.372 142.38 116.857 142.868 117.203C143.36 117.549 143.938 117.722 144.601 117.722C145.036 117.722 145.432 117.646 145.787 117.494C146.142 117.343 146.443 117.125 146.689 116.841C146.935 116.557 147.11 116.216 147.214 115.818H148.89C148.796 116.462 148.561 117.042 148.187 117.558C147.818 118.07 147.328 118.477 146.717 118.78C146.111 119.078 145.406 119.227 144.601 119.227ZM155.915 119.227C154.863 119.227 153.957 118.995 153.194 118.531C152.437 118.062 151.852 117.409 151.44 116.571C151.033 115.728 150.829 114.748 150.829 113.631C150.829 112.513 151.033 111.528 151.44 110.676C151.852 109.819 152.425 109.152 153.159 108.673C153.898 108.19 154.759 107.949 155.744 107.949C156.312 107.949 156.873 108.044 157.427 108.233C157.981 108.422 158.486 108.73 158.94 109.156C159.395 109.578 159.757 110.136 160.027 110.832C160.297 111.528 160.432 112.385 160.432 113.403V114.114H152.023V112.665H158.727C158.727 112.049 158.604 111.5 158.358 111.017C158.116 110.534 157.771 110.153 157.321 109.874C156.876 109.594 156.35 109.455 155.744 109.455C155.077 109.455 154.499 109.62 154.011 109.952C153.528 110.278 153.157 110.705 152.896 111.23C152.636 111.756 152.506 112.319 152.506 112.92V113.886C152.506 114.71 152.648 115.409 152.932 115.982C153.22 116.55 153.621 116.983 154.132 117.281C154.643 117.575 155.238 117.722 155.915 117.722C156.355 117.722 156.753 117.66 157.108 117.537C157.468 117.409 157.778 117.22 158.038 116.969C158.299 116.713 158.5 116.396 158.642 116.017L160.261 116.472C160.091 117.021 159.804 117.504 159.402 117.92C158.999 118.332 158.502 118.654 157.91 118.886C157.318 119.114 156.653 119.227 155.915 119.227ZM168.038 106.017V104.455H178.947V106.017H174.373V119H172.612V106.017H168.038ZM181.438 119V108.091H183.115V119H181.438ZM182.291 106.273C181.964 106.273 181.682 106.161 181.445 105.939C181.213 105.716 181.097 105.449 181.097 105.136C181.097 104.824 181.213 104.556 181.445 104.334C181.682 104.111 181.964 104 182.291 104C182.617 104 182.897 104.111 183.129 104.334C183.365 104.556 183.484 104.824 183.484 105.136C183.484 105.449 183.365 105.716 183.129 105.939C182.897 106.161 182.617 106.273 182.291 106.273ZM190.616 119.227C189.594 119.227 188.713 118.986 187.974 118.503C187.236 118.02 186.667 117.355 186.27 116.507C185.872 115.66 185.673 114.691 185.673 113.602C185.673 112.494 185.877 111.517 186.284 110.669C186.696 109.817 187.269 109.152 188.003 108.673C188.741 108.19 189.603 107.949 190.588 107.949C191.355 107.949 192.046 108.091 192.662 108.375C193.277 108.659 193.782 109.057 194.175 109.568C194.568 110.08 194.811 110.676 194.906 111.358H193.23C193.102 110.861 192.818 110.42 192.378 110.037C191.942 109.649 191.355 109.455 190.616 109.455C189.963 109.455 189.39 109.625 188.898 109.966C188.41 110.302 188.029 110.778 187.754 111.393C187.484 112.004 187.349 112.722 187.349 113.545C187.349 114.388 187.482 115.122 187.747 115.747C188.017 116.372 188.396 116.857 188.883 117.203C189.376 117.549 189.953 117.722 190.616 117.722C191.052 117.722 191.447 117.646 191.802 117.494C192.157 117.343 192.458 117.125 192.704 116.841C192.951 116.557 193.126 116.216 193.23 115.818H194.906C194.811 116.462 194.577 117.042 194.203 117.558C193.834 118.07 193.344 118.477 192.733 118.78C192.127 119.078 191.421 119.227 190.616 119.227ZM198.919 115.023L198.89 112.949H199.231L204.004 108.091H206.078L200.993 113.233H200.851L198.919 115.023ZM197.356 119V104.455H199.032V119H197.356ZM204.288 119L200.027 113.602L201.22 112.438L206.419 119H204.288ZM212.36 119.227C211.309 119.227 210.402 118.995 209.64 118.531C208.882 118.062 208.297 117.409 207.885 116.571C207.478 115.728 207.275 114.748 207.275 113.631C207.275 112.513 207.478 111.528 207.885 110.676C208.297 109.819 208.87 109.152 209.604 108.673C210.343 108.19 211.205 107.949 212.189 107.949C212.758 107.949 213.319 108.044 213.873 108.233C214.427 108.422 214.931 108.73 215.385 109.156C215.84 109.578 216.202 110.136 216.472 110.832C216.742 111.528 216.877 112.385 216.877 113.403V114.114H208.468V112.665H215.172C215.172 112.049 215.049 111.5 214.803 111.017C214.562 110.534 214.216 110.153 213.766 109.874C213.321 109.594 212.796 109.455 212.189 109.455C211.522 109.455 210.944 109.62 210.456 109.952C209.974 110.278 209.602 110.705 209.341 111.23C209.081 111.756 208.951 112.319 208.951 112.92V113.886C208.951 114.71 209.093 115.409 209.377 115.982C209.666 116.55 210.066 116.983 210.577 117.281C211.089 117.575 211.683 117.722 212.36 117.722C212.8 117.722 213.198 117.66 213.553 117.537C213.913 117.409 214.223 117.22 214.483 116.969C214.744 116.713 214.945 116.396 215.087 116.017L216.706 116.472C216.536 117.021 216.25 117.504 215.847 117.92C215.445 118.332 214.948 118.654 214.356 118.886C213.764 119.114 213.099 119.227 212.36 119.227ZM224.171 108.091V109.511H218.518V108.091H224.171ZM220.165 105.477H221.841V115.875C221.841 116.348 221.91 116.704 222.047 116.94C222.189 117.172 222.369 117.329 222.587 117.409C222.81 117.485 223.044 117.523 223.29 117.523C223.475 117.523 223.626 117.513 223.745 117.494C223.863 117.471 223.958 117.452 224.029 117.438L224.37 118.943C224.256 118.986 224.098 119.028 223.894 119.071C223.69 119.118 223.432 119.142 223.12 119.142C222.646 119.142 222.182 119.04 221.728 118.837C221.278 118.633 220.904 118.323 220.606 117.906C220.312 117.49 220.165 116.964 220.165 116.33V105.477ZM234.224 110.534L232.719 110.96C232.624 110.709 232.484 110.465 232.3 110.229C232.12 109.987 231.873 109.788 231.561 109.632C231.248 109.476 230.848 109.398 230.361 109.398C229.693 109.398 229.137 109.552 228.692 109.859C228.251 110.162 228.031 110.548 228.031 111.017C228.031 111.434 228.183 111.763 228.486 112.004C228.789 112.246 229.262 112.447 229.906 112.608L231.525 113.006C232.501 113.242 233.228 113.605 233.706 114.092C234.184 114.575 234.423 115.198 234.423 115.96C234.423 116.585 234.243 117.144 233.883 117.636C233.528 118.129 233.031 118.517 232.392 118.801C231.753 119.085 231.009 119.227 230.162 119.227C229.049 119.227 228.128 118.986 227.399 118.503C226.67 118.02 226.208 117.314 226.014 116.386L227.605 115.989C227.756 116.576 228.043 117.016 228.464 117.31C228.89 117.603 229.447 117.75 230.133 117.75C230.915 117.75 231.535 117.584 231.994 117.253C232.458 116.917 232.69 116.514 232.69 116.045C232.69 115.667 232.558 115.349 232.292 115.094C232.027 114.833 231.62 114.639 231.071 114.511L229.253 114.085C228.254 113.848 227.52 113.482 227.051 112.984C226.587 112.482 226.355 111.855 226.355 111.102C226.355 110.487 226.528 109.942 226.873 109.469C227.224 108.995 227.7 108.624 228.301 108.354C228.907 108.084 229.594 107.949 230.361 107.949C231.44 107.949 232.288 108.186 232.903 108.659C233.523 109.133 233.964 109.758 234.224 110.534Z" fill="#727272"/>
<path d="M90.1506 143.932V141.026L97.4375 129.545H99.9432V133.568H98.4602L93.8665 140.838V140.974H104.222V143.932H90.1506ZM98.5284 147V143.045L98.5966 141.759V129.545H102.057V147H98.5284Z" fill="black"/>
<path d="M90.4148 165H89.3068L92.5114 156.273H93.6023L96.8068 165H95.6989L93.0909 157.653H93.0227L90.4148 165ZM90.8239 161.591H95.2898V162.528H90.8239V161.591ZM100.689 165.136C100.075 165.136 99.5469 164.991 99.1037 164.702C98.6605 164.412 98.3196 164.013 98.081 163.504C97.8423 162.996 97.723 162.415 97.723 161.761C97.723 161.097 97.8452 160.51 98.0895 160.001C98.3366 159.49 98.6804 159.091 99.1207 158.804C99.5639 158.514 100.081 158.369 100.672 158.369C101.132 158.369 101.547 158.455 101.916 158.625C102.286 158.795 102.588 159.034 102.824 159.341C103.06 159.648 103.206 160.006 103.263 160.415H102.257C102.18 160.116 102.01 159.852 101.746 159.622C101.484 159.389 101.132 159.273 100.689 159.273C100.297 159.273 99.9531 159.375 99.6577 159.58C99.3651 159.781 99.1364 160.067 98.9716 160.436C98.8097 160.803 98.7287 161.233 98.7287 161.727C98.7287 162.233 98.8082 162.673 98.9673 163.048C99.1293 163.423 99.3565 163.714 99.6491 163.922C99.9446 164.129 100.291 164.233 100.689 164.233C100.95 164.233 101.188 164.188 101.401 164.097C101.614 164.006 101.794 163.875 101.942 163.705C102.089 163.534 102.195 163.33 102.257 163.091H103.263C103.206 163.477 103.065 163.825 102.841 164.135C102.619 164.442 102.325 164.686 101.959 164.868C101.595 165.047 101.172 165.136 100.689 165.136ZM107.58 158.455V159.307H104.188V158.455H107.58ZM105.176 156.886H106.182V163.125C106.182 163.409 106.223 163.622 106.305 163.764C106.391 163.903 106.499 163.997 106.629 164.045C106.763 164.091 106.903 164.114 107.051 164.114C107.162 164.114 107.253 164.108 107.324 164.097C107.395 164.082 107.452 164.071 107.494 164.062L107.699 164.966C107.631 164.991 107.536 165.017 107.413 165.043C107.291 165.071 107.136 165.085 106.949 165.085C106.665 165.085 106.386 165.024 106.114 164.902C105.844 164.78 105.619 164.594 105.44 164.344C105.264 164.094 105.176 163.778 105.176 163.398V156.886ZM109.092 165V158.455H110.098V165H109.092ZM109.604 157.364C109.408 157.364 109.239 157.297 109.097 157.163C108.957 157.03 108.888 156.869 108.888 156.682C108.888 156.494 108.957 156.334 109.097 156.2C109.239 156.067 109.408 156 109.604 156C109.8 156 109.967 156.067 110.107 156.2C110.249 156.334 110.32 156.494 110.32 156.682C110.32 156.869 110.249 157.03 110.107 157.163C109.967 157.297 109.8 157.364 109.604 157.364ZM117.292 158.455L114.872 165H113.849L111.429 158.455H112.52L114.326 163.67H114.395L116.201 158.455H117.292ZM121.13 165.136C120.499 165.136 119.955 164.997 119.498 164.719C119.043 164.438 118.692 164.045 118.445 163.543C118.201 163.037 118.078 162.449 118.078 161.778C118.078 161.108 118.201 160.517 118.445 160.006C118.692 159.491 119.036 159.091 119.476 158.804C119.919 158.514 120.436 158.369 121.027 158.369C121.368 158.369 121.705 158.426 122.037 158.54C122.37 158.653 122.672 158.838 122.945 159.094C123.218 159.347 123.435 159.682 123.597 160.099C123.759 160.517 123.84 161.031 123.84 161.642V162.068H118.794V161.199H122.817C122.817 160.83 122.743 160.5 122.596 160.21C122.451 159.92 122.243 159.692 121.973 159.524C121.706 159.357 121.391 159.273 121.027 159.273C120.627 159.273 120.28 159.372 119.988 159.571C119.698 159.767 119.475 160.023 119.319 160.338C119.162 160.653 119.084 160.991 119.084 161.352V161.932C119.084 162.426 119.169 162.845 119.34 163.189C119.513 163.53 119.753 163.79 120.06 163.969C120.367 164.145 120.723 164.233 121.13 164.233C121.394 164.233 121.632 164.196 121.846 164.122C122.061 164.045 122.248 163.932 122.404 163.781C122.56 163.628 122.681 163.437 122.766 163.21L123.738 163.483C123.635 163.812 123.463 164.102 123.222 164.352C122.98 164.599 122.682 164.793 122.327 164.932C121.972 165.068 121.573 165.136 121.13 165.136ZM128.404 157.21V156.273H134.949V157.21H132.205V165H131.148V157.21H128.404ZM136.444 165V158.455H137.45V165H136.444ZM136.955 157.364C136.759 157.364 136.59 157.297 136.448 157.163C136.309 157.03 136.239 156.869 136.239 156.682C136.239 156.494 136.309 156.334 136.448 156.2C136.59 156.067 136.759 156 136.955 156C137.151 156 137.319 156.067 137.458 156.2C137.6 156.334 137.671 156.494 137.671 156.682C137.671 156.869 137.6 157.03 137.458 157.163C137.319 157.297 137.151 157.364 136.955 157.364ZM141.951 165.136C141.337 165.136 140.809 164.991 140.365 164.702C139.922 164.412 139.581 164.013 139.343 163.504C139.104 162.996 138.985 162.415 138.985 161.761C138.985 161.097 139.107 160.51 139.351 160.001C139.598 159.49 139.942 159.091 140.382 158.804C140.826 158.514 141.343 158.369 141.934 158.369C142.394 158.369 142.809 158.455 143.178 158.625C143.547 158.795 143.85 159.034 144.086 159.341C144.321 159.648 144.468 160.006 144.525 160.415H143.519C143.442 160.116 143.272 159.852 143.007 159.622C142.746 159.389 142.394 159.273 141.951 159.273C141.559 159.273 141.215 159.375 140.919 159.58C140.627 159.781 140.398 160.067 140.233 160.436C140.071 160.803 139.99 161.233 139.99 161.727C139.99 162.233 140.07 162.673 140.229 163.048C140.391 163.423 140.618 163.714 140.911 163.922C141.206 164.129 141.553 164.233 141.951 164.233C142.212 164.233 142.449 164.188 142.662 164.097C142.875 164.006 143.056 163.875 143.203 163.705C143.351 163.534 143.456 163.33 143.519 163.091H144.525C144.468 163.477 144.327 163.825 144.103 164.135C143.881 164.442 143.587 164.686 143.221 164.868C142.857 165.047 142.434 165.136 141.951 165.136ZM146.932 162.614L146.915 161.369H147.12L149.983 158.455H151.228L148.176 161.54H148.091L146.932 162.614ZM145.995 165V156.273H147V165H145.995ZM150.154 165L147.597 161.761L148.313 161.062L151.432 165H150.154ZM154.997 165.136C154.366 165.136 153.822 164.997 153.365 164.719C152.91 164.438 152.559 164.045 152.312 163.543C152.068 163.037 151.946 162.449 151.946 161.778C151.946 161.108 152.068 160.517 152.312 160.006C152.559 159.491 152.903 159.091 153.343 158.804C153.787 158.514 154.304 158.369 154.895 158.369C155.235 158.369 155.572 158.426 155.904 158.54C156.237 158.653 156.539 158.838 156.812 159.094C157.085 159.347 157.302 159.682 157.464 160.099C157.626 160.517 157.707 161.031 157.707 161.642V162.068H152.662V161.199H156.684C156.684 160.83 156.61 160.5 156.463 160.21C156.318 159.92 156.11 159.692 155.841 159.524C155.574 159.357 155.258 159.273 154.895 159.273C154.494 159.273 154.147 159.372 153.855 159.571C153.565 159.767 153.342 160.023 153.186 160.338C153.029 160.653 152.951 160.991 152.951 161.352V161.932C152.951 162.426 153.037 162.845 153.207 163.189C153.38 163.53 153.62 163.79 153.927 163.969C154.234 164.145 154.591 164.233 154.997 164.233C155.261 164.233 155.5 164.196 155.713 164.122C155.929 164.045 156.115 163.932 156.271 163.781C156.427 163.628 156.548 163.437 156.633 163.21L157.605 163.483C157.502 163.812 157.331 164.102 157.089 164.352C156.848 164.599 156.549 164.793 156.194 164.932C155.839 165.068 155.44 165.136 154.997 165.136ZM162.083 158.455V159.307H158.691V158.455H162.083ZM159.68 156.886H160.686V163.125C160.686 163.409 160.727 163.622 160.809 163.764C160.895 163.903 161.002 163.997 161.133 164.045C161.267 164.091 161.407 164.114 161.555 164.114C161.666 164.114 161.757 164.108 161.828 164.097C161.899 164.082 161.956 164.071 161.998 164.062L162.203 164.966C162.135 164.991 162.039 165.017 161.917 165.043C161.795 165.071 161.64 165.085 161.453 165.085C161.169 165.085 160.89 165.024 160.618 164.902C160.348 164.78 160.123 164.594 159.944 164.344C159.768 164.094 159.68 163.778 159.68 163.398V156.886ZM168.115 159.92L167.212 160.176C167.155 160.026 167.071 159.879 166.961 159.737C166.853 159.592 166.705 159.473 166.517 159.379C166.33 159.286 166.09 159.239 165.797 159.239C165.397 159.239 165.063 159.331 164.796 159.516C164.532 159.697 164.4 159.929 164.4 160.21C164.4 160.46 164.49 160.658 164.672 160.803C164.854 160.947 165.138 161.068 165.525 161.165L166.496 161.403C167.081 161.545 167.517 161.763 167.804 162.055C168.091 162.345 168.235 162.719 168.235 163.176C168.235 163.551 168.127 163.886 167.911 164.182C167.698 164.477 167.4 164.71 167.016 164.881C166.632 165.051 166.186 165.136 165.678 165.136C165.01 165.136 164.458 164.991 164.02 164.702C163.583 164.412 163.306 163.989 163.189 163.432L164.144 163.193C164.235 163.545 164.407 163.81 164.659 163.986C164.915 164.162 165.249 164.25 165.661 164.25C166.13 164.25 166.502 164.151 166.777 163.952C167.056 163.75 167.195 163.509 167.195 163.227C167.195 163 167.115 162.81 166.956 162.656C166.797 162.5 166.553 162.384 166.223 162.307L165.132 162.051C164.533 161.909 164.093 161.689 163.811 161.391C163.533 161.089 163.394 160.713 163.394 160.261C163.394 159.892 163.498 159.565 163.705 159.281C163.915 158.997 164.201 158.774 164.561 158.612C164.925 158.45 165.337 158.369 165.797 158.369C166.445 158.369 166.953 158.511 167.323 158.795C167.695 159.08 167.959 159.455 168.115 159.92Z" fill="#7B7B7B"/>
</svg>
