<svg width="321" height="200" viewBox="0 0 321 200" fill="none" xmlns="http://www.w3.org/2000/svg">
<rect width="321" height="200" rx="16" fill="#ECECEC"/>
<rect x="134" y="34" width="54" height="54" rx="8" fill="#B1D6F3"/>
<path d="M148 60.9966C149.536 60.7774 152.461 60.556 154.072 60.4646C155.45 60.3864 156.002 60.7025 156.35 60.703C157.141 60.7043 157.651 58.6197 158.863 55.885C159.485 54.4824 159.637 53.3286 160.826 50.3427C161.308 49.1343 161.84 48.5893 162.005 48.4411C162.657 47.8544 162.428 50.4165 162.52 51.4287C162.654 52.9117 162.649 55.6878 162.74 57.5784C162.806 58.9362 163.197 61.8601 163.492 64.2187C163.877 67.3012 164.519 69.321 164.741 70.6482C164.894 71.5668 165.107 72.3741 165.273 73.1093C165.314 73.2901 165.292 73.4755 165.328 73.4601C166.153 73.1103 165.878 70.7726 166.227 68.6965C166.644 66.211 167.272 64.7854 167.494 63.863C167.68 63.0919 167.898 62.2852 168.081 61.5682C168.126 61.3921 168.264 61.2565 168.465 61.1816C168.958 61.1067 169.548 61.1431 170.515 61.1981C171.192 61.2168 172.246 61.2168 173.332 61.2168" stroke="#2D90DC" stroke-width="2" stroke-linecap="round"/>
<path d="M94.3507 107.091C94.2654 106.371 93.9198 105.812 93.3137 105.415C92.7077 105.017 91.9643 104.818 91.0836 104.818C90.4397 104.818 89.8762 104.922 89.3933 105.131C88.9151 105.339 88.541 105.625 88.2711 105.99C88.006 106.355 87.8734 106.769 87.8734 107.233C87.8734 107.621 87.9657 107.955 88.1504 108.234C88.3398 108.509 88.5813 108.739 88.8748 108.923C89.1684 109.103 89.4761 109.252 89.7981 109.371C90.1201 109.484 90.416 109.577 90.6859 109.648L92.1632 110.045C92.542 110.145 92.9634 110.282 93.4274 110.457C93.8961 110.633 94.3436 110.872 94.7697 111.175C95.2006 111.473 95.5557 111.857 95.8351 112.325C96.1144 112.794 96.2541 113.369 96.2541 114.051C96.2541 114.837 96.0481 115.547 95.6362 116.182C95.229 116.816 94.6324 117.321 93.8464 117.695C93.0652 118.069 92.1158 118.256 90.9984 118.256C89.9567 118.256 89.0547 118.088 88.2924 117.751C87.5349 117.415 86.9383 116.946 86.5027 116.345C86.0718 115.744 85.8279 115.045 85.7711 114.25H87.5893C87.6367 114.799 87.8213 115.254 88.1433 115.614C88.47 115.969 88.8819 116.234 89.3791 116.409C89.881 116.58 90.4208 116.665 90.9984 116.665C91.6708 116.665 92.2744 116.556 92.8095 116.338C93.3445 116.116 93.7683 115.808 94.0808 115.415C94.3933 115.017 94.5495 114.553 94.5495 114.023C94.5495 113.54 94.4146 113.147 94.1447 112.844C93.8748 112.541 93.5197 112.295 93.0794 112.105C92.639 111.916 92.1632 111.75 91.6518 111.608L89.862 111.097C88.7257 110.77 87.8261 110.304 87.1632 109.697C86.5003 109.091 86.1689 108.298 86.1689 107.318C86.1689 106.504 86.389 105.794 86.8294 105.188C87.2744 104.577 87.871 104.103 88.6191 103.767C89.372 103.426 90.2124 103.256 91.1404 103.256C92.0779 103.256 92.9113 103.424 93.6404 103.76C94.3696 104.091 94.9473 104.546 95.3734 105.124C95.8043 105.701 96.0315 106.357 96.0552 107.091H94.3507ZM103.497 118.227C102.445 118.227 101.539 117.995 100.776 117.531C100.019 117.062 99.4341 116.409 99.0222 115.571C98.615 114.728 98.4114 113.748 98.4114 112.631C98.4114 111.513 98.615 110.528 99.0222 109.676C99.4341 108.819 100.007 108.152 100.741 107.673C101.48 107.19 102.341 106.949 103.326 106.949C103.894 106.949 104.455 107.044 105.009 107.233C105.563 107.422 106.068 107.73 106.522 108.156C106.977 108.578 107.339 109.136 107.609 109.832C107.879 110.528 108.014 111.385 108.014 112.403V113.114H99.6046V111.665H106.309C106.309 111.049 106.186 110.5 105.94 110.017C105.698 109.534 105.353 109.153 104.903 108.874C104.458 108.594 103.932 108.455 103.326 108.455C102.659 108.455 102.081 108.62 101.593 108.952C101.11 109.278 100.739 109.705 100.478 110.23C100.218 110.756 100.088 111.319 100.088 111.92V112.886C100.088 113.71 100.23 114.409 100.514 114.982C100.802 115.55 101.203 115.983 101.714 116.281C102.225 116.575 102.82 116.722 103.497 116.722C103.937 116.722 104.335 116.66 104.69 116.537C105.05 116.409 105.36 116.22 105.62 115.969C105.881 115.713 106.082 115.396 106.224 115.017L107.843 115.472C107.673 116.021 107.386 116.504 106.984 116.92C106.581 117.332 106.084 117.654 105.492 117.886C104.901 118.114 104.235 118.227 103.497 118.227ZM110.563 118V107.091H112.183V108.739H112.296C112.495 108.199 112.855 107.761 113.376 107.425C113.897 107.089 114.484 106.92 115.137 106.92C115.26 106.92 115.414 106.923 115.599 106.928C115.784 106.932 115.923 106.939 116.018 106.949V108.653C115.961 108.639 115.831 108.618 115.627 108.589C115.428 108.556 115.218 108.54 114.995 108.54C114.465 108.54 113.991 108.651 113.575 108.874C113.163 109.091 112.836 109.394 112.595 109.783C112.358 110.166 112.24 110.604 112.24 111.097V118H110.563ZM127.257 107.091L123.223 118H121.519L117.485 107.091H119.303L122.314 115.784H122.428L125.439 107.091H127.257ZM129.47 118V107.091H131.146V118H129.47ZM130.322 105.273C129.995 105.273 129.713 105.161 129.477 104.939C129.245 104.716 129.129 104.449 129.129 104.136C129.129 103.824 129.245 103.556 129.477 103.334C129.713 103.111 129.995 103 130.322 103C130.649 103 130.928 103.111 131.16 103.334C131.397 103.556 131.515 103.824 131.515 104.136C131.515 104.449 131.397 104.716 131.16 104.939C130.928 105.161 130.649 105.273 130.322 105.273ZM138.648 118.227C137.625 118.227 136.744 117.986 136.006 117.503C135.267 117.02 134.699 116.355 134.301 115.507C133.903 114.66 133.704 113.691 133.704 112.602C133.704 111.494 133.908 110.517 134.315 109.669C134.727 108.817 135.3 108.152 136.034 107.673C136.773 107.19 137.634 106.949 138.619 106.949C139.386 106.949 140.077 107.091 140.693 107.375C141.309 107.659 141.813 108.057 142.206 108.568C142.599 109.08 142.843 109.676 142.937 110.358H141.261C141.133 109.861 140.849 109.42 140.409 109.037C139.973 108.649 139.386 108.455 138.648 108.455C137.994 108.455 137.421 108.625 136.929 108.966C136.441 109.302 136.06 109.778 135.785 110.393C135.515 111.004 135.381 111.722 135.381 112.545C135.381 113.388 135.513 114.122 135.778 114.747C136.048 115.372 136.427 115.857 136.915 116.203C137.407 116.549 137.985 116.722 138.648 116.722C139.083 116.722 139.479 116.646 139.834 116.494C140.189 116.343 140.489 116.125 140.736 115.841C140.982 115.557 141.157 115.216 141.261 114.818H142.937C142.843 115.462 142.608 116.042 142.234 116.558C141.865 117.07 141.375 117.477 140.764 117.78C140.158 118.078 139.452 118.227 138.648 118.227ZM149.961 118.227C148.91 118.227 148.004 117.995 147.241 117.531C146.484 117.062 145.899 116.409 145.487 115.571C145.08 114.728 144.876 113.748 144.876 112.631C144.876 111.513 145.08 110.528 145.487 109.676C145.899 108.819 146.472 108.152 147.206 107.673C147.944 107.19 148.806 106.949 149.791 106.949C150.359 106.949 150.92 107.044 151.474 107.233C152.028 107.422 152.532 107.73 152.987 108.156C153.442 108.578 153.804 109.136 154.074 109.832C154.344 110.528 154.479 111.385 154.479 112.403V113.114H146.069V111.665H152.774C152.774 111.049 152.651 110.5 152.405 110.017C152.163 109.534 151.818 109.153 151.368 108.874C150.923 108.594 150.397 108.455 149.791 108.455C149.123 108.455 148.546 108.62 148.058 108.952C147.575 109.278 147.203 109.705 146.943 110.23C146.683 110.756 146.552 111.319 146.552 111.92V112.886C146.552 113.71 146.694 114.409 146.979 114.982C147.267 115.55 147.667 115.983 148.179 116.281C148.69 116.575 149.284 116.722 149.961 116.722C150.402 116.722 150.8 116.66 151.155 116.537C151.515 116.409 151.825 116.22 152.085 115.969C152.345 115.713 152.547 115.396 152.689 115.017L154.308 115.472C154.138 116.021 153.851 116.504 153.449 116.92C153.046 117.332 152.549 117.654 151.957 117.886C151.365 118.114 150.7 118.227 149.961 118.227ZM172.426 103.455H174.187V113.085C174.187 114.08 173.953 114.967 173.484 115.749C173.02 116.525 172.364 117.138 171.517 117.588C170.669 118.033 169.675 118.256 168.534 118.256C167.393 118.256 166.398 118.033 165.551 117.588C164.703 117.138 164.045 116.525 163.577 115.749C163.113 114.967 162.881 114.08 162.881 113.085V103.455H164.642V112.943C164.642 113.653 164.798 114.286 165.111 114.839C165.423 115.389 165.868 115.822 166.446 116.139C167.028 116.452 167.724 116.608 168.534 116.608C169.344 116.608 170.04 116.452 170.622 116.139C171.204 115.822 171.649 115.389 171.957 114.839C172.27 114.286 172.426 113.653 172.426 112.943V103.455ZM177.477 122.091V107.091H179.097V108.824H179.296C179.419 108.634 179.589 108.393 179.807 108.099C180.03 107.801 180.347 107.536 180.759 107.304C181.175 107.067 181.739 106.949 182.449 106.949C183.368 106.949 184.177 107.179 184.878 107.638C185.579 108.097 186.126 108.748 186.519 109.591C186.912 110.434 187.108 111.428 187.108 112.574C187.108 113.729 186.912 114.731 186.519 115.578C186.126 116.421 185.581 117.074 184.885 117.538C184.189 117.998 183.387 118.227 182.477 118.227C181.777 118.227 181.216 118.111 180.794 117.879C180.373 117.643 180.048 117.375 179.821 117.077C179.594 116.774 179.419 116.523 179.296 116.324H179.154V122.091H177.477ZM179.125 112.545C179.125 113.369 179.246 114.096 179.487 114.726C179.729 115.351 180.082 115.841 180.546 116.196C181.01 116.546 181.578 116.722 182.25 116.722C182.951 116.722 183.536 116.537 184.004 116.168C184.478 115.794 184.833 115.292 185.07 114.662C185.311 114.027 185.432 113.322 185.432 112.545C185.432 111.778 185.314 111.087 185.077 110.472C184.845 109.851 184.492 109.361 184.019 109.001C183.55 108.637 182.96 108.455 182.25 108.455C181.568 108.455 180.995 108.627 180.531 108.973C180.067 109.314 179.717 109.792 179.48 110.408C179.244 111.018 179.125 111.731 179.125 112.545ZM195.915 110.983V112.545H189.551V110.983H195.915ZM203.608 107.091V108.511H197.955V107.091H203.608ZM199.603 104.477H201.279V114.875C201.279 115.348 201.348 115.704 201.485 115.94C201.627 116.172 201.807 116.329 202.025 116.409C202.247 116.485 202.482 116.523 202.728 116.523C202.912 116.523 203.064 116.513 203.182 116.494C203.301 116.471 203.395 116.452 203.466 116.438L203.807 117.943C203.694 117.986 203.535 118.028 203.331 118.071C203.128 118.118 202.87 118.142 202.557 118.142C202.084 118.142 201.62 118.04 201.165 117.837C200.715 117.633 200.341 117.323 200.043 116.906C199.75 116.49 199.603 115.964 199.603 115.33V104.477ZM206.13 118V107.091H207.806V118H206.13ZM206.982 105.273C206.655 105.273 206.374 105.161 206.137 104.939C205.905 104.716 205.789 104.449 205.789 104.136C205.789 103.824 205.905 103.556 206.137 103.334C206.374 103.111 206.655 103 206.982 103C207.309 103 207.588 103.111 207.82 103.334C208.057 103.556 208.175 103.824 208.175 104.136C208.175 104.449 208.057 104.716 207.82 104.939C207.588 105.161 207.309 105.273 206.982 105.273ZM210.876 118V107.091H212.495V108.795H212.637C212.865 108.213 213.231 107.761 213.738 107.439C214.245 107.112 214.853 106.949 215.563 106.949C216.283 106.949 216.882 107.112 217.36 107.439C217.843 107.761 218.22 108.213 218.49 108.795H218.603C218.883 108.232 219.302 107.785 219.86 107.453C220.419 107.117 221.089 106.949 221.87 106.949C222.846 106.949 223.643 107.254 224.264 107.865C224.884 108.471 225.194 109.416 225.194 110.699V118H223.518V110.699C223.518 109.894 223.298 109.319 222.857 108.973C222.417 108.627 221.899 108.455 221.302 108.455C220.535 108.455 219.941 108.687 219.519 109.151C219.098 109.61 218.887 110.192 218.887 110.898V118H217.183V110.528C217.183 109.908 216.981 109.409 216.579 109.03C216.177 108.646 215.658 108.455 215.024 108.455C214.588 108.455 214.181 108.571 213.802 108.803C213.428 109.035 213.125 109.357 212.893 109.768C212.666 110.176 212.552 110.647 212.552 111.182V118H210.876ZM232.833 118.227C231.781 118.227 230.875 117.995 230.112 117.531C229.355 117.062 228.77 116.409 228.358 115.571C227.951 114.728 227.747 113.748 227.747 112.631C227.747 111.513 227.951 110.528 228.358 109.676C228.77 108.819 229.343 108.152 230.077 107.673C230.816 107.19 231.677 106.949 232.662 106.949C233.23 106.949 233.791 107.044 234.345 107.233C234.899 107.422 235.404 107.73 235.858 108.156C236.313 108.578 236.675 109.136 236.945 109.832C237.215 110.528 237.35 111.385 237.35 112.403V113.114H228.941V111.665H235.645C235.645 111.049 235.522 110.5 235.276 110.017C235.034 109.534 234.689 109.153 234.239 108.874C233.794 108.594 233.268 108.455 232.662 108.455C231.994 108.455 231.417 108.62 230.929 108.952C230.446 109.278 230.075 109.705 229.814 110.23C229.554 110.756 229.423 111.319 229.423 111.92V112.886C229.423 113.71 229.566 114.409 229.85 114.982C230.138 115.55 230.539 115.983 231.05 116.281C231.561 116.575 232.155 116.722 232.833 116.722C233.273 116.722 233.671 116.66 234.026 116.537C234.386 116.409 234.696 116.22 234.956 115.969C235.217 115.713 235.418 115.396 235.56 115.017L237.179 115.472C237.009 116.021 236.722 116.504 236.32 116.92C235.917 117.332 235.42 117.654 234.828 117.886C234.236 118.114 233.571 118.227 232.833 118.227Z" fill="#727272"/>
<path d="M91.7301 134.307C92.6278 134.307 93.4915 134.457 94.321 134.759C95.1563 135.06 95.9006 135.54 96.554 136.199C97.2131 136.858 97.733 137.733 98.1136 138.824C98.5 139.909 98.696 141.241 98.7017 142.821C98.7017 144.304 98.5341 145.628 98.1989 146.793C97.8693 147.952 97.3949 148.938 96.7756 149.75C96.1563 150.562 95.4091 151.182 94.5341 151.608C93.6591 152.028 92.6818 152.239 91.6023 152.239C90.4375 152.239 89.4091 152.014 88.517 151.565C87.625 151.111 86.9063 150.494 86.3608 149.716C85.821 148.932 85.4943 148.051 85.3807 147.074H89.0199C89.1619 147.71 89.4602 148.205 89.9148 148.557C90.3693 148.903 90.9318 149.077 91.6023 149.077C92.7386 149.077 93.6023 148.582 94.1932 147.594C94.7841 146.599 95.0824 145.239 95.0881 143.511H94.9688C94.7074 144.023 94.3551 144.463 93.9119 144.832C93.4688 145.196 92.9602 145.477 92.3864 145.676C91.8182 145.875 91.2131 145.974 90.571 145.974C89.5426 145.974 88.625 145.733 87.8182 145.25C87.0114 144.767 86.375 144.102 85.9091 143.256C85.4432 142.409 85.2102 141.443 85.2102 140.358C85.2045 139.188 85.4744 138.145 86.0199 137.23C86.5653 136.315 87.3267 135.599 88.304 135.082C89.2869 134.56 90.429 134.301 91.7301 134.307ZM91.7557 137.205C91.1818 137.205 90.6705 137.341 90.2216 137.614C89.7784 137.886 89.4261 138.253 89.1648 138.713C88.9091 139.173 88.7841 139.687 88.7898 140.256C88.7898 140.83 88.9148 141.347 89.1648 141.807C89.4205 142.261 89.767 142.625 90.2045 142.898C90.6477 143.165 91.1534 143.298 91.7216 143.298C92.1477 143.298 92.5426 143.219 92.9062 143.06C93.2699 142.901 93.5852 142.682 93.8523 142.403C94.125 142.119 94.3381 141.793 94.4915 141.423C94.6449 141.054 94.7216 140.662 94.7216 140.247C94.7159 139.696 94.5852 139.19 94.3295 138.73C94.0739 138.27 93.7216 137.901 93.2727 137.622C92.8239 137.344 92.3182 137.205 91.7557 137.205ZM107.574 134.307C108.472 134.307 109.335 134.457 110.165 134.759C111 135.06 111.744 135.54 112.398 136.199C113.057 136.858 113.577 137.733 113.957 138.824C114.344 139.909 114.54 141.241 114.545 142.821C114.545 144.304 114.378 145.628 114.043 146.793C113.713 147.952 113.239 148.938 112.619 149.75C112 150.562 111.253 151.182 110.378 151.608C109.503 152.028 108.526 152.239 107.446 152.239C106.281 152.239 105.253 152.014 104.361 151.565C103.469 151.111 102.75 150.494 102.205 149.716C101.665 148.932 101.338 148.051 101.224 147.074H104.864C105.006 147.71 105.304 148.205 105.759 148.557C106.213 148.903 106.776 149.077 107.446 149.077C108.582 149.077 109.446 148.582 110.037 147.594C110.628 146.599 110.926 145.239 110.932 143.511H110.812C110.551 144.023 110.199 144.463 109.756 144.832C109.313 145.196 108.804 145.477 108.23 145.676C107.662 145.875 107.057 145.974 106.415 145.974C105.386 145.974 104.469 145.733 103.662 145.25C102.855 144.767 102.219 144.102 101.753 143.256C101.287 142.409 101.054 141.443 101.054 140.358C101.048 139.188 101.318 138.145 101.864 137.23C102.409 136.315 103.17 135.599 104.148 135.082C105.131 134.56 106.273 134.301 107.574 134.307ZM107.599 137.205C107.026 137.205 106.514 137.341 106.065 137.614C105.622 137.886 105.27 138.253 105.009 138.713C104.753 139.173 104.628 139.687 104.634 140.256C104.634 140.83 104.759 141.347 105.009 141.807C105.264 142.261 105.611 142.625 106.048 142.898C106.491 143.165 106.997 143.298 107.565 143.298C107.991 143.298 108.386 143.219 108.75 143.06C109.114 142.901 109.429 142.682 109.696 142.403C109.969 142.119 110.182 141.793 110.335 141.423C110.489 141.054 110.565 140.662 110.565 140.247C110.56 139.696 110.429 139.19 110.173 138.73C109.918 138.27 109.565 137.901 109.116 137.622C108.668 137.344 108.162 137.205 107.599 137.205ZM126.656 148.727V147.807C126.656 147.108 126.804 146.466 127.099 145.881C127.401 145.29 127.835 144.818 128.403 144.466C128.977 144.108 129.676 143.929 130.5 143.929C131.335 143.929 132.037 144.105 132.605 144.457C133.179 144.81 133.611 145.281 133.901 145.872C134.196 146.457 134.344 147.102 134.344 147.807V148.727C134.344 149.426 134.196 150.071 133.901 150.662C133.605 151.247 133.17 151.716 132.597 152.068C132.023 152.426 131.324 152.605 130.5 152.605C129.665 152.605 128.963 152.426 128.395 152.068C127.827 151.716 127.395 151.247 127.099 150.662C126.804 150.071 126.656 149.426 126.656 148.727ZM129.136 147.807V148.727C129.136 149.131 129.233 149.511 129.426 149.869C129.625 150.227 129.983 150.406 130.5 150.406C131.017 150.406 131.369 150.23 131.557 149.878C131.75 149.526 131.847 149.142 131.847 148.727V147.807C131.847 147.392 131.756 147.006 131.574 146.648C131.392 146.29 131.034 146.111 130.5 146.111C129.989 146.111 129.634 146.29 129.435 146.648C129.236 147.006 129.136 147.392 129.136 147.807ZM117.699 138.739V137.818C117.699 137.114 117.849 136.469 118.151 135.884C118.452 135.293 118.886 134.821 119.455 134.469C120.028 134.116 120.722 133.94 121.534 133.94C122.375 133.94 123.08 134.116 123.648 134.469C124.216 134.821 124.648 135.293 124.943 135.884C125.239 136.469 125.386 137.114 125.386 137.818V138.739C125.386 139.443 125.236 140.088 124.935 140.673C124.639 141.259 124.205 141.727 123.631 142.08C123.063 142.426 122.364 142.599 121.534 142.599C120.705 142.599 120.003 142.423 119.429 142.071C118.861 141.713 118.429 141.244 118.134 140.665C117.844 140.08 117.699 139.437 117.699 138.739ZM120.196 137.818V138.739C120.196 139.153 120.293 139.537 120.486 139.889C120.685 140.241 121.034 140.418 121.534 140.418C122.057 140.418 122.412 140.241 122.599 139.889C122.793 139.537 122.889 139.153 122.889 138.739V137.818C122.889 137.403 122.798 137.017 122.616 136.659C122.435 136.301 122.074 136.122 121.534 136.122C121.028 136.122 120.679 136.304 120.486 136.668C120.293 137.031 120.196 137.415 120.196 137.818ZM118.824 152L130.824 134.545H133.057L121.057 152H118.824Z" fill="black"/>
<path d="M85.0568 170V161.273H86.1136V169.062H90.1705V170H85.0568ZM93.5966 170.153C93.1818 170.153 92.8054 170.075 92.4673 169.919C92.1293 169.76 91.8608 169.531 91.6619 169.233C91.4631 168.932 91.3636 168.568 91.3636 168.142C91.3636 167.767 91.4375 167.463 91.5852 167.23C91.733 166.994 91.9304 166.81 92.1776 166.676C92.4247 166.543 92.6974 166.443 92.9957 166.378C93.2969 166.31 93.5994 166.256 93.9034 166.216C94.3011 166.165 94.6236 166.126 94.8707 166.101C95.1207 166.072 95.3026 166.026 95.4162 165.96C95.5327 165.895 95.5909 165.781 95.5909 165.619V165.585C95.5909 165.165 95.4759 164.838 95.2457 164.605C95.0185 164.372 94.6733 164.256 94.2102 164.256C93.7301 164.256 93.3537 164.361 93.081 164.571C92.8082 164.781 92.6165 165.006 92.5057 165.244L91.5511 164.903C91.7216 164.506 91.9489 164.196 92.233 163.974C92.5199 163.75 92.8324 163.594 93.1705 163.506C93.5114 163.415 93.8466 163.369 94.1761 163.369C94.3864 163.369 94.6278 163.395 94.9006 163.446C95.1761 163.494 95.4418 163.595 95.6974 163.749C95.956 163.902 96.1705 164.134 96.3409 164.443C96.5114 164.753 96.5966 165.168 96.5966 165.688V170H95.5909V169.114H95.5398C95.4716 169.256 95.358 169.408 95.1989 169.57C95.0398 169.732 94.8281 169.869 94.5639 169.983C94.2997 170.097 93.9773 170.153 93.5966 170.153ZM93.75 169.25C94.1477 169.25 94.483 169.172 94.7557 169.016C95.0313 168.859 95.2386 168.658 95.3778 168.411C95.5199 168.163 95.5909 167.903 95.5909 167.631V166.71C95.5483 166.761 95.4545 166.808 95.3097 166.851C95.1676 166.891 95.0028 166.926 94.8153 166.957C94.6307 166.986 94.4503 167.011 94.2741 167.034C94.1009 167.054 93.9602 167.071 93.8523 167.085C93.5909 167.119 93.3466 167.175 93.1193 167.251C92.8949 167.325 92.7131 167.437 92.5739 167.588C92.4375 167.736 92.3693 167.937 92.3693 168.193C92.3693 168.543 92.4986 168.807 92.7571 168.986C93.0185 169.162 93.3494 169.25 93.75 169.25ZM103.069 164.92L102.165 165.176C102.108 165.026 102.025 164.879 101.914 164.737C101.806 164.592 101.658 164.473 101.471 164.379C101.283 164.286 101.043 164.239 100.75 164.239C100.35 164.239 100.016 164.331 99.7489 164.516C99.4847 164.697 99.3526 164.929 99.3526 165.21C99.3526 165.46 99.4435 165.658 99.6254 165.803C99.8072 165.947 100.091 166.068 100.478 166.165L101.449 166.403C102.034 166.545 102.471 166.763 102.757 167.055C103.044 167.345 103.188 167.719 103.188 168.176C103.188 168.551 103.08 168.886 102.864 169.182C102.651 169.477 102.353 169.71 101.969 169.881C101.586 170.051 101.14 170.136 100.631 170.136C99.9634 170.136 99.4109 169.991 98.9734 169.702C98.5359 169.412 98.2589 168.989 98.1424 168.432L99.0969 168.193C99.1879 168.545 99.3597 168.81 99.6126 168.986C99.8683 169.162 100.202 169.25 100.614 169.25C101.083 169.25 101.455 169.151 101.73 168.952C102.009 168.75 102.148 168.509 102.148 168.227C102.148 168 102.069 167.81 101.909 167.656C101.75 167.5 101.506 167.384 101.176 167.307L100.086 167.051C99.4862 166.909 99.0458 166.689 98.7646 166.391C98.4862 166.089 98.3469 165.713 98.3469 165.261C98.3469 164.892 98.4506 164.565 98.658 164.281C98.8683 163.997 99.1538 163.774 99.5146 163.612C99.8782 163.45 100.29 163.369 100.75 163.369C101.398 163.369 101.907 163.511 102.276 163.795C102.648 164.08 102.912 164.455 103.069 164.92ZM107.548 163.455V164.307H104.156V163.455H107.548ZM105.145 161.886H106.151V168.125C106.151 168.409 106.192 168.622 106.274 168.764C106.359 168.903 106.467 168.997 106.598 169.045C106.732 169.091 106.872 169.114 107.02 169.114C107.131 169.114 107.222 169.108 107.293 169.097C107.364 169.082 107.42 169.071 107.463 169.062L107.668 169.966C107.599 169.991 107.504 170.017 107.382 170.043C107.26 170.071 107.105 170.085 106.918 170.085C106.634 170.085 106.355 170.024 106.082 169.902C105.813 169.78 105.588 169.594 105.409 169.344C105.233 169.094 105.145 168.778 105.145 168.398V161.886ZM115.368 170.119C114.805 170.119 114.304 170.023 113.864 169.83C113.426 169.636 113.078 169.368 112.82 169.024C112.564 168.678 112.425 168.276 112.402 167.818H113.476C113.499 168.099 113.595 168.342 113.766 168.547C113.936 168.749 114.159 168.905 114.435 169.016C114.71 169.126 115.016 169.182 115.351 169.182C115.726 169.182 116.058 169.116 116.348 168.986C116.638 168.855 116.865 168.673 117.03 168.44C117.195 168.207 117.277 167.938 117.277 167.631C117.277 167.31 117.197 167.027 117.038 166.783C116.879 166.536 116.646 166.342 116.339 166.203C116.033 166.064 115.658 165.994 115.214 165.994H114.516V165.057H115.214C115.561 165.057 115.865 164.994 116.126 164.869C116.391 164.744 116.597 164.568 116.744 164.341C116.895 164.114 116.97 163.847 116.97 163.54C116.97 163.244 116.905 162.987 116.774 162.768C116.643 162.55 116.459 162.379 116.22 162.257C115.984 162.135 115.706 162.074 115.385 162.074C115.084 162.074 114.8 162.129 114.533 162.24C114.268 162.348 114.053 162.506 113.885 162.713C113.717 162.918 113.626 163.165 113.612 163.455H112.589C112.607 162.997 112.744 162.597 113.003 162.253C113.261 161.906 113.599 161.636 114.017 161.443C114.438 161.25 114.899 161.153 115.402 161.153C115.942 161.153 116.405 161.263 116.791 161.482C117.178 161.697 117.474 161.983 117.682 162.338C117.889 162.693 117.993 163.077 117.993 163.489C117.993 163.98 117.864 164.399 117.605 164.746C117.349 165.092 117.001 165.332 116.561 165.466V165.534C117.112 165.625 117.543 165.859 117.852 166.237C118.162 166.612 118.317 167.077 118.317 167.631C118.317 168.105 118.188 168.531 117.929 168.909C117.673 169.284 117.324 169.58 116.881 169.795C116.438 170.011 115.933 170.119 115.368 170.119ZM122.906 170.119C122.264 170.119 121.717 169.945 121.266 169.595C120.814 169.243 120.469 168.733 120.23 168.065C119.991 167.395 119.872 166.585 119.872 165.636C119.872 164.693 119.991 163.888 120.23 163.22C120.472 162.55 120.818 162.038 121.27 161.686C121.724 161.331 122.27 161.153 122.906 161.153C123.543 161.153 124.087 161.331 124.538 161.686C124.993 162.038 125.339 162.55 125.578 163.22C125.82 163.888 125.94 164.693 125.94 165.636C125.94 166.585 125.821 167.395 125.582 168.065C125.344 168.733 124.999 169.243 124.547 169.595C124.095 169.945 123.548 170.119 122.906 170.119ZM122.906 169.182C123.543 169.182 124.037 168.875 124.389 168.261C124.741 167.648 124.918 166.773 124.918 165.636C124.918 164.881 124.837 164.237 124.675 163.706C124.516 163.175 124.286 162.77 123.984 162.491C123.686 162.213 123.327 162.074 122.906 162.074C122.276 162.074 121.783 162.385 121.428 163.007C121.072 163.626 120.895 164.503 120.895 165.636C120.895 166.392 120.974 167.034 121.134 167.562C121.293 168.091 121.521 168.493 121.82 168.768C122.121 169.044 122.483 169.182 122.906 169.182ZM133.781 170H131.088V161.273H133.901C134.747 161.273 135.472 161.447 136.074 161.797C136.676 162.143 137.138 162.642 137.459 163.293C137.78 163.94 137.94 164.716 137.94 165.619C137.94 166.528 137.778 167.311 137.455 167.967C137.131 168.621 136.659 169.124 136.04 169.476C135.42 169.825 134.668 170 133.781 170ZM132.145 169.062H133.713C134.435 169.062 135.033 168.923 135.507 168.645C135.982 168.366 136.335 167.97 136.568 167.456C136.801 166.942 136.918 166.33 136.918 165.619C136.918 164.915 136.803 164.308 136.572 163.8C136.342 163.288 135.999 162.896 135.541 162.624C135.084 162.348 134.514 162.21 133.832 162.21H132.145V169.062ZM141.503 170.153C141.088 170.153 140.712 170.075 140.374 169.919C140.036 169.76 139.767 169.531 139.568 169.233C139.369 168.932 139.27 168.568 139.27 168.142C139.27 167.767 139.344 167.463 139.491 167.23C139.639 166.994 139.837 166.81 140.084 166.676C140.331 166.543 140.604 166.443 140.902 166.378C141.203 166.31 141.506 166.256 141.81 166.216C142.207 166.165 142.53 166.126 142.777 166.101C143.027 166.072 143.209 166.026 143.322 165.96C143.439 165.895 143.497 165.781 143.497 165.619V165.585C143.497 165.165 143.382 164.838 143.152 164.605C142.925 164.372 142.58 164.256 142.116 164.256C141.636 164.256 141.26 164.361 140.987 164.571C140.714 164.781 140.523 165.006 140.412 165.244L139.457 164.903C139.628 164.506 139.855 164.196 140.139 163.974C140.426 163.75 140.739 163.594 141.077 163.506C141.418 163.415 141.753 163.369 142.082 163.369C142.293 163.369 142.534 163.395 142.807 163.446C143.082 163.494 143.348 163.595 143.604 163.749C143.862 163.902 144.077 164.134 144.247 164.443C144.418 164.753 144.503 165.168 144.503 165.688V170H143.497V169.114H143.446C143.378 169.256 143.264 169.408 143.105 169.57C142.946 169.732 142.734 169.869 142.47 169.983C142.206 170.097 141.884 170.153 141.503 170.153ZM141.656 169.25C142.054 169.25 142.389 169.172 142.662 169.016C142.938 168.859 143.145 168.658 143.284 168.411C143.426 168.163 143.497 167.903 143.497 167.631V166.71C143.455 166.761 143.361 166.808 143.216 166.851C143.074 166.891 142.909 166.926 142.722 166.957C142.537 166.986 142.357 167.011 142.18 167.034C142.007 167.054 141.866 167.071 141.759 167.085C141.497 167.119 141.253 167.175 141.026 167.251C140.801 167.325 140.619 167.437 140.48 167.588C140.344 167.736 140.276 167.937 140.276 168.193C140.276 168.543 140.405 168.807 140.663 168.986C140.925 169.162 141.256 169.25 141.656 169.25ZM146.752 172.455C146.581 172.455 146.429 172.44 146.296 172.412C146.162 172.386 146.07 172.361 146.019 172.335L146.275 171.449C146.519 171.511 146.735 171.534 146.922 171.517C147.11 171.5 147.276 171.416 147.421 171.266C147.569 171.118 147.703 170.878 147.826 170.545L148.013 170.034L145.593 163.455H146.684L148.49 168.67H148.559L150.365 163.455H151.456L148.678 170.955C148.553 171.293 148.398 171.572 148.213 171.794C148.029 172.018 147.814 172.185 147.57 172.293C147.328 172.401 147.056 172.455 146.752 172.455ZM157.42 164.92L156.517 165.176C156.46 165.026 156.376 164.879 156.265 164.737C156.157 164.592 156.01 164.473 155.822 164.379C155.635 164.286 155.395 164.239 155.102 164.239C154.701 164.239 154.368 164.331 154.1 164.516C153.836 164.697 153.704 164.929 153.704 165.21C153.704 165.46 153.795 165.658 153.977 165.803C154.159 165.947 154.443 166.068 154.829 166.165L155.801 166.403C156.386 166.545 156.822 166.763 157.109 167.055C157.396 167.345 157.539 167.719 157.539 168.176C157.539 168.551 157.431 168.886 157.216 169.182C157.002 169.477 156.704 169.71 156.321 169.881C155.937 170.051 155.491 170.136 154.983 170.136C154.315 170.136 153.762 169.991 153.325 169.702C152.887 169.412 152.61 168.989 152.494 168.432L153.449 168.193C153.539 168.545 153.711 168.81 153.964 168.986C154.22 169.162 154.554 169.25 154.966 169.25C155.434 169.25 155.806 169.151 156.082 168.952C156.36 168.75 156.5 168.509 156.5 168.227C156.5 168 156.42 167.81 156.261 167.656C156.102 167.5 155.858 167.384 155.528 167.307L154.437 167.051C153.838 166.909 153.397 166.689 153.116 166.391C152.838 166.089 152.699 165.713 152.699 165.261C152.699 164.892 152.802 164.565 153.01 164.281C153.22 163.997 153.505 163.774 153.866 163.612C154.23 163.45 154.642 163.369 155.102 163.369C155.75 163.369 156.258 163.511 156.627 163.795C157 164.08 157.264 164.455 157.42 164.92Z" fill="#7B7B7B"/>
</svg>
