<svg width="260" height="200" viewBox="0 0 260 200" fill="none" xmlns="http://www.w3.org/2000/svg">
<rect width="260" height="200" rx="16" fill="#ECECEC"/>
<path d="M30.2983 24.5455H33.9886V35.8807C33.9886 37.1534 33.6847 38.267 33.0767 39.2216C32.4744 40.1761 31.6307 40.9205 30.5455 41.4545C29.4602 41.983 28.196 42.2472 26.7528 42.2472C25.304 42.2472 24.0369 41.983 22.9517 41.4545C21.8665 40.9205 21.0227 40.1761 20.4205 39.2216C19.8182 38.267 19.517 37.1534 19.517 35.8807V24.5455H23.2074V35.5653C23.2074 36.2301 23.3523 36.821 23.642 37.3381C23.9375 37.8551 24.3523 38.2614 24.8864 38.5568C25.4205 38.8523 26.0426 39 26.7528 39C27.4688 39 28.0909 38.8523 28.6193 38.5568C29.1534 38.2614 29.5653 37.8551 29.8551 37.3381C30.1506 36.821 30.2983 36.2301 30.2983 35.5653V24.5455ZM40.5874 34.4318V42H36.9567V28.9091H40.4169V31.2188H40.5703C40.8601 30.4574 41.3459 29.8551 42.0277 29.4119C42.7095 28.9631 43.5362 28.7386 44.5078 28.7386C45.4169 28.7386 46.2095 28.9375 46.8857 29.3352C47.5618 29.733 48.0874 30.3011 48.4624 31.0398C48.8374 31.7727 49.0249 32.6477 49.0249 33.6648V42H45.3942V34.3125C45.3999 33.5114 45.1953 32.8864 44.7805 32.4375C44.3658 31.983 43.7947 31.7557 43.0675 31.7557C42.5788 31.7557 42.147 31.8608 41.772 32.071C41.4027 32.2812 41.1129 32.5881 40.9027 32.9915C40.6982 33.3892 40.593 33.8693 40.5874 34.4318ZM51.8864 42V28.9091H55.517V42H51.8864ZM53.7102 27.2216C53.1705 27.2216 52.7074 27.0426 52.321 26.6847C51.9403 26.321 51.75 25.8864 51.75 25.3807C51.75 24.8807 51.9403 24.4517 52.321 24.0938C52.7074 23.7301 53.1705 23.5483 53.7102 23.5483C54.25 23.5483 54.7102 23.7301 55.0909 24.0938C55.4773 24.4517 55.6705 24.8807 55.6705 25.3807C55.6705 25.8864 55.4773 26.321 55.0909 26.6847C54.7102 27.0426 54.25 27.2216 53.7102 27.2216ZM67.076 46.9091V39.9034H66.9652C66.7947 40.267 66.5533 40.6278 66.2408 40.9858C65.9339 41.3381 65.5334 41.6307 65.0391 41.8636C64.5504 42.0966 63.9538 42.2131 63.2493 42.2131C62.255 42.2131 61.3544 41.9574 60.5476 41.446C59.7464 40.929 59.1101 40.1705 58.6385 39.1705C58.1726 38.1648 57.9396 36.9318 57.9396 35.4716C57.9396 33.9716 58.1811 32.7244 58.6641 31.7301C59.147 30.7301 59.7891 29.983 60.5902 29.4886C61.397 28.9886 62.2805 28.7386 63.2408 28.7386C63.9737 28.7386 64.5845 28.8636 65.0732 29.1136C65.5675 29.358 65.9652 29.6648 66.2663 30.0341C66.5732 30.3977 66.8061 30.7557 66.9652 31.108H67.1186V28.9091H70.6982V46.9091H67.076ZM64.3999 39.3239C64.9851 39.3239 65.4794 39.1648 65.8828 38.8466C66.2919 38.5227 66.6044 38.071 66.8203 37.4915C67.0419 36.9119 67.1527 36.233 67.1527 35.4545C67.1527 34.6761 67.0447 34 66.8288 33.4261C66.6129 32.8523 66.3004 32.4091 65.8913 32.0966C65.4822 31.7841 64.9851 31.6278 64.3999 31.6278C63.8033 31.6278 63.3004 31.7898 62.8913 32.1136C62.4822 32.4375 62.1726 32.8864 61.9624 33.4602C61.7521 34.0341 61.647 34.6989 61.647 35.4545C61.647 36.2159 61.7521 36.8892 61.9624 37.4744C62.1783 38.054 62.4879 38.5085 62.8913 38.8381C63.3004 39.1619 63.8033 39.3239 64.3999 39.3239ZM82.0078 36.4261V28.9091H85.6385V42H82.1527V39.6222H82.0163C81.7209 40.3892 81.2294 41.0057 80.5419 41.4716C79.8601 41.9375 79.0277 42.1705 78.0447 42.1705C77.1697 42.1705 76.3999 41.9716 75.7351 41.5739C75.0703 41.1761 74.5504 40.6108 74.1754 39.8778C73.8061 39.1449 73.6186 38.267 73.6129 37.2443V28.9091H77.2436V36.5966C77.2493 37.3693 77.4567 37.9801 77.8658 38.429C78.2749 38.8778 78.8232 39.1023 79.5107 39.1023C79.9482 39.1023 80.3572 39.0028 80.7379 38.804C81.1186 38.5994 81.4254 38.2983 81.6584 37.9006C81.897 37.5028 82.0135 37.0114 82.0078 36.4261ZM94.5085 42.2557C93.1619 42.2557 92.0028 41.983 91.0312 41.4375C90.0653 40.8864 89.321 40.108 88.7983 39.1023C88.2756 38.0909 88.0142 36.8949 88.0142 35.5142C88.0142 34.1676 88.2756 32.9858 88.7983 31.9688C89.321 30.9517 90.0568 30.1591 91.0057 29.5909C91.9602 29.0227 93.0795 28.7386 94.3636 28.7386C95.2273 28.7386 96.0313 28.8778 96.7756 29.1562C97.5256 29.429 98.179 29.8409 98.7358 30.392C99.2983 30.9432 99.7358 31.6364 100.048 32.4716C100.361 33.3011 100.517 34.2727 100.517 35.3864V36.3835H89.4631V34.1335H97.0994C97.0994 33.6108 96.9858 33.1477 96.7585 32.7443C96.5313 32.3409 96.2159 32.0256 95.8125 31.7983C95.4148 31.5653 94.9517 31.4489 94.4233 31.4489C93.8722 31.4489 93.3835 31.5767 92.9574 31.8324C92.5369 32.0824 92.2074 32.4205 91.9688 32.8466C91.7301 33.267 91.608 33.7358 91.6023 34.2528V36.392C91.6023 37.0398 91.7216 37.5994 91.9602 38.071C92.2045 38.5426 92.5483 38.9062 92.9915 39.1619C93.4347 39.4176 93.9602 39.5455 94.5682 39.5455C94.9716 39.5455 95.3409 39.4886 95.6761 39.375C96.0114 39.2614 96.2983 39.0909 96.5369 38.8636C96.7756 38.6364 96.9574 38.358 97.0824 38.0284L100.44 38.25C100.27 39.0568 99.9205 39.7614 99.392 40.3636C98.8693 40.9602 98.1932 41.4261 97.3636 41.7614C96.5398 42.0909 95.5881 42.2557 94.5085 42.2557ZM111.663 24.5455L115.881 37.8068H116.043L120.271 24.5455H124.362L118.344 42H113.589L107.563 24.5455H111.663ZM126.394 42V28.9091H130.025V42H126.394ZM128.218 27.2216C127.678 27.2216 127.215 27.0426 126.829 26.6847C126.448 26.321 126.258 25.8864 126.258 25.3807C126.258 24.8807 126.448 24.4517 126.829 24.0938C127.215 23.7301 127.678 23.5483 128.218 23.5483C128.758 23.5483 129.218 23.7301 129.599 24.0938C129.985 24.4517 130.178 24.8807 130.178 25.3807C130.178 25.8864 129.985 26.321 129.599 26.6847C129.218 27.0426 128.758 27.2216 128.218 27.2216ZM143.825 32.642L140.501 32.8466C140.445 32.5625 140.322 32.3068 140.135 32.0795C139.947 31.8466 139.7 31.6619 139.393 31.5256C139.092 31.3835 138.732 31.3125 138.311 31.3125C137.749 31.3125 137.274 31.4318 136.888 31.6705C136.501 31.9034 136.308 32.2159 136.308 32.608C136.308 32.9205 136.433 33.1847 136.683 33.4006C136.933 33.6165 137.362 33.7898 137.97 33.9205L140.339 34.3977C141.612 34.6591 142.561 35.0795 143.186 35.6591C143.811 36.2386 144.124 37 144.124 37.9432C144.124 38.8011 143.871 39.554 143.365 40.2017C142.865 40.8494 142.178 41.3551 141.303 41.7188C140.433 42.0767 139.43 42.2557 138.294 42.2557C136.561 42.2557 135.18 41.8949 134.152 41.1733C133.129 40.446 132.53 39.4574 132.354 38.2074L135.925 38.0199C136.033 38.5483 136.294 38.9517 136.709 39.2301C137.124 39.5028 137.655 39.6392 138.303 39.6392C138.939 39.6392 139.45 39.517 139.837 39.2727C140.229 39.0227 140.428 38.7017 140.433 38.3097C140.428 37.9801 140.288 37.7102 140.016 37.5C139.743 37.2841 139.322 37.1193 138.754 37.0057L136.487 36.554C135.209 36.2983 134.257 35.8551 133.632 35.2244C133.013 34.5937 132.703 33.7898 132.703 32.8125C132.703 31.9716 132.93 31.2472 133.385 30.6392C133.845 30.0312 134.49 29.5625 135.32 29.233C136.155 28.9034 137.132 28.7386 138.251 28.7386C139.905 28.7386 141.206 29.0881 142.155 29.7869C143.109 30.4858 143.666 31.4375 143.825 32.642ZM146.41 42V28.9091H150.04V42H146.41ZM148.234 27.2216C147.694 27.2216 147.231 27.0426 146.844 26.6847C146.464 26.321 146.273 25.8864 146.273 25.3807C146.273 24.8807 146.464 24.4517 146.844 24.0938C147.231 23.7301 147.694 23.5483 148.234 23.5483C148.773 23.5483 149.234 23.7301 149.614 24.0938C150.001 24.4517 150.194 24.8807 150.194 25.3807C150.194 25.8864 150.001 26.321 149.614 26.6847C149.234 27.0426 148.773 27.2216 148.234 27.2216ZM159.912 28.9091V31.6364H152.028V28.9091H159.912ZM153.818 25.7727H157.449V37.9773C157.449 38.3125 157.5 38.5739 157.602 38.7614C157.705 38.9432 157.847 39.071 158.028 39.1449C158.216 39.2187 158.432 39.2557 158.676 39.2557C158.847 39.2557 159.017 39.2415 159.188 39.2131C159.358 39.179 159.489 39.1534 159.58 39.1364L160.151 41.8381C159.969 41.8949 159.713 41.9602 159.384 42.0341C159.054 42.1136 158.653 42.1619 158.182 42.179C157.307 42.2131 156.54 42.0966 155.881 41.8295C155.227 41.5625 154.719 41.1477 154.355 40.5852C153.991 40.0227 153.813 39.3125 153.818 38.4545V25.7727ZM168.051 42.2557C166.727 42.2557 165.582 41.9744 164.616 41.4119C163.656 40.8437 162.915 40.054 162.392 39.0426C161.869 38.0256 161.608 36.8466 161.608 35.5057C161.608 34.1534 161.869 32.9716 162.392 31.9602C162.915 30.9432 163.656 30.1534 164.616 29.5909C165.582 29.0227 166.727 28.7386 168.051 28.7386C169.375 28.7386 170.517 29.0227 171.477 29.5909C172.443 30.1534 173.188 30.9432 173.71 31.9602C174.233 32.9716 174.494 34.1534 174.494 35.5057C174.494 36.8466 174.233 38.0256 173.71 39.0426C173.188 40.054 172.443 40.8437 171.477 41.4119C170.517 41.9744 169.375 42.2557 168.051 42.2557ZM168.068 39.4432C168.67 39.4432 169.173 39.2727 169.577 38.9318C169.98 38.5852 170.284 38.1136 170.489 37.517C170.699 36.9205 170.804 36.2415 170.804 35.4801C170.804 34.7188 170.699 34.0398 170.489 33.4432C170.284 32.8466 169.98 32.375 169.577 32.0284C169.173 31.6818 168.67 31.5085 168.068 31.5085C167.46 31.5085 166.949 31.6818 166.534 32.0284C166.125 32.375 165.815 32.8466 165.605 33.4432C165.401 34.0398 165.298 34.7188 165.298 35.4801C165.298 36.2415 165.401 36.9205 165.605 37.517C165.815 38.1136 166.125 38.5852 166.534 38.9318C166.949 39.2727 167.46 39.4432 168.068 39.4432ZM176.855 42V28.9091H180.375V31.1932H180.511C180.75 30.3807 181.151 29.767 181.713 29.3523C182.276 28.9318 182.923 28.7216 183.656 28.7216C183.838 28.7216 184.034 28.733 184.244 28.7557C184.455 28.7784 184.639 28.8097 184.798 28.8494V32.071C184.628 32.0199 184.392 31.9744 184.091 31.9347C183.79 31.8949 183.514 31.875 183.264 31.875C182.73 31.875 182.253 31.9915 181.832 32.2244C181.418 32.4517 181.088 32.7699 180.844 33.179C180.605 33.5881 180.486 34.0597 180.486 34.5938V42H176.855ZM197.567 32.642L194.244 32.8466C194.187 32.5625 194.065 32.3068 193.877 32.0795C193.69 31.8466 193.442 31.6619 193.136 31.5256C192.835 31.3835 192.474 31.3125 192.053 31.3125C191.491 31.3125 191.016 31.4318 190.63 31.6705C190.244 31.9034 190.05 32.2159 190.05 32.608C190.05 32.9205 190.175 33.1847 190.425 33.4006C190.675 33.6165 191.104 33.7898 191.712 33.9205L194.082 34.3977C195.354 34.6591 196.303 35.0795 196.928 35.6591C197.553 36.2386 197.866 37 197.866 37.9432C197.866 38.8011 197.613 39.554 197.107 40.2017C196.607 40.8494 195.92 41.3551 195.045 41.7188C194.175 42.0767 193.173 42.2557 192.036 42.2557C190.303 42.2557 188.923 41.8949 187.894 41.1733C186.871 40.446 186.272 39.4574 186.096 38.2074L189.667 38.0199C189.775 38.5483 190.036 38.9517 190.451 39.2301C190.866 39.5028 191.397 39.6392 192.045 39.6392C192.681 39.6392 193.192 39.517 193.579 39.2727C193.971 39.0227 194.17 38.7017 194.175 38.3097C194.17 37.9801 194.031 37.7102 193.758 37.5C193.485 37.2841 193.065 37.1193 192.496 37.0057L190.229 36.554C188.951 36.2983 187.999 35.8551 187.374 35.2244C186.755 34.5937 186.445 33.7898 186.445 32.8125C186.445 31.9716 186.673 31.2472 187.127 30.6392C187.587 30.0312 188.232 29.5625 189.062 29.233C189.897 28.9034 190.874 28.7386 191.994 28.7386C193.647 28.7386 194.948 29.0881 195.897 29.7869C196.852 30.4858 197.408 31.4375 197.567 32.642Z" fill="#656565"/>
<rect x="36" y="135" width="188" height="35" rx="16" fill="#FFC0BE"/>
<path d="M130.086 114.459C130.867 115.24 132.133 115.24 132.914 114.459L145.642 101.731C146.423 100.95 146.423 99.6834 145.642 98.9024C144.861 98.1213 143.595 98.1213 142.814 98.9024L131.5 110.216L120.186 98.9024C119.405 98.1213 118.139 98.1213 117.358 98.9024C116.577 99.6834 116.577 100.95 117.358 101.731L130.086 114.459ZM131.5 61.9564H129.5L129.5 113.045H131.5H133.5L133.5 61.9564H131.5Z" fill="#D23737"/>
<path d="M81.0291 147.364V159H78.5689V149.699H78.5007L75.8359 151.369V149.188L78.7166 147.364H81.0291ZM88.3572 159.256C87.38 159.252 86.5391 159.011 85.8345 158.534C85.1338 158.057 84.594 157.366 84.2152 156.46C83.8402 155.555 83.6546 154.466 83.6584 153.193C83.6584 151.924 83.8459 150.843 84.2209 149.949C84.5997 149.055 85.1394 148.375 85.8402 147.909C86.5447 147.439 87.3838 147.205 88.3572 147.205C89.3307 147.205 90.1679 147.439 90.8686 147.909C91.5732 148.379 92.1148 149.061 92.4936 149.955C92.8724 150.845 93.0599 151.924 93.0561 153.193C93.0561 154.47 92.8667 155.561 92.4879 156.466C92.1129 157.371 91.575 158.062 90.8743 158.54C90.1735 159.017 89.3345 159.256 88.3572 159.256ZM88.3572 157.216C89.0239 157.216 89.5561 156.881 89.9538 156.21C90.3516 155.54 90.5485 154.534 90.5447 153.193C90.5447 152.311 90.4538 151.576 90.272 150.989C90.094 150.402 89.8402 149.96 89.5107 149.665C89.1849 149.369 88.8004 149.222 88.3572 149.222C87.6944 149.222 87.1641 149.553 86.7663 150.216C86.3686 150.879 86.1679 151.871 86.1641 153.193C86.1641 154.087 86.2531 154.833 86.4311 155.432C86.6129 156.027 86.8686 156.473 87.1982 156.773C87.5277 157.068 87.9141 157.216 88.3572 157.216ZM101.18 156.818V156.205C101.18 155.739 101.278 155.311 101.475 154.92C101.676 154.527 101.966 154.212 102.344 153.977C102.727 153.739 103.193 153.619 103.742 153.619C104.299 153.619 104.767 153.737 105.146 153.972C105.528 154.206 105.816 154.521 106.009 154.915C106.206 155.305 106.305 155.735 106.305 156.205V156.818C106.305 157.284 106.206 157.714 106.009 158.108C105.812 158.498 105.522 158.811 105.14 159.045C104.757 159.284 104.291 159.403 103.742 159.403C103.185 159.403 102.718 159.284 102.339 159.045C101.96 158.811 101.672 158.498 101.475 158.108C101.278 157.714 101.18 157.284 101.18 156.818ZM102.833 156.205V156.818C102.833 157.087 102.897 157.341 103.026 157.58C103.159 157.818 103.397 157.938 103.742 157.938C104.087 157.938 104.322 157.82 104.447 157.585C104.576 157.35 104.64 157.095 104.64 156.818V156.205C104.64 155.928 104.579 155.67 104.458 155.432C104.337 155.193 104.098 155.074 103.742 155.074C103.401 155.074 103.165 155.193 103.032 155.432C102.899 155.67 102.833 155.928 102.833 156.205ZM95.2081 150.159V149.545C95.2081 149.076 95.3085 148.646 95.5092 148.256C95.71 147.862 95.9998 147.547 96.3786 147.312C96.7611 147.078 97.2232 146.96 97.7649 146.96C98.3255 146.96 98.7952 147.078 99.174 147.312C99.5528 147.547 99.8407 147.862 100.038 148.256C100.235 148.646 100.333 149.076 100.333 149.545V150.159C100.333 150.629 100.233 151.059 100.032 151.449C99.835 151.839 99.5452 152.152 99.1626 152.386C98.7839 152.617 98.3179 152.733 97.7649 152.733C97.2119 152.733 96.7441 152.616 96.3615 152.381C95.9827 152.142 95.6948 151.83 95.4979 151.443C95.3047 151.053 95.2081 150.625 95.2081 150.159ZM96.8729 149.545V150.159C96.8729 150.436 96.9373 150.691 97.0661 150.926C97.1986 151.161 97.4316 151.278 97.7649 151.278C98.1134 151.278 98.3501 151.161 98.4751 150.926C98.6039 150.691 98.6683 150.436 98.6683 150.159V149.545C98.6683 149.269 98.6077 149.011 98.4865 148.773C98.3653 148.534 98.1248 148.415 97.7649 148.415C97.4278 148.415 97.1948 148.536 97.0661 148.778C96.9373 149.021 96.8729 149.277 96.8729 149.545ZM95.9581 159L103.958 147.364H105.447L97.4467 159H95.9581ZM115.502 159.142C114.839 159.142 114.239 158.972 113.701 158.631C113.167 158.286 112.743 157.78 112.428 157.114C112.118 156.443 111.962 155.621 111.962 154.648C111.962 153.648 112.123 152.816 112.445 152.153C112.767 151.487 113.195 150.989 113.729 150.659C114.267 150.326 114.856 150.159 115.496 150.159C115.985 150.159 116.392 150.242 116.718 150.409C117.048 150.572 117.313 150.777 117.513 151.023C117.718 151.265 117.873 151.504 117.979 151.739H118.053V147.364H120.468V159H118.082V157.602H117.979C117.866 157.845 117.705 158.085 117.496 158.324C117.292 158.559 117.025 158.754 116.695 158.909C116.37 159.064 115.972 159.142 115.502 159.142ZM116.269 157.216C116.659 157.216 116.989 157.11 117.258 156.898C117.531 156.682 117.739 156.381 117.883 155.994C118.031 155.608 118.104 155.155 118.104 154.636C118.104 154.117 118.032 153.667 117.888 153.284C117.745 152.902 117.536 152.606 117.263 152.398C116.991 152.189 116.659 152.085 116.269 152.085C115.871 152.085 115.536 152.193 115.263 152.409C114.991 152.625 114.784 152.924 114.644 153.307C114.504 153.689 114.434 154.133 114.434 154.636C114.434 155.144 114.504 155.593 114.644 155.983C114.788 156.369 114.995 156.672 115.263 156.892C115.536 157.108 115.871 157.216 116.269 157.216ZM126.435 159.17C125.538 159.17 124.765 158.989 124.117 158.625C123.473 158.258 122.977 157.739 122.629 157.068C122.28 156.394 122.106 155.597 122.106 154.676C122.106 153.778 122.28 152.991 122.629 152.312C122.977 151.634 123.468 151.106 124.1 150.727C124.737 150.348 125.483 150.159 126.339 150.159C126.915 150.159 127.451 150.252 127.947 150.438C128.447 150.619 128.882 150.894 129.254 151.261C129.629 151.629 129.92 152.091 130.129 152.648C130.337 153.201 130.441 153.848 130.441 154.591V155.256H123.072V153.756H128.163C128.163 153.407 128.087 153.098 127.935 152.83C127.784 152.561 127.574 152.35 127.305 152.199C127.04 152.044 126.731 151.966 126.379 151.966C126.011 151.966 125.685 152.051 125.401 152.222C125.121 152.388 124.901 152.614 124.742 152.898C124.583 153.178 124.502 153.491 124.498 153.835V155.261C124.498 155.693 124.577 156.066 124.737 156.381C124.899 156.695 125.129 156.938 125.424 157.108C125.719 157.278 126.07 157.364 126.475 157.364C126.744 157.364 126.99 157.326 127.214 157.25C127.437 157.174 127.629 157.061 127.788 156.909C127.947 156.758 128.068 156.572 128.151 156.352L130.39 156.5C130.276 157.038 130.043 157.508 129.691 157.909C129.343 158.307 128.892 158.617 128.339 158.841C127.79 159.061 127.155 159.17 126.435 159.17ZM135.964 159.17C135.07 159.17 134.301 158.981 133.657 158.602C133.017 158.22 132.524 157.689 132.18 157.011C131.839 156.333 131.668 155.553 131.668 154.67C131.668 153.777 131.841 152.992 132.185 152.318C132.534 151.64 133.028 151.112 133.668 150.733C134.308 150.35 135.07 150.159 135.952 150.159C136.714 150.159 137.38 150.297 137.952 150.574C138.524 150.85 138.977 151.239 139.31 151.739C139.644 152.239 139.827 152.826 139.862 153.5H137.577C137.513 153.064 137.343 152.714 137.066 152.449C136.793 152.18 136.435 152.045 135.992 152.045C135.617 152.045 135.29 152.148 135.009 152.352C134.733 152.553 134.517 152.847 134.362 153.233C134.206 153.619 134.129 154.087 134.129 154.636C134.129 155.193 134.204 155.667 134.356 156.057C134.511 156.447 134.729 156.744 135.009 156.949C135.29 157.153 135.617 157.256 135.992 157.256C136.269 157.256 136.517 157.199 136.737 157.085C136.96 156.972 137.144 156.807 137.288 156.591C137.435 156.371 137.532 156.108 137.577 155.801H139.862C139.824 156.468 139.642 157.055 139.316 157.562C138.994 158.066 138.549 158.46 137.981 158.744C137.413 159.028 136.74 159.17 135.964 159.17ZM141.411 159V150.273H143.758V151.795H143.849C144.008 151.254 144.275 150.845 144.65 150.568C145.025 150.288 145.457 150.148 145.945 150.148C146.067 150.148 146.197 150.155 146.337 150.17C146.478 150.186 146.601 150.206 146.707 150.233V152.381C146.593 152.347 146.436 152.316 146.235 152.29C146.034 152.263 145.851 152.25 145.684 152.25C145.328 152.25 145.01 152.328 144.729 152.483C144.453 152.634 144.233 152.847 144.07 153.119C143.911 153.392 143.832 153.706 143.832 154.062V159H141.411ZM151.529 159.17C150.631 159.17 149.859 158.989 149.211 158.625C148.567 158.258 148.071 157.739 147.722 157.068C147.374 156.394 147.2 155.597 147.2 154.676C147.2 153.778 147.374 152.991 147.722 152.312C148.071 151.634 148.561 151.106 149.194 150.727C149.83 150.348 150.576 150.159 151.433 150.159C152.008 150.159 152.544 150.252 153.04 150.438C153.54 150.619 153.976 150.894 154.347 151.261C154.722 151.629 155.014 152.091 155.222 152.648C155.431 153.201 155.535 153.848 155.535 154.591V155.256H148.165V153.756H153.256C153.256 153.407 153.181 153.098 153.029 152.83C152.878 152.561 152.667 152.35 152.398 152.199C152.133 152.044 151.825 151.966 151.472 151.966C151.105 151.966 150.779 152.051 150.495 152.222C150.215 152.388 149.995 152.614 149.836 152.898C149.677 153.178 149.595 153.491 149.592 153.835V155.261C149.592 155.693 149.671 156.066 149.83 156.381C149.993 156.695 150.222 156.938 150.518 157.108C150.813 157.278 151.164 157.364 151.569 157.364C151.838 157.364 152.084 157.326 152.308 157.25C152.531 157.174 152.722 157.061 152.881 156.909C153.04 156.758 153.162 156.572 153.245 156.352L155.484 156.5C155.37 157.038 155.137 157.508 154.785 157.909C154.436 158.307 153.986 158.617 153.433 158.841C152.883 159.061 152.249 159.17 151.529 159.17ZM159.603 159.165C159.046 159.165 158.55 159.068 158.114 158.875C157.679 158.678 157.334 158.388 157.08 158.006C156.83 157.619 156.705 157.138 156.705 156.562C156.705 156.078 156.794 155.67 156.972 155.341C157.15 155.011 157.393 154.746 157.7 154.545C158.006 154.345 158.355 154.193 158.745 154.091C159.139 153.989 159.552 153.917 159.984 153.875C160.491 153.822 160.9 153.773 161.211 153.727C161.522 153.678 161.747 153.606 161.887 153.511C162.027 153.417 162.097 153.277 162.097 153.091V153.057C162.097 152.697 161.984 152.419 161.756 152.222C161.533 152.025 161.215 151.926 160.802 151.926C160.366 151.926 160.02 152.023 159.762 152.216C159.504 152.405 159.334 152.644 159.251 152.932L157.012 152.75C157.126 152.22 157.349 151.761 157.683 151.375C158.016 150.985 158.446 150.686 158.972 150.477C159.503 150.265 160.116 150.159 160.813 150.159C161.298 150.159 161.762 150.216 162.205 150.33C162.652 150.443 163.048 150.619 163.393 150.858C163.741 151.097 164.016 151.403 164.217 151.778C164.417 152.15 164.518 152.595 164.518 153.114V159H162.222V157.79H162.154C162.014 158.062 161.826 158.303 161.592 158.511C161.357 158.716 161.075 158.877 160.745 158.994C160.415 159.108 160.035 159.165 159.603 159.165ZM160.296 157.494C160.652 157.494 160.967 157.424 161.239 157.284C161.512 157.14 161.726 156.947 161.881 156.705C162.037 156.462 162.114 156.187 162.114 155.881V154.955C162.039 155.004 161.934 155.049 161.802 155.091C161.673 155.129 161.527 155.165 161.364 155.199C161.201 155.229 161.039 155.258 160.876 155.284C160.713 155.307 160.565 155.328 160.433 155.347C160.148 155.388 159.9 155.455 159.688 155.545C159.476 155.636 159.311 155.759 159.194 155.915C159.076 156.066 159.018 156.256 159.018 156.483C159.018 156.812 159.137 157.064 159.376 157.239C159.618 157.409 159.925 157.494 160.296 157.494ZM173.657 152.761L171.441 152.898C171.403 152.708 171.322 152.538 171.197 152.386C171.072 152.231 170.907 152.108 170.702 152.017C170.502 151.922 170.261 151.875 169.981 151.875C169.606 151.875 169.29 151.955 169.032 152.114C168.774 152.269 168.646 152.477 168.646 152.739C168.646 152.947 168.729 153.123 168.896 153.267C169.062 153.411 169.348 153.527 169.754 153.614L171.333 153.932C172.182 154.106 172.814 154.386 173.231 154.773C173.647 155.159 173.856 155.667 173.856 156.295C173.856 156.867 173.687 157.369 173.35 157.801C173.017 158.233 172.558 158.57 171.975 158.812C171.396 159.051 170.727 159.17 169.969 159.17C168.814 159.17 167.894 158.93 167.208 158.449C166.526 157.964 166.127 157.305 166.009 156.472L168.39 156.347C168.462 156.699 168.636 156.968 168.913 157.153C169.189 157.335 169.543 157.426 169.975 157.426C170.399 157.426 170.74 157.345 170.998 157.182C171.259 157.015 171.392 156.801 171.396 156.54C171.392 156.32 171.299 156.14 171.117 156C170.935 155.856 170.655 155.746 170.276 155.67L168.765 155.369C167.913 155.199 167.278 154.903 166.862 154.483C166.449 154.062 166.242 153.527 166.242 152.875C166.242 152.314 166.394 151.831 166.697 151.426C167.004 151.021 167.433 150.708 167.987 150.489C168.543 150.269 169.195 150.159 169.941 150.159C171.043 150.159 171.911 150.392 172.543 150.858C173.18 151.324 173.551 151.958 173.657 152.761ZM179.357 159.17C178.46 159.17 177.687 158.989 177.039 158.625C176.395 158.258 175.899 157.739 175.55 157.068C175.202 156.394 175.028 155.597 175.028 154.676C175.028 153.778 175.202 152.991 175.55 152.312C175.899 151.634 176.389 151.106 177.022 150.727C177.658 150.348 178.405 150.159 179.261 150.159C179.836 150.159 180.372 150.252 180.869 150.438C181.369 150.619 181.804 150.894 182.175 151.261C182.55 151.629 182.842 152.091 183.05 152.648C183.259 153.201 183.363 153.848 183.363 154.591V155.256H175.994V153.756H181.085C181.085 153.407 181.009 153.098 180.857 152.83C180.706 152.561 180.496 152.35 180.227 152.199C179.961 152.044 179.653 151.966 179.3 151.966C178.933 151.966 178.607 152.051 178.323 152.222C178.043 152.388 177.823 152.614 177.664 152.898C177.505 153.178 177.424 153.491 177.42 153.835V155.261C177.42 155.693 177.499 156.066 177.658 156.381C177.821 156.695 178.05 156.938 178.346 157.108C178.641 157.278 178.992 157.364 179.397 157.364C179.666 157.364 179.912 157.326 180.136 157.25C180.359 157.174 180.55 157.061 180.71 156.909C180.869 156.758 180.99 156.572 181.073 156.352L183.312 156.5C183.198 157.038 182.965 157.508 182.613 157.909C182.264 158.307 181.814 158.617 181.261 158.841C180.711 159.061 180.077 159.17 179.357 159.17Z" fill="#D23737"/>
</svg>
