<svg width="415" height="200" viewBox="0 0 415 200" fill="none" xmlns="http://www.w3.org/2000/svg">
<rect width="415" height="200" rx="16" fill="#ECECEC"/>
<path d="M31.5682 34.5455H33.6818V46.1023C33.6818 47.2955 33.4006 48.3608 32.8381 49.2983C32.2813 50.2301 31.4943 50.9659 30.4773 51.5057C29.4602 52.0398 28.267 52.3068 26.8977 52.3068C25.5284 52.3068 24.3352 52.0398 23.3182 51.5057C22.3011 50.9659 21.5114 50.2301 20.9489 49.2983C20.392 48.3608 20.1136 47.2955 20.1136 46.1023V34.5455H22.2273V45.9318C22.2273 46.7841 22.4148 47.5426 22.7898 48.2074C23.1648 48.8665 23.6989 49.3864 24.392 49.767C25.0909 50.142 25.9261 50.3295 26.8977 50.3295C27.8693 50.3295 28.7045 50.142 29.4034 49.767C30.1023 49.3864 30.6364 48.8665 31.0057 48.2074C31.3807 47.5426 31.5682 46.7841 31.5682 45.9318V34.5455ZM39.6413 44.125V52H37.63V38.9091H39.5732V40.9545H39.7436C40.0504 40.2898 40.5163 39.7557 41.1413 39.3523C41.7663 38.9432 42.5732 38.7386 43.5618 38.7386C44.4482 38.7386 45.2237 38.9205 45.8885 39.2841C46.5533 39.642 47.0703 40.1875 47.4396 40.9205C47.8089 41.6477 47.9936 42.5682 47.9936 43.6818V52H45.9822V43.8182C45.9822 42.7898 45.7152 41.9886 45.1811 41.4148C44.647 40.8352 43.9141 40.5455 42.9822 40.5455C42.3402 40.5455 41.7663 40.6847 41.2607 40.9631C40.7607 41.2415 40.3658 41.6477 40.076 42.1818C39.7862 42.7159 39.6413 43.3636 39.6413 44.125ZM51.669 52V38.9091H53.6804V52H51.669ZM52.6918 36.7273C52.2997 36.7273 51.9616 36.5938 51.6776 36.3267C51.3991 36.0597 51.2599 35.7386 51.2599 35.3636C51.2599 34.9886 51.3991 34.6676 51.6776 34.4006C51.9616 34.1335 52.2997 34 52.6918 34C53.0838 34 53.419 34.1335 53.6974 34.4006C53.9815 34.6676 54.1236 34.9886 54.1236 35.3636C54.1236 35.7386 53.9815 36.0597 53.6974 36.3267C53.419 36.5938 53.0838 36.7273 52.6918 36.7273ZM66.2962 56.9091V49.9886H66.1257C65.978 50.2273 65.7678 50.5284 65.495 50.892C65.2223 51.25 64.8331 51.571 64.3274 51.8551C63.8217 52.1335 63.1484 52.2727 62.3075 52.2727C61.2166 52.2727 60.2536 51.9972 59.4183 51.446C58.5831 50.8892 57.9297 50.1051 57.4581 49.0938C56.9865 48.0767 56.7507 46.875 56.7507 45.4886C56.7507 44.1136 56.9865 42.9205 57.4581 41.9091C57.9297 40.8977 58.5859 40.1165 59.4268 39.5653C60.2678 39.0142 61.2393 38.7386 62.3416 38.7386C63.1939 38.7386 63.8672 38.8807 64.3615 39.1648C64.8615 39.4432 65.2422 39.7614 65.5036 40.1193C65.7706 40.4716 65.978 40.7614 66.1257 40.9886H66.3643V38.9091H68.3075V56.9091H66.2962ZM62.5803 50.4659C63.3871 50.4659 64.0689 50.2557 64.6257 49.8352C65.1825 49.4091 65.6058 48.821 65.8956 48.071C66.1854 47.3153 66.3303 46.4432 66.3303 45.4545C66.3303 44.4773 66.1882 43.6222 65.9041 42.8892C65.62 42.1506 65.1996 41.5767 64.6428 41.1676C64.0859 40.7528 63.3984 40.5455 62.5803 40.5455C61.728 40.5455 61.0178 40.7642 60.4496 41.2017C59.8871 41.6335 59.4638 42.2216 59.1797 42.9659C58.9013 43.7045 58.7621 44.5341 58.7621 45.4545C58.7621 46.3864 58.9041 47.233 59.1882 47.9943C59.478 48.75 59.9041 49.3523 60.4666 49.8011C61.0348 50.2443 61.7393 50.4659 62.5803 50.4659ZM80.2393 46.6477V38.9091H82.2507V52H80.2393V49.7841H80.103C79.7962 50.4489 79.3189 51.0142 78.6712 51.4801C78.0234 51.9403 77.2053 52.1705 76.2166 52.1705C75.3984 52.1705 74.6712 51.9915 74.0348 51.6335C73.3984 51.2699 72.8984 50.7244 72.5348 49.9972C72.1712 49.2642 71.9893 48.3409 71.9893 47.2273V38.9091H74.0007V47.0909C74.0007 48.0455 74.2678 48.8068 74.8018 49.375C75.3416 49.9432 76.0291 50.2273 76.8643 50.2273C77.3643 50.2273 77.8729 50.0994 78.3899 49.8438C78.9126 49.5881 79.3501 49.196 79.7024 48.6676C80.0604 48.1392 80.2393 47.4659 80.2393 46.6477ZM91.4233 52.2727C90.1619 52.2727 89.0739 51.9943 88.1591 51.4375C87.25 50.875 86.5483 50.0909 86.054 49.0852C85.5653 48.0739 85.321 46.8977 85.321 45.5568C85.321 44.2159 85.5653 43.0341 86.054 42.0114C86.5483 40.983 87.2358 40.1818 88.1165 39.608C89.0028 39.0284 90.0369 38.7386 91.2188 38.7386C91.9006 38.7386 92.5739 38.8523 93.2386 39.0795C93.9034 39.3068 94.5085 39.6761 95.054 40.1875C95.5994 40.6932 96.0341 41.3636 96.358 42.1989C96.6818 43.0341 96.8438 44.0625 96.8438 45.2841V46.1364H86.7528V44.3977H94.7983C94.7983 43.6591 94.6506 43 94.3551 42.4205C94.0653 41.8409 93.6506 41.3835 93.1108 41.0483C92.5767 40.7131 91.946 40.5455 91.2188 40.5455C90.4176 40.5455 89.7244 40.7443 89.1392 41.142C88.5597 41.5341 88.1136 42.0455 87.8011 42.6761C87.4886 43.3068 87.3324 43.983 87.3324 44.7045V45.8636C87.3324 46.8523 87.5028 47.6903 87.8438 48.3778C88.1903 49.0597 88.6705 49.5795 89.2841 49.9375C89.8977 50.2898 90.6108 50.4659 91.4233 50.4659C91.9517 50.4659 92.429 50.392 92.8551 50.2443C93.2869 50.0909 93.6591 49.8636 93.9716 49.5625C94.2841 49.2557 94.5256 48.875 94.696 48.4205L96.6392 48.9659C96.4347 49.625 96.0909 50.2045 95.608 50.7045C95.125 51.1989 94.5284 51.5852 93.8182 51.8636C93.108 52.1364 92.3097 52.2727 91.4233 52.2727ZM107.642 34.5455L112.824 49.2386H113.028L118.21 34.5455H120.426L114.017 52H111.835L105.426 34.5455H107.642ZM122.872 52V38.9091H124.884V52H122.872ZM123.895 36.7273C123.503 36.7273 123.165 36.5938 122.881 36.3267C122.602 36.0597 122.463 35.7386 122.463 35.3636C122.463 34.9886 122.602 34.6676 122.881 34.4006C123.165 34.1335 123.503 34 123.895 34C124.287 34 124.622 34.1335 124.901 34.4006C125.185 34.6676 125.327 34.9886 125.327 35.3636C125.327 35.7386 125.185 36.0597 124.901 36.3267C124.622 36.5938 124.287 36.7273 123.895 36.7273ZM137.84 41.8409L136.033 42.3523C135.92 42.0511 135.752 41.7585 135.531 41.4744C135.315 41.1847 135.019 40.946 134.644 40.7585C134.269 40.571 133.789 40.4773 133.204 40.4773C132.403 40.4773 131.735 40.6619 131.201 41.0312C130.673 41.3949 130.408 41.858 130.408 42.4205C130.408 42.9205 130.59 43.3153 130.954 43.6051C131.317 43.8949 131.886 44.1364 132.658 44.3295L134.602 44.8068C135.772 45.0909 136.644 45.5256 137.218 46.1108C137.792 46.6903 138.079 47.4375 138.079 48.3523C138.079 49.1023 137.863 49.7727 137.431 50.3636C137.005 50.9545 136.408 51.4205 135.641 51.7614C134.874 52.1023 133.982 52.2727 132.965 52.2727C131.63 52.2727 130.525 51.983 129.65 51.4034C128.775 50.8239 128.221 49.9773 127.988 48.8636L129.897 48.3864C130.079 49.0909 130.423 49.6193 130.928 49.9716C131.44 50.3239 132.107 50.5 132.931 50.5C133.869 50.5 134.613 50.3011 135.164 49.9034C135.721 49.5 135.999 49.017 135.999 48.4545C135.999 48 135.84 47.6193 135.522 47.3125C135.204 47 134.715 46.767 134.056 46.6136L131.874 46.1023C130.675 45.8182 129.795 45.3778 129.232 44.7812C128.675 44.179 128.397 43.4261 128.397 42.5227C128.397 41.7841 128.604 41.1307 129.019 40.5625C129.44 39.9943 130.011 39.5483 130.732 39.2244C131.46 38.9006 132.283 38.7386 133.204 38.7386C134.499 38.7386 135.516 39.0227 136.255 39.5909C136.999 40.1591 137.528 40.9091 137.84 41.8409ZM141.107 52V38.9091H143.118V52H141.107ZM142.129 36.7273C141.737 36.7273 141.399 36.5938 141.115 36.3267C140.837 36.0597 140.697 35.7386 140.697 35.3636C140.697 34.9886 140.837 34.6676 141.115 34.4006C141.399 34.1335 141.737 34 142.129 34C142.521 34 142.857 34.1335 143.135 34.4006C143.419 34.6676 143.561 34.9886 143.561 35.3636C143.561 35.7386 143.419 36.0597 143.135 36.3267C142.857 36.5938 142.521 36.7273 142.129 36.7273ZM152.495 38.9091V40.6136H145.711V38.9091H152.495ZM147.688 35.7727H149.7V48.25C149.7 48.8182 149.782 49.2443 149.947 49.5284C150.117 49.8068 150.333 49.9943 150.594 50.0909C150.862 50.1818 151.143 50.2273 151.438 50.2273C151.66 50.2273 151.842 50.2159 151.984 50.1932C152.126 50.1648 152.239 50.142 152.325 50.125L152.734 51.9318C152.597 51.983 152.407 52.0341 152.163 52.0852C151.918 52.142 151.609 52.1705 151.234 52.1705C150.665 52.1705 150.109 52.0483 149.563 51.804C149.023 51.5597 148.575 51.1875 148.217 50.6875C147.864 50.1875 147.688 49.5568 147.688 48.7955V35.7727ZM160.698 52.2727C159.516 52.2727 158.479 51.9915 157.587 51.429C156.701 50.8665 156.008 50.0795 155.508 49.0682C155.013 48.0568 154.766 46.875 154.766 45.5227C154.766 44.1591 155.013 42.9687 155.508 41.9517C156.008 40.9347 156.701 40.1449 157.587 39.5824C158.479 39.0199 159.516 38.7386 160.698 38.7386C161.88 38.7386 162.914 39.0199 163.8 39.5824C164.692 40.1449 165.386 40.9347 165.88 41.9517C166.38 42.9687 166.63 44.1591 166.63 45.5227C166.63 46.875 166.38 48.0568 165.88 49.0682C165.386 50.0795 164.692 50.8665 163.8 51.429C162.914 51.9915 161.88 52.2727 160.698 52.2727ZM160.698 50.4659C161.596 50.4659 162.335 50.2358 162.914 49.7756C163.494 49.3153 163.923 48.7102 164.201 47.9602C164.479 47.2102 164.619 46.3977 164.619 45.5227C164.619 44.6477 164.479 43.8324 164.201 43.0767C163.923 42.321 163.494 41.7102 162.914 41.2443C162.335 40.7784 161.596 40.5455 160.698 40.5455C159.8 40.5455 159.062 40.7784 158.482 41.2443C157.903 41.7102 157.474 42.321 157.195 43.0767C156.917 43.8324 156.778 44.6477 156.778 45.5227C156.778 46.3977 156.917 47.2102 157.195 47.9602C157.474 48.7102 157.903 49.3153 158.482 49.7756C159.062 50.2358 159.8 50.4659 160.698 50.4659ZM169.7 52V38.9091H171.643V40.8864H171.78C172.018 40.2386 172.45 39.7131 173.075 39.3097C173.7 38.9062 174.405 38.7045 175.189 38.7045C175.337 38.7045 175.521 38.7074 175.743 38.7131C175.964 38.7187 176.132 38.7273 176.246 38.7386V40.7841C176.178 40.767 176.021 40.7415 175.777 40.7074C175.538 40.6676 175.286 40.6477 175.018 40.6477C174.382 40.6477 173.814 40.7812 173.314 41.0483C172.82 41.3097 172.428 41.6733 172.138 42.1392C171.854 42.5994 171.712 43.125 171.712 43.7159V52H169.7ZM187.903 41.8409L186.096 42.3523C185.982 42.0511 185.815 41.7585 185.593 41.4744C185.377 41.1847 185.082 40.946 184.707 40.7585C184.332 40.571 183.852 40.4773 183.266 40.4773C182.465 40.4773 181.798 40.6619 181.263 41.0312C180.735 41.3949 180.471 41.858 180.471 42.4205C180.471 42.9205 180.653 43.3153 181.016 43.6051C181.38 43.8949 181.948 44.1364 182.721 44.3295L184.664 44.8068C185.835 45.0909 186.707 45.5256 187.281 46.1108C187.854 46.6903 188.141 47.4375 188.141 48.3523C188.141 49.1023 187.925 49.7727 187.494 50.3636C187.067 50.9545 186.471 51.4205 185.704 51.7614C184.937 52.1023 184.045 52.2727 183.028 52.2727C181.692 52.2727 180.587 51.983 179.712 51.4034C178.837 50.8239 178.283 49.9773 178.05 48.8636L179.96 48.3864C180.141 49.0909 180.485 49.6193 180.991 49.9716C181.502 50.3239 182.17 50.5 182.994 50.5C183.931 50.5 184.675 50.3011 185.227 49.9034C185.783 49.5 186.062 49.017 186.062 48.4545C186.062 48 185.903 47.6193 185.585 47.3125C185.266 47 184.778 46.767 184.119 46.6136L181.937 46.1023C180.738 45.8182 179.857 45.3778 179.295 44.7812C178.738 44.179 178.46 43.4261 178.46 42.5227C178.46 41.7841 178.667 41.1307 179.082 40.5625C179.502 39.9943 180.073 39.5483 180.795 39.2244C181.522 38.9006 182.346 38.7386 183.266 38.7386C184.562 38.7386 185.579 39.0227 186.317 39.5909C187.062 40.1591 187.59 40.9091 187.903 41.8409Z" fill="#656565"/>
<rect x="332" y="15" width="73" height="35" rx="16" fill="#FFC0BE"/>
<path d="M353.505 31.2216V33.142H348.198V31.2216H353.505ZM364.31 26.3636V38H361.85V28.6989H361.782L359.117 30.3693V28.1875L361.998 26.3636H364.31ZM371.638 38.2557C370.661 38.2519 369.82 38.0114 369.116 37.5341C368.415 37.0568 367.875 36.3655 367.496 35.4602C367.121 34.5549 366.936 33.4659 366.94 32.1932C366.94 30.9242 367.127 29.8428 367.502 28.9489C367.881 28.0549 368.421 27.375 369.121 26.9091C369.826 26.4394 370.665 26.2045 371.638 26.2045C372.612 26.2045 373.449 26.4394 374.15 26.9091C374.854 27.3788 375.396 28.0606 375.775 28.9545C376.154 29.8447 376.341 30.9242 376.337 32.1932C376.337 33.4697 376.148 34.5606 375.769 35.4659C375.394 36.3712 374.856 37.0625 374.156 37.5398C373.455 38.017 372.616 38.2557 371.638 38.2557ZM371.638 36.2159C372.305 36.2159 372.837 35.8807 373.235 35.2102C373.633 34.5398 373.83 33.5341 373.826 32.1932C373.826 31.3106 373.735 30.5758 373.553 29.9886C373.375 29.4015 373.121 28.9602 372.792 28.6648C372.466 28.3693 372.082 28.2216 371.638 28.2216C370.976 28.2216 370.445 28.553 370.048 29.2159C369.65 29.8788 369.449 30.8712 369.445 32.1932C369.445 33.0871 369.534 33.8333 369.712 34.4318C369.894 35.0265 370.15 35.4735 370.479 35.7727C370.809 36.0682 371.195 36.2159 371.638 36.2159ZM384.461 35.8182V35.2045C384.461 34.7386 384.559 34.3106 384.756 33.9205C384.957 33.5265 385.247 33.2121 385.626 32.9773C386.008 32.7386 386.474 32.6193 387.023 32.6193C387.58 32.6193 388.048 32.7367 388.427 32.9716C388.809 33.2064 389.097 33.5208 389.29 33.9148C389.487 34.3049 389.586 34.7348 389.586 35.2045V35.8182C389.586 36.2841 389.487 36.714 389.29 37.108C389.094 37.4981 388.804 37.8106 388.421 38.0455C388.039 38.2841 387.573 38.4034 387.023 38.4034C386.467 38.4034 385.999 38.2841 385.62 38.0455C385.241 37.8106 384.953 37.4981 384.756 37.108C384.559 36.714 384.461 36.2841 384.461 35.8182ZM386.114 35.2045V35.8182C386.114 36.0871 386.179 36.3409 386.308 36.5795C386.44 36.8182 386.679 36.9375 387.023 36.9375C387.368 36.9375 387.603 36.8201 387.728 36.5852C387.857 36.3504 387.921 36.0947 387.921 35.8182V35.2045C387.921 34.928 387.861 34.6705 387.739 34.4318C387.618 34.1932 387.379 34.0739 387.023 34.0739C386.683 34.0739 386.446 34.1932 386.313 34.4318C386.181 34.6705 386.114 34.928 386.114 35.2045ZM378.489 29.1591V28.5455C378.489 28.0758 378.59 27.6458 378.79 27.2557C378.991 26.8617 379.281 26.5473 379.66 26.3125C380.042 26.0777 380.504 25.9602 381.046 25.9602C381.607 25.9602 382.076 26.0777 382.455 26.3125C382.834 26.5473 383.122 26.8617 383.319 27.2557C383.516 27.6458 383.614 28.0758 383.614 28.5455V29.1591C383.614 29.6288 383.514 30.0587 383.313 30.4489C383.116 30.839 382.826 31.1515 382.444 31.3864C382.065 31.6174 381.599 31.733 381.046 31.733C380.493 31.733 380.025 31.6155 379.643 31.3807C379.264 31.142 378.976 30.8295 378.779 30.4432C378.586 30.053 378.489 29.625 378.489 29.1591ZM380.154 28.5455V29.1591C380.154 29.4356 380.219 29.6913 380.347 29.9261C380.48 30.161 380.713 30.2784 381.046 30.2784C381.395 30.2784 381.631 30.161 381.756 29.9261C381.885 29.6913 381.95 29.4356 381.95 29.1591V28.5455C381.95 28.2689 381.889 28.0114 381.768 27.7727C381.647 27.5341 381.406 27.4148 381.046 27.4148C380.709 27.4148 380.476 27.536 380.347 27.7784C380.219 28.0208 380.154 28.2765 380.154 28.5455ZM379.239 38L387.239 26.3636H388.728L380.728 38H379.239Z" fill="#7F1F1F"/>
<path d="M27.0085 76.5455V94H23.3182V80.0483H23.2159L19.2188 82.554V79.2812L23.5398 76.5455H27.0085ZM38.7507 76.5455V94H35.0604V80.0483H34.9581L30.9609 82.554V79.2812L35.282 76.5455H38.7507ZM49.2741 94.2386C48.0696 94.2386 46.9957 94.017 46.0526 93.5739C45.1151 93.1307 44.3707 92.5199 43.8196 91.7415C43.2685 90.9631 42.9815 90.071 42.9588 89.0653H46.5384C46.5781 89.7415 46.8622 90.2898 47.3906 90.7102C47.919 91.1307 48.5469 91.3409 49.2741 91.3409C49.8537 91.3409 50.3651 91.2131 50.8082 90.9574C51.2571 90.696 51.6065 90.3352 51.8565 89.875C52.1122 89.4091 52.2401 88.875 52.2401 88.2727C52.2401 87.6591 52.1094 87.1193 51.848 86.6534C51.5923 86.1875 51.2372 85.8239 50.7827 85.5625C50.3281 85.3011 49.8082 85.1676 49.223 85.1619C48.7116 85.1619 48.2145 85.267 47.7315 85.4773C47.2543 85.6875 46.8821 85.9744 46.6151 86.3381L43.3338 85.75L44.1605 76.5455H54.831V79.5625H47.2031L46.7514 83.9347H46.8537C47.1605 83.5028 47.6236 83.1449 48.2429 82.8608C48.8622 82.5767 49.5554 82.4347 50.3224 82.4347C51.3736 82.4347 52.3111 82.6818 53.1349 83.1761C53.9588 83.6705 54.6094 84.3494 55.0866 85.2131C55.5639 86.071 55.7997 87.0597 55.794 88.179C55.7997 89.3551 55.527 90.4006 54.9759 91.3153C54.4304 92.2244 53.6662 92.9403 52.6832 93.4631C51.706 93.9801 50.5696 94.2386 49.2741 94.2386Z" fill="black"/>
<path d="M201.307 180.136C200.886 180.136 200.526 179.986 200.224 179.685C199.923 179.384 199.773 179.023 199.773 178.602C199.773 178.182 199.923 177.821 200.224 177.52C200.526 177.219 200.886 177.068 201.307 177.068C201.727 177.068 202.088 177.219 202.389 177.52C202.69 177.821 202.841 178.182 202.841 178.602C202.841 178.881 202.77 179.136 202.628 179.369C202.491 179.602 202.307 179.79 202.074 179.932C201.847 180.068 201.591 180.136 201.307 180.136ZM207.916 180.136C207.496 180.136 207.135 179.986 206.834 179.685C206.533 179.384 206.382 179.023 206.382 178.602C206.382 178.182 206.533 177.821 206.834 177.52C207.135 177.219 207.496 177.068 207.916 177.068C208.337 177.068 208.697 177.219 208.999 177.52C209.3 177.821 209.45 178.182 209.45 178.602C209.45 178.881 209.379 179.136 209.237 179.369C209.101 179.602 208.916 179.79 208.683 179.932C208.456 180.068 208.2 180.136 207.916 180.136ZM214.526 180.136C214.105 180.136 213.744 179.986 213.443 179.685C213.142 179.384 212.991 179.023 212.991 178.602C212.991 178.182 213.142 177.821 213.443 177.52C213.744 177.219 214.105 177.068 214.526 177.068C214.946 177.068 215.307 177.219 215.608 177.52C215.909 177.821 216.06 178.182 216.06 178.602C216.06 178.881 215.989 179.136 215.847 179.369C215.71 179.602 215.526 179.79 215.293 179.932C215.065 180.068 214.81 180.136 214.526 180.136Z" fill="#656565"/>
</svg>
